<?xml version="1.0" encoding="utf-8"?>
<!-- Generator: Adobe Illustrator 21.0.0, SVG Export Plug-In . SVG Version: 6.00 Build 0)  -->
<svg version="1.1" id="Layer_1" xmlns="http://www.w3.org/2000/svg" xmlns:xlink="http://www.w3.org/1999/xlink" x="0px" y="0px"
	 viewBox="0 0 165.8 112.9" style="enable-background:new 0 0 165.8 112.9;" xml:space="preserve">
<style type="text/css">
	.st0{fill:#FFFFFF;}
	.st1{fill:#466A7B;}
	.st2{fill:none;stroke:#466A7B;stroke-width:0.2027;stroke-miterlimit:10;}
	.st3{fill:#E07861;}
	.st4{fill:none;stroke:#466A7B;stroke-width:0.1718;stroke-miterlimit:10;}
	.st5{fill:#060505;}
</style>
<polygon class="st3" points="121.4,15.2 121.4,15.1 159.8,20.7 159.8,12.8 113.9,5.9 113.3,5.8 113.3,52.3 121.4,53.2 "/>
<polygon class="st3" points="121.4,68.4 139.7,69.9 139.7,62 113.3,59.3 113.3,106.8 159.4,99.5 159.8,99.4 159.8,91.6 121.4,97.6 
	"/>
<polygon class="st1" points="53,21.1 53.5,21.2 53.5,13.3 6.1,6.1 6.1,107.6 53.5,100 53.5,62.1 27.1,59.7 27.1,67.8 45.4,69.2 
	45.4,93.1 14.1,98.2 14.1,15.4 "/>
<polygon class="st1" points="106.5,59.4 81.1,61.9 80.3,61.9 80.3,62.8 80.3,69.7 80.3,70.6 81.2,70.6 98.6,69 98.6,97.1 68.2,92.6 
	68.2,20.4 106.7,14.4 107.5,14.3 107.5,13.5 107.5,6.3 107.5,5.3 106.4,5.4 60,12.9 59.2,13 59.2,13.8 59.2,99.5 59.2,100.2 
	60,100.3 106.5,107.1 107.5,107.3 107.5,106.2 107.5,60.3 107.5,59.3 "/>
</svg>
