<?xml version="1.0" encoding="utf-8"?>
<!-- Generator: Adobe Illustrator 21.0.0, SVG Export Plug-In . SVG Version: 6.00 Build 0)  -->
<svg version="1.1" id="Layer_1" xmlns="http://www.w3.org/2000/svg" xmlns:xlink="http://www.w3.org/1999/xlink" x="0px" y="0px"
	 viewBox="0 0 368 187.7" style="enable-background:new 0 0 368 187.7;" xml:space="preserve">
<style type="text/css">
	.st0{fill:#FFFFFF;}
	.st1{fill:#466A7B;}
	.st2{fill:none;stroke:#466A7B;stroke-width:0.2027;stroke-miterlimit:10;}
	.st3{fill:#E07861;}
	.st4{fill:none;stroke:#466A7B;stroke-width:0.1718;stroke-miterlimit:10;}
	.st5{fill:#060505;}
</style>
<g>
	<path class="st0" d="M347.3,164.5L205,183c-14.3,1.8-28.8,1.8-43.1,0L19.7,164.5c-10.1-1.3-17.4-7.9-17.4-15.7V-21.7h362.4v170.5
		C364.7,156.6,357.4,163.2,347.3,164.5z"/>
	<g>
		<path class="st1" d="M197.3,34.7v1.6h3V40c-0.8,0.4-1.6,0.6-2.7,0.6c-1.5,0-2.7-0.5-3.6-1.4c-0.9-1-1.3-2.3-1.3-4
			c0-1.6,0.5-3,1.4-4c0.9-1,2.2-1.6,3.7-1.6c1.5,0,2.8,0.4,3.9,1l0.2,0.1v-2l-0.1,0c-1-0.5-2.3-0.7-3.8-0.7c-2.1,0-3.8,0.7-5.2,2.1
			c-1.4,1.4-2,3.2-2,5.3c0,2.1,0.6,3.8,1.8,5.1c1.2,1.3,2.8,1.9,4.8,1.9c1.7,0,3.2-0.4,4.6-1.2l0.1,0v-6.3H197.3z"/>
		<path class="st1" d="M212.7,33.2c-0.8-0.9-2-1.4-3.5-1.4c-1.5,0-2.8,0.5-3.7,1.4c-0.9,0.9-1.4,2.3-1.4,3.9c0,1.5,0.4,2.8,1.3,3.7
			c0.9,0.9,2.1,1.4,3.5,1.4c1.5,0,2.7-0.5,3.6-1.4c0.9-0.9,1.3-2.2,1.3-3.8C213.9,35.4,213.5,34.1,212.7,33.2 M212.1,37
			c0,1.2-0.3,2.1-0.8,2.7c-0.5,0.6-1.3,0.9-2.3,0.9c-1,0-1.7-0.3-2.3-1c-0.6-0.6-0.9-1.5-0.9-2.7c0-1.2,0.3-2.1,0.9-2.8
			c0.6-0.7,1.3-1,2.3-1c1,0,1.7,0.3,2.3,1C211.9,34.9,212.1,35.8,212.1,37"/>
		<path class="st1" d="M224.1,33.2c-0.8-0.9-2-1.4-3.5-1.4c-1.5,0-2.8,0.5-3.7,1.4c-0.9,0.9-1.4,2.3-1.4,3.9c0,1.5,0.4,2.8,1.3,3.7
			c0.9,0.9,2.1,1.4,3.5,1.4c1.5,0,2.7-0.5,3.6-1.4c0.9-0.9,1.3-2.2,1.3-3.8C225.4,35.4,224.9,34.1,224.1,33.2 M223.6,37
			c0,1.2-0.3,2.1-0.8,2.7l0,0c-0.5,0.6-1.3,0.9-2.2,0.9c-1,0-1.7-0.3-2.3-1c-0.6-0.6-0.9-1.5-0.9-2.7c0-1.2,0.3-2.1,0.9-2.8
			c0.6-0.7,1.3-1,2.3-1c1,0,1.7,0.3,2.2,1C223.3,34.9,223.6,35.8,223.6,37"/>
		<path class="st1" d="M234.4,27.3v5.9c-0.6-0.9-1.6-1.4-2.9-1.4c-1.4,0-2.5,0.5-3.3,1.5c-0.8,1-1.2,2.3-1.2,3.9
			c0,1.5,0.4,2.7,1.1,3.6c0.7,0.9,1.8,1.3,3,1.3c1.4,0,2.5-0.6,3.3-1.7V42h1.8V27.3H234.4z M234.4,36v1.4c0,0.9-0.3,1.7-0.8,2.3
			c-0.5,0.6-1.2,0.9-2,0.9c-0.9,0-1.5-0.3-2-0.9c-0.5-0.6-0.8-1.5-0.8-2.6c0-1.2,0.3-2.2,0.8-2.8c0.5-0.7,1.3-1,2.2-1
			c0.8,0,1.4,0.3,1.9,0.8C234.2,34.6,234.4,35.3,234.4,36"/>
		<path class="st1" d="M250.3,34.7v1.6h3V40c-0.8,0.4-1.6,0.6-2.7,0.6c-1.5,0-2.7-0.5-3.6-1.4c-0.9-1-1.3-2.3-1.3-4
			c0-1.6,0.5-3,1.4-4c1-1,2.2-1.6,3.7-1.6c1.5,0,2.8,0.4,3.9,1l0.2,0.1v-2l-0.1,0c-1-0.5-2.3-0.7-3.8-0.7c-2.1,0-3.8,0.7-5.2,2.1
			c-1.4,1.4-2,3.2-2,5.3c0,2.1,0.6,3.8,1.8,5.1c1.2,1.3,2.8,1.9,4.8,1.9c1.7,0,3.2-0.4,4.6-1.2l0.1,0v-6.3H250.3z"/>
		<path class="st1" d="M265.7,33.2c-0.8-0.9-2-1.3-3.4-1.3c-1.5,0-2.7,0.5-3.6,1.4c-0.9,0.9-1.3,2.2-1.3,3.8c0,1.5,0.4,2.7,1.3,3.6
			c0.9,0.9,2,1.4,3.4,1.4c1.5,0,2.7-0.5,3.5-1.4c0.9-0.9,1.3-2.2,1.3-3.7C266.9,35.4,266.5,34.1,265.7,33.2 M264.5,39.8
			c-0.5,0.7-1.3,1-2.3,1c-1,0-1.8-0.3-2.4-1c-0.6-0.7-0.9-1.6-0.9-2.7c0-1.2,0.3-2.1,0.9-2.8c0.6-0.7,1.4-1,2.4-1s1.8,0.3,2.3,1
			c0.5,0.7,0.8,1.6,0.8,2.8C265.3,38.2,265,39.2,264.5,39.8"/>
		<path class="st2" d="M265.7,33.2c-0.8-0.9-2-1.3-3.4-1.3c-1.5,0-2.7,0.5-3.6,1.4c-0.9,0.9-1.3,2.2-1.3,3.8c0,1.5,0.4,2.7,1.3,3.6
			c0.9,0.9,2,1.4,3.4,1.4c1.5,0,2.7-0.5,3.5-1.4c0.9-0.9,1.3-2.2,1.3-3.7C266.9,35.4,266.5,34.1,265.7,33.2z M264.5,39.8
			c-0.5,0.7-1.3,1-2.3,1c-1,0-1.8-0.3-2.4-1c-0.6-0.7-0.9-1.6-0.9-2.7c0-1.2,0.3-2.1,0.9-2.8c0.6-0.7,1.4-1,2.4-1s1.8,0.3,2.3,1
			c0.5,0.7,0.8,1.6,0.8,2.8C265.3,38.2,265,39.2,264.5,39.8z"/>
		<path class="st1" d="M275.3,32l-2.6,7.2c-0.1,0.3-0.2,0.6-0.2,0.9c-0.1-0.3-0.2-0.6-0.3-0.9l-2.5-7.2h-1.9l3.8,10h1.7l3.9-9.8
			l0.1-0.1H275.3z"/>
		<path class="st1" d="M286.5,36.6c0-1.5-0.3-2.6-1.1-3.4c-0.7-0.8-1.7-1.2-3-1.2c-1.3,0-2.3,0.5-3.2,1.4c-0.9,1-1.3,2.2-1.3,3.7
			c0,1.6,0.4,2.9,1.2,3.7c0.8,0.9,1.9,1.3,3.3,1.3c1.4,0,2.5-0.3,3.4-0.9v-1.5c-0.9,0.7-1.9,1.1-3,1.1c-1,0-1.7-0.3-2.3-0.9
			c-0.6-0.6-0.9-1.4-0.9-2.5h6.9V36.6z M279.6,36.1c0.1-0.9,0.4-1.5,1-2.1c0.5-0.5,1.1-0.8,1.9-0.8c0.8,0,1.4,0.3,1.8,0.8
			c0.4,0.5,0.6,1.2,0.6,2.1H279.6z"/>
		<path class="st2" d="M286.5,36.6c0-1.5-0.3-2.6-1.1-3.4c-0.7-0.8-1.7-1.2-3-1.2c-1.3,0-2.3,0.5-3.2,1.4c-0.9,1-1.3,2.2-1.3,3.7
			c0,1.6,0.4,2.9,1.2,3.7c0.8,0.9,1.9,1.3,3.3,1.3c1.4,0,2.5-0.3,3.4-0.9v-1.5c-0.9,0.7-1.9,1.1-3,1.1c-1,0-1.7-0.3-2.3-0.9
			c-0.6-0.6-0.9-1.4-0.9-2.5h6.9V36.6z M279.6,36.1c0.1-0.9,0.4-1.5,1-2.1c0.5-0.5,1.1-0.8,1.9-0.8c0.8,0,1.4,0.3,1.8,0.8
			c0.4,0.5,0.6,1.2,0.6,2.1H279.6z"/>
		<path class="st1" d="M294,32c-0.2-0.1-0.6-0.1-1-0.1c-0.6,0-1.1,0.2-1.6,0.6c-0.4,0.3-0.7,0.7-0.9,1.2V32h-1.8v10h1.8v-5.1
			c0-1.1,0.2-1.9,0.7-2.5c0.4-0.6,1-0.9,1.6-0.9c0.5,0,0.9,0.1,1.1,0.3l0.2,0.1L294,32L294,32z"/>
		<path class="st1" d="M302.9,32.9L302.9,32.9c-0.6-0.7-1.4-1.1-2.5-1.1c-1.3,0-2.4,0.6-3.1,1.7V32h-1.8v10h1.8v-5.7
			c0-0.9,0.2-1.6,0.7-2.2c0.5-0.6,1.1-0.8,1.9-0.8c1.5,0,2.2,1,2.2,3V42h1.8v-6.1C303.8,34.6,303.5,33.6,302.9,32.9"/>
		<path class="st1" d="M310.2,31.9c-1.2,0-2.4,0.3-3.3,0.9v1.6c0.9-0.8,2-1.2,3.2-1.2c1.3,0,2,0.8,2,2.5l-2.9,0.4
			c-2.1,0.3-3.2,1.4-3.2,3.2c0,0.9,0.3,1.5,0.8,2c0.5,0.5,1.3,0.8,2.3,0.8c1.3,0,2.3-0.6,3-1.8h0v1.5h1.6v-6.3
			C313.6,33.1,312.4,31.9,310.2,31.9 M312,37.9c0,0.8-0.3,1.5-0.8,2.1c-0.5,0.5-1.1,0.8-1.9,0.8c-0.6,0-1-0.1-1.4-0.5
			c-0.3-0.3-0.5-0.7-0.5-1.2c0-0.6,0.2-1.1,0.6-1.4c0.4-0.3,0.9-0.4,1.6-0.5l2.4-0.3V37.9z"/>
		<path class="st2" d="M310.2,31.9c-1.2,0-2.4,0.3-3.3,0.9v1.6c0.9-0.8,2-1.2,3.2-1.2c1.3,0,2,0.8,2,2.5l-2.9,0.4
			c-2.1,0.3-3.2,1.4-3.2,3.2c0,0.9,0.3,1.5,0.8,2c0.5,0.5,1.3,0.8,2.3,0.8c1.3,0,2.3-0.6,3-1.8h0v1.5h1.6v-6.3
			C313.6,33.1,312.4,31.9,310.2,31.9z M312,37.9c0,0.8-0.3,1.5-0.8,2.1c-0.5,0.5-1.1,0.8-1.9,0.8c-0.6,0-1-0.1-1.4-0.5
			c-0.3-0.3-0.5-0.7-0.5-1.2c0-0.6,0.2-1.1,0.6-1.4c0.4-0.3,0.9-0.4,1.6-0.5l2.4-0.3V37.9z"/>
		<path class="st1" d="M323.9,32.9c-0.6-0.7-1.4-1.1-2.5-1.1c-1.3,0-2.4,0.6-3.1,1.7V32h-1.8v10h1.8v-5.7c0-0.9,0.3-1.6,0.7-2.2
			c0.5-0.6,1.1-0.8,1.9-0.8c1.5,0,2.2,1,2.2,3V42h1.8v-6.1C324.7,34.6,324.4,33.6,323.9,32.9"/>
		<path class="st1" d="M331.9,33.3c0.8,0,1.6,0.3,2.3,0.7l0.2,0.1v-1.9l-0.1,0c-0.7-0.3-1.4-0.5-2.3-0.5c-1.6,0-2.8,0.5-3.8,1.5
			c-0.9,1-1.4,2.3-1.4,3.9c0,1.5,0.4,2.7,1.3,3.6c0.9,0.9,2,1.4,3.4,1.4c1,0,2-0.2,2.7-0.7l0,0v-1.7l-0.2,0.1
			c-0.7,0.5-1.5,0.8-2.3,0.8c-1,0-1.8-0.3-2.3-1c-0.6-0.6-0.9-1.5-0.9-2.6c0-1.1,0.3-2.1,0.9-2.7C330.2,33.7,331,33.3,331.9,33.3"/>
		<path class="st1" d="M344.4,36.6c0-1.5-0.3-2.6-1-3.4c-0.7-0.8-1.7-1.2-3-1.2s-2.3,0.5-3.2,1.4c-0.9,1-1.3,2.2-1.3,3.7
			c0,1.6,0.4,2.9,1.2,3.7c0.8,0.9,1.9,1.3,3.2,1.3c1.4,0,2.5-0.3,3.4-0.9v-1.5c-0.9,0.7-1.9,1.1-3,1.1c-1,0-1.7-0.3-2.3-0.9
			c-0.6-0.6-0.9-1.4-0.9-2.5h6.9V36.6z M337.6,36.1c0.1-0.9,0.4-1.5,1-2.1s1.1-0.8,1.9-0.8c0.8,0,1.4,0.3,1.8,0.8
			c0.4,0.5,0.6,1.2,0.6,2.1H337.6z"/>
		<path class="st2" d="M344.4,36.6c0-1.5-0.3-2.6-1-3.4c-0.7-0.8-1.7-1.2-3-1.2s-2.3,0.5-3.2,1.4c-0.9,1-1.3,2.2-1.3,3.7
			c0,1.6,0.4,2.9,1.2,3.7c0.8,0.9,1.9,1.3,3.2,1.3c1.4,0,2.5-0.3,3.4-0.9v-1.5c-0.9,0.7-1.9,1.1-3,1.1c-1,0-1.7-0.3-2.3-0.9
			c-0.6-0.6-0.9-1.4-0.9-2.5h6.9V36.6z M337.6,36.1c0.1-0.9,0.4-1.5,1-2.1s1.1-0.8,1.9-0.8c0.8,0,1.4,0.3,1.8,0.8
			c0.4,0.5,0.6,1.2,0.6,2.1H337.6z"/>
		<path class="st1" d="M196.4,50.7c-0.3-0.1-0.7-0.2-1.2-0.2c-0.9,0-1.7,0.3-2.3,0.9c-0.6,0.6-0.9,1.5-0.9,2.5v1.5h-1.7V57h1.7v8.4
			h1.8V57h2.3v-1.5h-2.3V54c0-1.3,0.5-2,1.5-2c0.4,0,0.7,0.1,1,0.2l0.2,0.1L196.4,50.7L196.4,50.7z"/>
		<path class="st1" d="M205.8,56.6L205.8,56.6c-0.8-0.9-2-1.4-3.5-1.4c-1.5,0-2.8,0.5-3.7,1.4c-0.9,0.9-1.4,2.3-1.4,3.9
			c0,1.5,0.4,2.8,1.3,3.7c0.9,0.9,2.1,1.4,3.5,1.4c1.5,0,2.7-0.5,3.6-1.4c0.9-0.9,1.3-2.2,1.3-3.8C207.1,58.8,206.6,57.5,205.8,56.6
			 M205.3,60.4c0,1.2-0.3,2.1-0.8,2.7c-0.5,0.6-1.3,0.9-2.2,0.9c-1,0-1.7-0.3-2.3-1c-0.6-0.7-0.9-1.5-0.9-2.7c0-1.2,0.3-2.1,0.9-2.8
			c0.6-0.7,1.3-1,2.3-1c1,0,1.7,0.3,2.2,1C205,58.3,205.3,59.2,205.3,60.4"/>
		<path class="st1" d="M215,55.4c-0.2-0.1-0.5-0.1-1-0.1c-0.6,0-1.1,0.2-1.6,0.6c-0.4,0.3-0.7,0.7-0.9,1.2v-1.7h-1.8v10h1.8v-5.1
			c0-1.1,0.2-1.9,0.7-2.5c0.4-0.6,1-0.9,1.6-0.9c0.5,0,0.9,0.1,1.1,0.3l0.2,0.1L215,55.4L215,55.4z"/>
		<polygon class="st1" points="224.7,63.7 224.7,59.2 229.6,59.2 229.6,57.5 224.7,57.5 224.7,53.2 230,53.2 230,51.5 222.9,51.5 
			222.9,65.4 230.3,65.4 230.3,63.7 		"/>
		<path class="st1" d="M240.3,56.3c-0.6-0.7-1.4-1.1-2.5-1.1c-1.3,0-2.4,0.6-3.1,1.7v-1.4h-1.8v10h1.8v-5.7c0-0.9,0.3-1.6,0.7-2.2
			c0.5-0.6,1.1-0.8,1.9-0.8c1.5,0,2.2,1,2.2,3v5.7h1.8v-6.1C241.2,58,240.9,57,240.3,56.3"/>
		<path class="st1" d="M249.1,57v-1.5h-2.5v-2.9l-1.8,0.6v2.4h-1.7V57h1.7v5.7c0,2,0.9,3,2.7,3c0.6,0,1.1-0.1,1.5-0.3l0.1,0v-1.6
			l-0.2,0.1c-0.3,0.2-0.6,0.3-1,0.3c-0.5,0-0.8-0.1-1-0.4c-0.2-0.3-0.3-0.7-0.3-1.3V57H249.1z"/>
		<path class="st1" d="M256.5,55.4c-0.2-0.1-0.5-0.1-1-0.1c-0.6,0-1.1,0.2-1.6,0.6c-0.4,0.3-0.7,0.7-0.9,1.2v-1.7h-1.8v10h1.8v-5.1
			c0-1.1,0.2-1.9,0.7-2.5c0.4-0.6,1-0.9,1.6-0.9c0.5,0,0.9,0.1,1.1,0.3l0.2,0.1L256.5,55.4L256.5,55.4z"/>
		<path class="st1" d="M266.3,60c0-1.5-0.4-2.7-1.1-3.5c-0.7-0.8-1.7-1.3-3-1.3c-1.3,0-2.4,0.5-3.3,1.5c-0.9,1-1.3,2.2-1.3,3.8
			c0,1.6,0.4,2.9,1.2,3.8c0.8,0.9,1.9,1.4,3.3,1.4c1.4,0,2.6-0.3,3.5-1l0,0v-1.7l-0.2,0.1c-0.9,0.7-1.9,1.1-3,1.1
			c-0.9,0-1.7-0.3-2.2-0.9c-0.5-0.5-0.8-1.3-0.8-2.3h6.9V60z M259.4,59.4c0.1-0.8,0.4-1.4,0.9-1.9c0.5-0.5,1.1-0.8,1.8-0.8
			c0.7,0,1.3,0.2,1.7,0.7c0.4,0.5,0.6,1.1,0.6,1.9H259.4z"/>
		<path class="st1" d="M276.9,56.5c-0.7-0.9-1.7-1.3-3-1.3c-1.4,0-2.5,0.6-3.3,1.8v-1.5h-1.8v14.4h1.8v-5.7c0.7,1,1.7,1.5,2.9,1.5
			c1.4,0,2.5-0.5,3.3-1.5c0.8-1,1.2-2.3,1.2-4C278,58.6,277.6,57.4,276.9,56.5 M273.5,56.7c0.8,0,1.5,0.3,2,0.9
			c0.5,0.6,0.7,1.4,0.7,2.5c0,1.3-0.3,2.3-0.8,3c-0.5,0.7-1.2,1-2.1,1c-0.8,0-1.4-0.3-1.9-0.8c-0.5-0.5-0.8-1.2-0.8-2v-1.4
			c0-0.9,0.3-1.7,0.8-2.3C271.9,57,272.6,56.7,273.5,56.7"/>
		<path class="st1" d="M285.9,55.4c-0.2-0.1-0.6-0.1-1-0.1c-0.6,0-1.1,0.2-1.6,0.6c-0.4,0.3-0.7,0.7-0.9,1.2v-1.7h-1.8v10h1.8v-5.1
			c0-1.1,0.2-1.9,0.7-2.5c0.4-0.6,1-0.9,1.6-0.9c0.5,0,0.9,0.1,1.1,0.3l0.2,0.1L285.9,55.4L285.9,55.4z"/>
		<path class="st1" d="M295.6,60c0-1.5-0.4-2.7-1.1-3.5c-0.7-0.8-1.7-1.3-3-1.3c-1.3,0-2.4,0.5-3.3,1.5c-0.9,1-1.3,2.2-1.3,3.8
			c0,1.6,0.4,2.9,1.2,3.8c0.8,0.9,1.9,1.4,3.3,1.4c1.4,0,2.6-0.3,3.5-1l0,0v-1.7l-0.2,0.1c-0.9,0.7-1.9,1.1-3,1.1
			c-0.9,0-1.7-0.3-2.2-0.9c-0.5-0.5-0.8-1.3-0.8-2.3h6.9V60z M289.7,57.5c0.5-0.5,1.1-0.8,1.8-0.8c0.7,0,1.3,0.2,1.7,0.7
			c0.4,0.5,0.6,1.1,0.6,1.9h-5C288.9,58.6,289.2,58,289.7,57.5"/>
		<path class="st1" d="M305.6,56.3c-0.6-0.7-1.4-1.1-2.5-1.1c-1.3,0-2.4,0.6-3.1,1.7v-1.4h-1.8v10h1.8v-5.7c0-0.9,0.2-1.6,0.7-2.2
			c0.5-0.6,1.1-0.8,1.9-0.8c1.5,0,2.2,1,2.2,3v5.7h1.8v-6.1C306.5,58,306.2,57,305.6,56.3"/>
		<path class="st1" d="M317.7,60c0-1.5-0.4-2.7-1.1-3.5c-0.7-0.8-1.7-1.3-3-1.3c-1.3,0-2.4,0.5-3.3,1.5c-0.9,1-1.3,2.2-1.3,3.8
			c0,1.6,0.4,2.9,1.2,3.8c0.8,0.9,1.9,1.4,3.3,1.4c1.4,0,2.6-0.3,3.5-1l0,0v-1.7l-0.2,0.1c-0.9,0.7-1.9,1.1-3,1.1
			c-0.9,0-1.7-0.3-2.2-0.9c-0.5-0.6-0.8-1.3-0.8-2.3h6.9V60z M310.8,59.4c0.1-0.8,0.4-1.4,0.9-1.9c0.5-0.5,1.1-0.8,1.8-0.8
			c0.7,0,1.3,0.2,1.7,0.7c0.4,0.5,0.6,1.1,0.6,1.9H310.8z"/>
		<path class="st1" d="M326.5,55.4v5.7c0,0.9-0.2,1.6-0.7,2.1c-0.5,0.5-1.1,0.8-1.8,0.8c-1.5,0-2.3-1-2.3-3v-5.7H320v5.9
			c0,2.8,1.2,4.3,3.6,4.3c1.3,0,2.3-0.5,2.9-1.6v1.3h1.8v-10H326.5z"/>
		<path class="st1" d="M336.9,55.4c-0.2-0.1-0.6-0.1-1-0.1c-0.6,0-1.1,0.2-1.6,0.6c-0.4,0.3-0.7,0.7-0.9,1.2v-1.7h-1.8v10h1.8v-5.1
			c0-1.1,0.2-1.9,0.7-2.5c0.4-0.6,1-0.9,1.6-0.9c0.5,0,0.9,0.1,1.1,0.3l0.2,0.1L336.9,55.4L336.9,55.4z"/>
		<path class="st1" d="M344.8,61.6c-0.1-0.3-0.3-0.6-0.6-0.8c-0.2-0.2-0.5-0.4-0.9-0.6c-0.3-0.2-0.7-0.3-1.2-0.5
			c-0.3-0.1-0.6-0.2-0.9-0.4c-0.2-0.1-0.4-0.2-0.6-0.4c-0.2-0.1-0.3-0.3-0.4-0.4c-0.1-0.2-0.1-0.4-0.1-0.6c0-0.2,0-0.4,0.1-0.5
			c0.1-0.1,0.2-0.3,0.4-0.4c0.2-0.1,0.3-0.2,0.6-0.3c0.2-0.1,0.5-0.1,0.8-0.1c0.9,0,1.7,0.2,2.4,0.7l0.2,0.1v-1.8l-0.1,0
			c-0.7-0.3-1.5-0.4-2.3-0.4c-0.5,0-0.9,0.1-1.4,0.2c-0.5,0.1-0.9,0.3-1.2,0.6c-0.4,0.2-0.6,0.5-0.9,0.9c-0.2,0.4-0.3,0.8-0.3,1.3
			c0,0.4,0.1,0.7,0.2,1c0.1,0.3,0.3,0.6,0.5,0.8c0.2,0.2,0.5,0.4,0.8,0.6c0.3,0.2,0.7,0.4,1.2,0.5c0.3,0.1,0.6,0.2,0.9,0.3
			c0.3,0.1,0.5,0.2,0.7,0.4c0.2,0.1,0.3,0.3,0.5,0.5c0.1,0.2,0.2,0.4,0.2,0.6c0,0.9-0.6,1.3-2,1.3c-1,0-1.9-0.3-2.7-0.9l-0.2-0.1V65
			l0.1,0c0.7,0.4,1.6,0.6,2.7,0.6c0.5,0,1-0.1,1.5-0.2c0.5-0.1,0.9-0.3,1.3-0.5c0.4-0.2,0.7-0.5,0.9-0.9c0.2-0.4,0.3-0.8,0.3-1.3
			C345,62.3,345,61.9,344.8,61.6"/>
		<path class="st1" d="M218.9,92.5c-0.2-0.2-0.5-0.3-0.8-0.3c-0.3,0-0.6,0.1-0.8,0.3c-0.2,0.2-0.3,0.5-0.3,0.8
			c0,0.3,0.1,0.6,0.3,0.8c0.2,0.2,0.5,0.3,0.8,0.3c0.3,0,0.6-0.1,0.8-0.3c0.2-0.2,0.3-0.5,0.3-0.8C219.2,93,219.1,92.8,218.9,92.5
			L218.9,92.5z"/>
		<path class="st1" d="M216.4,92.5c-0.2-0.2-0.5-0.3-0.8-0.3c-0.3,0-0.6,0.1-0.8,0.3c-0.2,0.2-0.3,0.5-0.3,0.8
			c0,0.3,0.1,0.6,0.3,0.8c0.2,0.2,0.5,0.3,0.8,0.3c0.3,0,0.6-0.1,0.8-0.3c0.2-0.2,0.3-0.5,0.3-0.8C216.7,93,216.6,92.8,216.4,92.5
			L216.4,92.5z"/>
		<path class="st1" d="M236.7,78.2c0.3,0,0.6-0.1,0.8-0.3c0.2-0.2,0.3-0.5,0.3-0.8c0-0.3-0.1-0.6-0.3-0.8l0,0
			c-0.2-0.2-0.5-0.3-0.8-0.3c-0.3,0-0.6,0.1-0.8,0.3c-0.2,0.2-0.3,0.5-0.3,0.8c0,0.3,0.1,0.6,0.3,0.8
			C236.1,78,236.4,78.2,236.7,78.2"/>
		<path class="st1" d="M235.4,80.5c0.3,0,0.6-0.1,0.8-0.3c0.2-0.2,0.3-0.5,0.3-0.8c0-0.3-0.1-0.6-0.3-0.8l0,0
			c-0.2-0.2-0.5-0.3-0.8-0.3c-0.3,0-0.6,0.1-0.8,0.3c-0.2,0.2-0.3,0.5-0.3,0.8c0,0.3,0.1,0.6,0.3,0.8
			C234.8,80.4,235.1,80.5,235.4,80.5"/>
		<path class="st1" d="M240.7,88.6h-1.5c-0.3,0-0.6,0-0.8-0.1c-0.2-0.1-0.4-0.2-0.5-0.4c-0.1-0.2-0.2-0.4-0.2-0.6
			c0-0.3-0.1-0.5-0.1-0.9v-2.9h-1.8v3.7c0,0.3,0,0.6-0.1,0.7c-0.1,0.2-0.2,0.3-0.3,0.4c-0.1,0.1-0.3,0.1-0.5,0.2c-0.2,0-0.4,0-0.7,0
			c-0.4,0-0.8,0-1-0.1c-0.2-0.1-0.4-0.2-0.6-0.4c-0.1-0.2-0.2-0.4-0.2-0.6c0-0.3-0.1-0.6-0.1-0.9v-2.9h-1.8v3.7c0,0.3,0,0.6-0.1,0.7
			c-0.1,0.2-0.2,0.3-0.3,0.4c-0.2,0.1-0.4,0.2-0.7,0.2c-0.3,0-0.6,0-1.1,0h-0.7H225h-2.8h-2.8c-0.3,0-0.6,0-0.8-0.1
			c-0.2-0.1-0.4-0.2-0.5-0.4c-0.1-0.2-0.2-0.4-0.2-0.6c0-0.3-0.1-0.5-0.1-0.9v-3.9H216v4.6c0,0.3,0,0.6-0.1,0.7
			c-0.1,0.2-0.2,0.3-0.3,0.4c-0.1,0.1-0.3,0.1-0.5,0.2c-0.2,0-0.5,0-0.8,0h-1.3h-2.8h-2.8h-2.8h-2.8h-2.8c-0.2,0-0.3,0-0.5-0.1
			c-0.2-0.1-0.3-0.2-0.5-0.4c-0.2-0.2-0.3-0.4-0.5-0.8c-0.1-0.2-0.2-0.4-0.4-0.6c-0.1-0.2-0.2-0.3-0.3-0.5l-2.3-4l-1.7,1.1l2.1,3.2
			c0.2,0.3,0.4,0.6,0.5,0.8c0.1,0.2,0.2,0.5,0.2,0.7c0,0.2-0.1,0.4-0.4,0.5c-0.3,0.1-0.7,0.2-1.2,0.2h-3.5v1.9h3c0.3,0,0.6,0,0.9,0
			c0.3,0,0.6-0.1,0.9-0.2c0.3-0.1,0.6-0.3,0.8-0.5c0.2-0.2,0.4-0.4,0.5-0.7c0.3,0.5,0.7,0.9,1,1.1c0.4,0.2,0.8,0.4,1.4,0.4h2.8h2.8
			h2.8h2.8h2.8h1.6c0.7,0,1.3-0.1,1.8-0.2c0.5-0.1,0.8-0.4,1-0.9c0.1,0.3,0.3,0.5,0.6,0.7c0.3,0.2,0.7,0.4,1.1,0.4
			c0.1,0,0.1,0,0.2,0h2.8h2.8h2.8h0.6c0.5,0,1,0,1.5-0.1c0.4,0,0.8-0.1,1-0.2c0.3-0.1,0.5-0.2,0.7-0.4c0.1-0.1,0.3-0.3,0.4-0.5
			c0.1,0.1,0.1,0.2,0.2,0.3c0.1,0.2,0.3,0.3,0.5,0.5c0.2,0.1,0.5,0.2,0.8,0.3c0.3,0.1,0.7,0.1,1.1,0.1c0.7,0,1.3-0.1,1.8-0.2
			c0.4-0.1,0.8-0.4,1-0.9c0.1,0.3,0.3,0.5,0.6,0.7c0.3,0.3,0.7,0.4,1.3,0.4h3.3v-7.8h-1.8V88.6z"/>
		<path class="st1" d="M236.8,79.4c0,0.3,0.1,0.6,0.3,0.8c0.2,0.2,0.5,0.3,0.8,0.3c0.3,0,0.6-0.1,0.8-0.3c0.2-0.2,0.3-0.5,0.3-0.8
			c0-0.3-0.1-0.6-0.3-0.8l0,0c-0.2-0.2-0.5-0.3-0.8-0.3c-0.3,0-0.6,0.1-0.8,0.3C236.9,78.8,236.8,79.1,236.8,79.4"/>
		<path class="st1" d="M263.9,88.6H261h-2.8h-2.8h-2.8h-2.8c-0.6,0-1-0.2-1.2-0.5c-0.2-0.4-0.3-0.9-0.3-1.5v-2.9h-1.8V89
			c0,0.7,0,1.2,0,1.7c0,0.5-0.1,0.9-0.3,1.1c-0.2,0.3-0.4,0.5-0.7,0.6c-0.3,0.1-0.8,0.2-1.4,0.2h-0.1v1.8h0.1c0.9,0,1.6-0.1,2.1-0.3
			c0.6-0.2,1-0.5,1.3-0.9c0.3-0.4,0.5-1,0.6-1.6c0.1-0.6,0.2-1.3,0.2-2.1c0.1,0.2,0.3,0.3,0.5,0.4c0.3,0.2,0.6,0.3,0.9,0.3
			c0.1,0,0.1,0,0.2,0h2.8h2.8h2.8h2.8h4.7V76.1h-1.8V88.6z"/>
		<rect x="268.2" y="76.1" class="st1" width="1.8" height="14.4"/>
		<path class="st1" d="M339.8,88.6h-2.9h-2.8h-2.8h0h-1.1c0-0.8-0.1-1.6-0.4-2.3c-0.2-0.8-0.6-1.4-1-2c-0.5-0.6-1-1-1.8-1.4
			c-0.7-0.3-1.5-0.5-2.5-0.5c-0.5,0-1,0-1.4,0.2c-0.4,0.1-0.7,0.2-1,0.3l-0.1,0v1.8l0.1,0c0.3-0.1,0.6-0.2,1-0.2
			c1.1-0.2,1.9-0.1,2.7,0.1c0.5,0.2,0.9,0.4,1.3,0.8c0.4,0.3,0.6,0.8,0.9,1.4c0.2,0.5,0.3,1.2,0.3,2h-7.6h-2.8H315h-2.8
			c-0.2,0-0.4,0-0.6-0.1c-0.2,0-0.3-0.1-0.5-0.3c-0.1-0.2-0.3-0.4-0.4-0.6c-0.1-0.3-0.3-0.6-0.4-1.1c-0.3-0.8-0.8-1.7-1.6-2.5
			c-0.8-0.8-1.8-1.5-3.1-2.2l5.5-2.5v-1.9l-7.3,3.3c-0.1,0-0.2,0.1-0.2,0.2c-0.1,0.1-0.1,0.2-0.2,0.4c-0.1,0.1-0.1,0.3-0.2,0.5
			c0,0.2-0.1,0.3-0.1,0.5l0,0.1l0.1,0c0.8,0.4,1.5,0.8,2.2,1.2c0.6,0.4,1.2,0.9,1.7,1.3c0.5,0.5,0.9,0.9,1.1,1.3
			c0.3,0.4,0.4,0.8,0.4,1.1c0,0.4-0.1,0.6-0.4,0.8c-0.3,0.2-0.8,0.3-1.5,0.3h-4.3h-2.8h-2.8h-2.8h-2.8h-2.9c-0.2,0-0.3,0-0.4,0.1
			c-0.3,0-0.6-0.1-0.7-0.3c-0.3-0.2-0.4-0.5-0.6-1c0-0.1,0-0.2,0-0.3c0-0.1,0-0.2,0-0.3c0-0.6-0.1-1.1-0.3-1.6
			c-0.2-0.5-0.4-0.9-0.7-1.3c-0.3-0.4-0.7-0.6-1.1-0.8c-0.4-0.2-0.9-0.3-1.3-0.3c-0.3,0-0.7,0.1-1.1,0.2c-0.4,0.1-0.8,0.4-1.2,0.8
			c-0.4,0.4-0.7,0.8-1,1.4c-0.3,0.6-0.5,1.3-0.7,2.2c-0.6,0.2-1,0.4-1.4,0.7c-0.4,0.3-0.6,0.6-0.8,0.9c-0.2,0.4-0.3,0.8-0.4,1.3
			c-0.1,0.5-0.1,1.1-0.1,1.7v6.1h1.6v-6c0-0.5,0-0.9,0-1.3c0-0.4,0.1-0.6,0.2-0.9c0.1-0.2,0.3-0.4,0.5-0.6c0.2-0.1,0.5-0.2,0.8-0.3
			c0.7,0.5,1.3,0.9,1.9,1.1c0.6,0.2,1.2,0.3,1.8,0.3c0.7,0,1.3-0.1,1.7-0.4c0.5-0.3,0.8-0.7,1.1-1.2v0c0.2,0.5,0.5,0.8,0.9,1
			c0.2,0.1,0.5,0.2,0.7,0.2c0.1,0.1,0.3,0.2,0.5,0.2h2.9h2.8h2.8h2.8h2.8h3.9c0.8,0,1.6-0.1,2.1-0.3c0.6-0.2,1-0.6,1.2-1.2
			c0.1,0.3,0.3,0.5,0.4,0.7c0.2,0.2,0.4,0.4,0.6,0.5c0.2,0.1,0.4,0.2,0.7,0.2c0.2,0,0.5,0.1,0.7,0.1h2.8h2.8h2.8h10.5h0h2.8h2.8h4.7
			V76.1h-1.8V88.6z M284.5,88.4c-0.3,0.3-0.8,0.5-1.3,0.5c-0.5,0-1-0.1-1.4-0.3c-0.5-0.2-0.9-0.5-1.4-0.8c0.3-1.2,0.7-2,1.2-2.5
			s1-0.8,1.5-0.8c0.3,0,0.6,0.1,0.8,0.2c0.2,0.1,0.4,0.3,0.6,0.5c0.2,0.2,0.3,0.5,0.4,0.7c0.1,0.3,0.1,0.6,0.1,0.9
			C285,87.6,284.8,88.1,284.5,88.4"/>
		<rect x="344" y="76.1" class="st1" width="1.8" height="14.4"/>
		<path class="st1" d="M196.4,113.9c0,1.3-0.3,2.2-0.8,2.8c-0.6,0.6-1.5,0.8-2.7,0.8c-2.4,0-3.6-1.2-3.6-3.8v-2.8h-1.8v3.2
			c0,0.8,0.1,1.5,0.3,2.1c0.2,0.7,0.6,1.2,1,1.7c0.4,0.5,1,0.8,1.7,1.1c0.7,0.3,1.5,0.4,2.3,0.4c1.7,0,3-0.5,4-1.4
			c0.9-0.9,1.4-2.3,1.4-4v-14h-1.8V113.9z"/>
		<path class="st1" d="M262.2,111.8c-0.4-0.4-0.6-0.9-0.6-1.6c0-0.7,0.2-1.2,0.7-1.6c0.5-0.4,1.1-0.6,1.8-0.6c0.4,0,0.8,0,1,0.1
			c0.3,0.1,0.6,0.1,0.8,0.2l0.1,0v-2l-0.1,0c-0.2-0.1-0.4-0.1-0.7-0.2c-0.3-0.1-0.7-0.1-1.2-0.1c-0.5,0-1,0.1-1.5,0.2
			c-0.5,0.2-1,0.4-1.4,0.8c-0.4,0.3-0.8,0.8-1,1.3c-0.3,0.5-0.4,1.1-0.4,1.8c0,0.5,0.1,1,0.2,1.4c0.1,0.3,0.3,0.6,0.5,0.8h-2.1h-2.8
			h-2.8h-2.8H247h-2.8h-2.8h-2.8c-0.2,0-0.3,0-0.4,0.1c-0.3,0-0.6-0.1-0.8-0.3c-0.3-0.2-0.4-0.5-0.6-1c0-0.1,0-0.2,0-0.2
			c0-0.1,0-0.2,0-0.3c0-0.6-0.1-1.1-0.3-1.6c-0.2-0.5-0.4-0.9-0.7-1.3c-0.3-0.3-0.7-0.6-1.1-0.8c-0.4-0.2-0.9-0.3-1.3-0.3
			c-0.3,0-0.7,0-1,0.1c-0.3,0.1-0.7,0.3-1,0.6c-0.3,0.3-0.7,0.7-1,1.2c-0.3,0.5-0.6,1.2-0.9,2.1c-0.1,0.4-0.3,0.7-0.5,0.9
			c-0.2,0.2-0.3,0.4-0.5,0.5c-0.2,0.1-0.3,0.2-0.5,0.3c-0.2,0-0.3,0.1-0.5,0.1h-0.3c-0.1-0.1-0.3-0.1-0.4-0.1h-2.8H221h-2.8h-2.8
			h-2.8h-2.8h-2.8H204h-0.3c-0.5,0-0.9-0.1-1-0.3c-0.2-0.2-0.2-0.6-0.2-1.1V99.9h-1.8v11.5c0,0.5,0.1,1,0.2,1.4
			c0.1,0.4,0.3,0.7,0.6,0.9c0.2,0.2,0.5,0.4,0.9,0.5c0.3,0.1,0.7,0.1,1.1,0.1h0.5h2.8h2.8h2.8h2.8h2.8h2.8h2.8h2.8
			c0.2,0,0.3,0,0.5-0.1h0.3c0.2,0,0.5,0,0.6,0c0.2,0,0.4-0.1,0.6-0.1c0.2-0.1,0.4-0.2,0.5-0.3c0.2-0.2,0.3-0.4,0.5-0.6
			c0.7,0.5,1.3,0.9,1.9,1.1c0.6,0.2,1.2,0.3,1.8,0.3c0.7,0,1.3-0.1,1.8-0.4c0.5-0.3,0.8-0.7,1.1-1.2v0c0.2,0.5,0.5,0.8,0.9,1
			c0.2,0.1,0.5,0.2,0.7,0.2c0.1,0.1,0.3,0.2,0.5,0.2h2.9h2.8h2.8h2.8h2.8h2.8h2.8h8.5v-1.8h-2.9
			C263.2,112.4,262.6,112.2,262.2,111.8 M234.7,112.3c-0.3,0.3-0.8,0.5-1.3,0.5c-0.5,0-1-0.1-1.4-0.3c-0.5-0.2-0.9-0.4-1.4-0.8
			c0.4-1.2,0.8-2.1,1.3-2.6c0.4-0.5,0.9-0.7,1.5-0.7c0.3,0,0.6,0.1,0.8,0.2c0.2,0.1,0.4,0.3,0.6,0.5c0.2,0.2,0.3,0.5,0.4,0.7
			c0.1,0.3,0.1,0.6,0.1,0.9C235.2,111.4,235,111.9,234.7,112.3"/>
		<path class="st1" d="M275.3,102.2h-1.2c-0.3,0-0.5-0.1-0.7-0.3c-0.2-0.2-0.2-0.4-0.2-0.6c0-0.2,0.1-0.4,0.2-0.6
			c0.1-0.2,0.3-0.2,0.6-0.2c0.3,0,0.5,0.1,0.8,0.2l0.1,0.1v-1.1l0,0c-0.1-0.1-0.2-0.1-0.4-0.2c-0.2,0-0.4,0-0.6,0
			c-0.2,0-0.4,0-0.6,0.1c-0.2,0.1-0.4,0.2-0.6,0.4c-0.2,0.2-0.3,0.4-0.4,0.6c-0.1,0.2-0.1,0.5-0.1,0.8c0,0.3,0.1,0.6,0.2,0.9h-0.8
			v1.1h3.7V102.2z"/>
		<polygon class="st1" points="277.8,112.4 274.6,112.4 274.6,104.9 272.8,104.9 272.8,112.4 268.5,112.4 268.5,114.3 279.6,114.3 
			279.6,99.9 277.8,99.9 		"/>
		<rect x="282.1" y="99.9" class="st1" width="1.8" height="14.4"/>
		<path class="st1" d="M298,111c-0.1-0.3-0.3-0.7-0.6-1.1c-0.2-0.4-0.5-0.9-0.9-1.6c-0.4-0.6-0.8-1.4-1.3-2.3l-0.1-0.1l-1.6,1.1
			l0.1,0.1c0.4,0.6,0.7,1.1,1,1.5c0.2,0.3,0.4,0.6,0.6,0.9l0.4,0.6c0.2,0.3,0.4,0.5,0.5,0.7c0.1,0.2,0.3,0.5,0.4,0.7
			c0,0.1,0.1,0.3,0.1,0.4c0,0.1-0.1,0.3-0.1,0.4c-0.1,0.1-0.2,0.2-0.7,0.2h-4.5v1.8h4.7c0.8,0,1.5-0.2,1.9-0.6
			c0.4-0.4,0.7-1,0.7-1.6C298.1,111.7,298.1,111.4,298,111"/>
		<rect x="300.2" y="99.9" class="st1" width="1.8" height="14.4"/>
		<path class="st1" d="M310.6,107.9c-0.3-0.5-0.6-0.8-1.1-1.1c-0.5-0.3-1-0.4-1.7-0.4c-0.6,0-1.2,0.1-1.6,0.4
			c-0.5,0.2-0.9,0.6-1.2,1c-0.3,0.4-0.6,0.9-0.7,1.4c-0.2,0.5-0.3,1-0.3,1.6c0,0.7,0.1,1.2,0.3,1.7c0.2,0.5,0.4,0.8,0.7,1.1
			c0.3,0.3,0.7,0.5,1.1,0.6c0.4,0.1,0.9,0.2,1.4,0.2c0.5,0,1-0.1,1.4-0.2c0.4-0.1,0.7-0.2,0.9-0.4v0.4c0,0.6-0.1,1.1-0.3,1.4
			c-0.2,0.4-0.5,0.6-0.9,0.8c-0.4,0.2-0.8,0.3-1.3,0.4c-0.5,0.1-1.1,0.1-1.7,0.1H305v1.6h0.8c0.9,0,1.6-0.1,2.3-0.2
			c0.7-0.1,1.3-0.4,1.7-0.7c0.5-0.4,0.8-0.9,1.1-1.5c0.3-0.6,0.4-1.4,0.4-2.4v-1.9c0-0.8-0.1-1.4-0.2-2.1
			C311.1,108.9,310.9,108.3,310.6,107.9 M309.8,111.9c-0.2,0.2-0.5,0.3-0.8,0.4c-0.4,0.1-0.8,0.2-1.3,0.2c-0.6,0-1.2-0.2-1.6-0.5
			c-0.4-0.3-0.6-0.9-0.6-1.6c0-0.3,0-0.6,0.1-0.9c0.1-0.3,0.2-0.6,0.4-0.8c0.2-0.2,0.4-0.4,0.7-0.6c0.3-0.2,0.6-0.2,1-0.2
			c0.4,0,0.7,0.1,1,0.2c0.3,0.2,0.5,0.4,0.7,0.7c0.2,0.3,0.3,0.6,0.4,1c0.1,0.4,0.1,0.8,0.1,1.3V111.9z"/>
		<path class="st1" d="M344,99.9v12.5h-2.9h-2.8h-2.8h-2.8h-2.8H327h-2.8h-2.8h-2.8c-0.6,0-1-0.2-1.2-0.5c-0.2-0.4-0.3-0.9-0.3-1.5
			v-2.9h-1.8v5.4c0,0.6,0,1.2,0,1.7c0,0.5-0.1,0.9-0.3,1.1c-0.2,0.3-0.4,0.5-0.7,0.6c-0.3,0.1-0.8,0.2-1.4,0.2h-0.1v1.8h0.1
			c0.9,0,1.6-0.1,2.1-0.3c0.6-0.2,1-0.5,1.3-0.9c0.3-0.4,0.5-1,0.6-1.6c0.1-0.6,0.2-1.3,0.2-2.1c0.1,0.2,0.3,0.3,0.5,0.4
			c0.3,0.2,0.6,0.3,0.9,0.3c0.1,0,0.1,0,0.2,0h2.8h2.8h2.8h2.8h2.8h2.8h2.8h2.8h4.7V99.9H344z"/>
		<polygon class="st3" points="136.5,32.3 136.5,32.2 174.9,37.8 174.9,29.9 129,23 128.4,22.9 128.4,69.4 136.5,70.3 		"/>
		<polygon class="st3" points="136.5,85.5 154.8,87 154.8,79.1 128.4,76.4 128.4,123.9 174.5,116.6 174.9,116.5 174.9,108.7 
			136.5,114.7 		"/>
		<polygon class="st1" points="68.1,38.2 68.6,38.3 68.6,30.4 21.2,23.2 21.2,124.7 68.6,117.1 68.6,79.2 42.2,76.8 42.2,84.9 
			60.5,86.3 60.5,110.2 29.2,115.3 29.2,32.5 		"/>
		<polygon class="st1" points="121.6,76.5 96.2,79 95.4,79 95.4,79.9 95.4,86.8 95.4,87.7 96.3,87.7 113.7,86.1 113.7,114.2 
			83.3,109.7 83.3,37.5 121.8,31.5 122.6,31.4 122.6,30.6 122.6,23.4 122.6,22.4 121.5,22.5 75.1,30 74.3,30.1 74.3,30.9 
			74.3,116.6 74.3,117.3 75.1,117.4 121.6,124.2 122.6,124.4 122.6,123.3 122.6,77.4 122.6,76.4 		"/>
		<path class="st1" d="M257.9,128.8c0.5-0.1,1.3-0.2,2.2-0.2c1.1,0,1.9,0.3,2.5,0.7c0.5,0.4,0.8,1.1,0.8,1.8c0,0.8-0.2,1.4-0.7,1.9
			c-0.6,0.6-1.6,1-2.7,1c-0.3,0-0.7,0-0.9-0.1v3.5h-1.1V128.8z M259,133c0.2,0.1,0.6,0.1,0.9,0.1c1.4,0,2.2-0.7,2.2-1.9
			c0-1.2-0.8-1.7-2.1-1.7c-0.5,0-0.9,0-1.1,0.1V133z"/>
		<path class="st4" d="M257.9,128.8c0.5-0.1,1.3-0.2,2.2-0.2c1.1,0,1.9,0.3,2.5,0.7c0.5,0.4,0.8,1.1,0.8,1.8c0,0.8-0.2,1.4-0.7,1.9
			c-0.6,0.6-1.6,1-2.7,1c-0.3,0-0.7,0-0.9-0.1v3.5h-1.1V128.8z M259,133c0.2,0.1,0.6,0.1,0.9,0.1c1.4,0,2.2-0.7,2.2-1.9
			c0-1.2-0.8-1.7-2.1-1.7c-0.5,0-0.9,0-1.1,0.1V133z"/>
		<path class="st1" d="M270.2,134.2c0,2.3-1.6,3.3-3.1,3.3c-1.7,0-3-1.2-3-3.2c0-2.1,1.4-3.3,3.1-3.3
			C268.9,131,270.2,132.3,270.2,134.2 M265.2,134.3c0,1.4,0.8,2.4,1.9,2.4c1.1,0,1.9-1,1.9-2.4c0-1.1-0.5-2.4-1.9-2.4
			C265.8,131.8,265.2,133.1,265.2,134.3"/>
		<path class="st4" d="M270.2,134.2c0,2.3-1.6,3.3-3.1,3.3c-1.7,0-3-1.2-3-3.2c0-2.1,1.4-3.3,3.1-3.3
			C268.9,131,270.2,132.3,270.2,134.2z M265.2,134.3c0,1.4,0.8,2.4,1.9,2.4c1.1,0,1.9-1,1.9-2.4c0-1.1-0.5-2.4-1.9-2.4
			C265.8,131.8,265.2,133.1,265.2,134.3z"/>
		<path class="st1" d="M272,131.1l0.8,3.2c0.2,0.7,0.4,1.4,0.5,2h0c0.1-0.6,0.4-1.3,0.6-2l1-3.2h1l1,3.2c0.2,0.8,0.4,1.4,0.6,2.1h0
			c0.1-0.6,0.3-1.3,0.5-2l0.9-3.2h1.1l-2,6.3h-1l-1-3c-0.2-0.7-0.4-1.3-0.6-2.1h0c-0.2,0.8-0.4,1.4-0.6,2.1l-1,3h-1l-1.9-6.3H272z"
			/>
		<path class="st4" d="M272,131.1l0.8,3.2c0.2,0.7,0.4,1.4,0.5,2h0c0.1-0.6,0.4-1.3,0.6-2l1-3.2h1l1,3.2c0.2,0.8,0.4,1.4,0.6,2.1h0
			c0.1-0.6,0.3-1.3,0.5-2l0.9-3.2h1.1l-2,6.3h-1l-1-3c-0.2-0.7-0.4-1.3-0.6-2.1h0c-0.2,0.8-0.4,1.4-0.6,2.1l-1,3h-1l-1.9-6.3H272z"
			/>
		<path class="st1" d="M281.6,134.5c0,1.5,1,2.2,2.2,2.2c0.8,0,1.3-0.1,1.7-0.3l0.2,0.8c-0.4,0.2-1.1,0.4-2.1,0.4
			c-1.9,0-3.1-1.3-3.1-3.2c0-1.9,1.1-3.4,3-3.4c2.1,0,2.6,1.8,2.6,3c0,0.2,0,0.4,0,0.5H281.6z M285,133.7c0-0.7-0.3-1.9-1.6-1.9
			c-1.2,0-1.7,1.1-1.8,1.9H285z"/>
		<path class="st4" d="M281.6,134.5c0,1.5,1,2.2,2.2,2.2c0.8,0,1.3-0.1,1.7-0.3l0.2,0.8c-0.4,0.2-1.1,0.4-2.1,0.4
			c-1.9,0-3.1-1.3-3.1-3.2c0-1.9,1.1-3.4,3-3.4c2.1,0,2.6,1.8,2.6,3c0,0.2,0,0.4,0,0.5H281.6z M285,133.7c0-0.7-0.3-1.9-1.6-1.9
			c-1.2,0-1.7,1.1-1.8,1.9H285z"/>
		<path class="st1" d="M287.5,133.1c0-0.7,0-1.4-0.1-2h1l0,1.2h0.1c0.3-0.8,1-1.4,1.7-1.4c0.1,0,0.2,0,0.3,0v1.1c-0.1,0-0.2,0-0.4,0
			c-0.8,0-1.4,0.6-1.5,1.5c0,0.2,0,0.3,0,0.5v3.4h-1.1V133.1z"/>
		<path class="st4" d="M287.5,133.1c0-0.7,0-1.4-0.1-2h1l0,1.2h0.1c0.3-0.8,1-1.4,1.7-1.4c0.1,0,0.2,0,0.3,0v1.1c-0.1,0-0.2,0-0.4,0
			c-0.8,0-1.4,0.6-1.5,1.5c0,0.2,0,0.3,0,0.5v3.4h-1.1V133.1z"/>
		<path class="st1" d="M292.3,134.5c0,1.5,1,2.2,2.2,2.2c0.8,0,1.3-0.1,1.7-0.3l0.2,0.8c-0.4,0.2-1.1,0.4-2.1,0.4
			c-1.9,0-3.1-1.3-3.1-3.2c0-1.9,1.1-3.4,3-3.4c2.1,0,2.6,1.8,2.6,3c0,0.2,0,0.4,0,0.5H292.3z M295.6,133.7c0-0.7-0.3-1.9-1.6-1.9
			c-1.2,0-1.7,1.1-1.8,1.9H295.6z"/>
		<path class="st4" d="M292.3,134.5c0,1.5,1,2.2,2.2,2.2c0.8,0,1.3-0.1,1.7-0.3l0.2,0.8c-0.4,0.2-1.1,0.4-2.1,0.4
			c-1.9,0-3.1-1.3-3.1-3.2c0-1.9,1.1-3.4,3-3.4c2.1,0,2.6,1.8,2.6,3c0,0.2,0,0.4,0,0.5H292.3z M295.6,133.7c0-0.7-0.3-1.9-1.6-1.9
			c-1.2,0-1.7,1.1-1.8,1.9H295.6z"/>
		<path class="st1" d="M303.6,128.2v7.6c0,0.6,0,1.2,0,1.6h-1l-0.1-1.1h0c-0.4,0.7-1.1,1.2-2.1,1.2c-1.5,0-2.7-1.3-2.7-3.2
			c0-2.1,1.3-3.4,2.8-3.4c1,0,1.6,0.5,1.9,1h0v-3.8H303.6z M302.5,133.7c0-0.1,0-0.3-0.1-0.5c-0.2-0.7-0.8-1.3-1.7-1.3
			c-1.2,0-1.9,1-1.9,2.4c0,1.3,0.6,2.3,1.9,2.3c0.8,0,1.5-0.5,1.7-1.4c0-0.2,0.1-0.3,0.1-0.5V133.7z"/>
		<path class="st4" d="M303.6,128.2v7.6c0,0.6,0,1.2,0,1.6h-1l-0.1-1.1h0c-0.4,0.7-1.1,1.2-2.1,1.2c-1.5,0-2.7-1.3-2.7-3.2
			c0-2.1,1.3-3.4,2.8-3.4c1,0,1.6,0.5,1.9,1h0v-3.8H303.6z M302.5,133.7c0-0.1,0-0.3-0.1-0.5c-0.2-0.7-0.8-1.3-1.7-1.3
			c-1.2,0-1.9,1-1.9,2.4c0,1.3,0.6,2.3,1.9,2.3c0.8,0,1.5-0.5,1.7-1.4c0-0.2,0.1-0.3,0.1-0.5V133.7z"/>
		<path class="st1" d="M308.2,137.4c0-0.4,0-1.1,0-1.6v-7.6h1.1v4h0c0.4-0.7,1.1-1.2,2.1-1.2c1.6,0,2.7,1.3,2.7,3.2
			c0,2.3-1.4,3.4-2.8,3.4c-0.9,0-1.6-0.4-2.1-1.2h0l0,1H308.2z M309.4,134.9c0,0.1,0,0.3,0.1,0.4c0.2,0.8,0.9,1.3,1.7,1.3
			c1.2,0,1.9-1,1.9-2.4c0-1.3-0.6-2.3-1.9-2.3c-0.8,0-1.5,0.5-1.7,1.4c0,0.1-0.1,0.3-0.1,0.5V134.9z"/>
		<path class="st4" d="M308.2,137.4c0-0.4,0-1.1,0-1.6v-7.6h1.1v4h0c0.4-0.7,1.1-1.2,2.1-1.2c1.6,0,2.7,1.3,2.7,3.2
			c0,2.3-1.4,3.4-2.8,3.4c-0.9,0-1.6-0.4-2.1-1.2h0l0,1H308.2z M309.4,134.9c0,0.1,0,0.3,0.1,0.4c0.2,0.8,0.9,1.3,1.7,1.3
			c1.2,0,1.9-1,1.9-2.4c0-1.3-0.6-2.3-1.9-2.3c-0.8,0-1.5,0.5-1.7,1.4c0,0.1-0.1,0.3-0.1,0.5V134.9z"/>
		<path class="st1" d="M316,131.1l1.4,3.7c0.1,0.4,0.3,0.9,0.4,1.3h0c0.1-0.4,0.2-0.9,0.4-1.3l1.3-3.7h1.2l-1.7,4.5
			c-0.8,2.2-1.4,3.3-2.2,3.9c-0.6,0.5-1.1,0.7-1.4,0.7l-0.3-1c0.3-0.1,0.7-0.3,1-0.6c0.3-0.2,0.7-0.7,1-1.3c0-0.1,0.1-0.2,0.1-0.3
			c0-0.1,0-0.2-0.1-0.3l-2.3-5.8H316z"/>
		<path class="st4" d="M316,131.1l1.4,3.7c0.1,0.4,0.3,0.9,0.4,1.3h0c0.1-0.4,0.2-0.9,0.4-1.3l1.3-3.7h1.2l-1.7,4.5
			c-0.8,2.2-1.4,3.3-2.2,3.9c-0.6,0.5-1.1,0.7-1.4,0.7l-0.3-1c0.3-0.1,0.7-0.3,1-0.6c0.3-0.2,0.7-0.7,1-1.3c0-0.1,0.1-0.2,0.1-0.3
			c0-0.1,0-0.2-0.1-0.3l-2.3-5.8H316z"/>
		<path class="st5" d="M328.9,136.7c-0.7,0.7-1.5,1-2.5,1.1c-0.3,0-0.7,0.1-1,0.1c0,0,0,0,0,0c-0.2,0-0.5,0-0.7,0
			c-0.6,0-0.8-0.5-0.5-0.9c0.2-0.4,0.6-0.6,1.1-0.6c0.6,0,1.1-0.1,1.7-0.1c0.4-0.1,0.6-0.3,0.6-0.8c0-0.5-0.3-0.8-0.6-1.1
			c-0.2-0.1-0.4-0.3-0.5-0.4c-0.3-0.2-0.4-0.5-0.3-0.8c0.2-0.9,1.2-1.3,2-0.7c0.7,0.5,1.3,1.2,1.6,2.1
			C329.9,135.2,329.6,136,328.9,136.7"/>
		<path class="st5" d="M333.1,133.7c0,1.2-0.2,2.4-0.6,3.6c-0.2,0.5-0.6,0.6-1,0.3c-0.6-0.4-0.7-0.9-0.6-1.6
			c0.2-0.7,0.3-1.4,0.3-2.1c0-1.3-0.3-2.4-0.9-3.5c-0.1-0.3-0.3-0.5-0.4-0.8c-0.3-0.7,0-1.5,0.7-1.7c0.4-0.1,0.7,0,0.9,0.3
			c0.7,1.2,1.2,2.5,1.4,3.9C333,132.7,333,133.2,333.1,133.7"/>
		<path class="st5" d="M338.8,130.5c-0.4,0.5-0.9,0.7-1.5,0.6c-0.2-0.1-0.3,0.1-0.5,0.2c-0.6,0.5-1.2,0.7-2,0.5
			c-1-0.3-1.3-1.3-0.8-2.1c0.2-0.3,0.6-0.4,0.9-0.2c0.2,0.1,0.2,0.2,0.2,0.4c0,0.1,0,0.1,0,0.2c-0.1,0.2-0.1,0.4,0,0.5
			c0.2,0.2,0.4,0.2,0.6,0.1c0,0,0.1,0,0.1,0c0.3-0.1,0.3-0.1,0.2-0.4c-0.1-0.4,0.1-0.8,0.5-0.9c0.3-0.1,0.4,0,0.6,0.3
			c0.2,0.3,0.4,0.4,0.7,0.3c0.2-0.1,0.2-0.2,0.1-0.3c-0.1-0.1-0.2-0.2-0.3-0.3c-0.3-0.2-0.4-0.4-0.3-0.6c0.2-0.4,0.5-0.6,0.8-0.5
			C338.9,128.6,339.6,129.6,338.8,130.5"/>
		<path class="st5" d="M339.8,136c-0.7,1.4-1.6,2.6-3,3.3c-0.8,0.4-1.6,0.7-2.5,0.8c-0.5,0-0.9,0-1.3-0.5c-0.3-0.4-0.2-0.9,0.3-1.1
			c0.3-0.1,0.6-0.1,0.9-0.1c1.4-0.2,2.4-0.8,3-2.1c0,0,0-0.1,0-0.1c-0.2,0-0.4,0-0.6,0c-1.2-0.1-1.9-1.3-1.4-2.3
			c0.5-1,1.3-1.5,2.4-1.7c1.1-0.1,2.2,0.6,2.3,1.7C340.2,134.6,340.1,135.3,339.8,136"/>
		<path class="st5" d="M345.8,133c-0.1,1.2-0.4,2.2-1,3.2c-1,1.7-2.5,2.9-4.3,3.7c-0.5,0.2-1,0.2-1.5-0.2c-0.5-0.4-0.4-0.9,0.1-1.1
			c0.9-0.4,1.7-0.8,2.4-1.4c1.1-0.9,2-2,2.4-3.4c0.1-0.3,0.2-0.7,0.2-1.1c0-0.3,0.1-0.6,0.5-0.7c0.4-0.1,0.7-0.1,1,0.1
			C345.7,132.5,345.8,132.7,345.8,133"/>
	</g>
</g>
</svg>
