<?xml version="1.0" encoding="utf-8"?>
<!-- Generator: Adobe Illustrator 21.0.0, SVG Export Plug-In . SVG Version: 6.00 Build 0)  -->
<svg version="1.1" id="Layer_1" xmlns="http://www.w3.org/2000/svg" xmlns:xlink="http://www.w3.org/1999/xlink" x="0px" y="0px"
	 viewBox="0 0 355.5 138.5" style="enable-background:new 0 0 355.5 138.5;" xml:space="preserve">
<style type="text/css">
	.st0{fill:#FFFFFF;}
	.st1{fill:#466A7B;}
	.st2{fill:none;stroke:#466A7B;stroke-width:0.2027;stroke-miterlimit:10;}
	.st3{fill:#E07861;}
	.st4{fill:none;stroke:#466A7B;stroke-width:0.1718;stroke-miterlimit:10;}
	.st5{fill:#060505;}
</style>
<g>
	<path class="st5" d="M185.8,24.5v1.6h3v3.7c-0.8,0.4-1.6,0.6-2.7,0.6c-1.5,0-2.7-0.5-3.6-1.4c-0.9-1-1.3-2.3-1.3-4
		c0-1.6,0.5-3,1.4-4s2.2-1.6,3.7-1.6s2.8,0.4,3.9,1l0.2,0.1v-2h-0.1c-1-0.5-2.3-0.7-3.8-0.7c-2.1,0-3.8,0.7-5.2,2.1s-2,3.2-2,5.3
		c0,2.1,0.6,3.8,1.8,5.1s2.8,1.9,4.8,1.9c1.7,0,3.2-0.4,4.6-1.2h0.1v-6.3h-4.8V24.5z"/>
	<path class="st5" d="M201.2,23c-0.8-0.9-2-1.4-3.5-1.4s-2.8,0.5-3.7,1.4c-0.9,0.9-1.4,2.3-1.4,3.9c0,1.5,0.4,2.8,1.3,3.7
		c0.9,0.9,2.1,1.4,3.5,1.4c1.5,0,2.7-0.5,3.6-1.4c0.9-0.9,1.3-2.2,1.3-3.8C202.4,25.2,202,23.9,201.2,23 M200.6,26.8
		c0,1.2-0.3,2.1-0.8,2.7c-0.5,0.6-1.3,0.9-2.3,0.9s-1.7-0.3-2.3-1c-0.6-0.6-0.9-1.5-0.9-2.7s0.3-2.1,0.9-2.8c0.6-0.7,1.3-1,2.3-1
		s1.7,0.3,2.3,1C200.4,24.7,200.6,25.6,200.6,26.8"/>
	<path class="st5" d="M212.6,23c-0.8-0.9-2-1.4-3.5-1.4s-2.8,0.5-3.7,1.4c-0.9,0.9-1.4,2.3-1.4,3.9c0,1.5,0.4,2.8,1.3,3.7
		c0.9,0.9,2.1,1.4,3.5,1.4c1.5,0,2.7-0.5,3.6-1.4c0.9-0.9,1.3-2.2,1.3-3.8C213.9,25.2,213.4,23.9,212.6,23 M212.1,26.8
		c0,1.2-0.3,2.1-0.8,2.7l0,0c-0.5,0.6-1.3,0.9-2.2,0.9c-1,0-1.7-0.3-2.3-1c-0.6-0.6-0.9-1.5-0.9-2.7s0.3-2.1,0.9-2.8
		c0.6-0.7,1.3-1,2.3-1s1.7,0.3,2.2,1C211.8,24.7,212.1,25.6,212.1,26.8"/>
	<path class="st5" d="M222.9,17.1V23c-0.6-0.9-1.6-1.4-2.9-1.4c-1.4,0-2.5,0.5-3.3,1.5s-1.2,2.3-1.2,3.9c0,1.5,0.4,2.7,1.1,3.6
		c0.7,0.9,1.8,1.3,3,1.3c1.4,0,2.5-0.6,3.3-1.7v1.6h1.8V17.1H222.9z M222.9,25.8v1.4c0,0.9-0.3,1.7-0.8,2.3s-1.2,0.9-2,0.9
		c-0.9,0-1.5-0.3-2-0.9c-0.5-0.6-0.8-1.5-0.8-2.6c0-1.2,0.3-2.2,0.8-2.8c0.5-0.7,1.3-1,2.2-1c0.8,0,1.4,0.3,1.9,0.8
		C222.7,24.4,222.9,25.1,222.9,25.8"/>
	<path class="st5" d="M238.8,24.5v1.6h3v3.7c-0.8,0.4-1.6,0.6-2.7,0.6c-1.5,0-2.7-0.5-3.6-1.4c-0.9-1-1.3-2.3-1.3-4
		c0-1.6,0.5-3,1.4-4c1-1,2.2-1.6,3.7-1.6s2.8,0.4,3.9,1l0.2,0.1v-2h-0.1c-1-0.5-2.3-0.7-3.8-0.7c-2.1,0-3.8,0.7-5.2,2.1
		s-2,3.2-2,5.3c0,2.1,0.6,3.8,1.8,5.1s2.8,1.9,4.8,1.9c1.7,0,3.2-0.4,4.6-1.2h0.1v-6.3h-4.8V24.5z"/>
	<path class="st5" d="M254.2,23c-0.8-0.9-2-1.3-3.4-1.3c-1.5,0-2.7,0.5-3.6,1.4s-1.3,2.2-1.3,3.8c0,1.5,0.4,2.7,1.3,3.6
		c0.9,0.9,2,1.4,3.4,1.4c1.5,0,2.7-0.5,3.5-1.4c0.9-0.9,1.3-2.2,1.3-3.7C255.4,25.2,255,23.9,254.2,23 M253,29.6
		c-0.5,0.7-1.3,1-2.3,1s-1.8-0.3-2.4-1s-0.9-1.6-0.9-2.7c0-1.2,0.3-2.1,0.9-2.8s1.4-1,2.4-1s1.8,0.3,2.3,1s0.8,1.6,0.8,2.8
		C253.8,28,253.5,29,253,29.6"/>
	<path class="st5" d="M254.2,23c-0.8-0.9-2-1.3-3.4-1.3c-1.5,0-2.7,0.5-3.6,1.4s-1.3,2.2-1.3,3.8c0,1.5,0.4,2.7,1.3,3.6
		c0.9,0.9,2,1.4,3.4,1.4c1.5,0,2.7-0.5,3.5-1.4c0.9-0.9,1.3-2.2,1.3-3.7C255.4,25.2,255,23.9,254.2,23z M253,29.6
		c-0.5,0.7-1.3,1-2.3,1s-1.8-0.3-2.4-1s-0.9-1.6-0.9-2.7c0-1.2,0.3-2.1,0.9-2.8s1.4-1,2.4-1s1.8,0.3,2.3,1s0.8,1.6,0.8,2.8
		C253.8,28,253.5,29,253,29.6z"/>
	<path class="st5" d="M263.8,21.8l-2.6,7.2c-0.1,0.3-0.2,0.6-0.2,0.9c-0.1-0.3-0.2-0.6-0.3-0.9l-2.5-7.2h-1.9l3.8,10h1.7l3.9-9.8
		l0.1-0.1h-2V21.8z"/>
	<path class="st5" d="M275,26.4c0-1.5-0.3-2.6-1.1-3.4c-0.7-0.8-1.7-1.2-3-1.2s-2.3,0.5-3.2,1.4c-0.9,1-1.3,2.2-1.3,3.7
		c0,1.6,0.4,2.9,1.2,3.7c0.8,0.9,1.9,1.3,3.3,1.3s2.5-0.3,3.4-0.9v-1.5c-0.9,0.7-1.9,1.1-3,1.1c-1,0-1.7-0.3-2.3-0.9
		c-0.6-0.6-0.9-1.4-0.9-2.5h6.9V26.4z M268.1,25.9c0.1-0.9,0.4-1.5,1-2.1c0.5-0.5,1.1-0.8,1.9-0.8s1.4,0.3,1.8,0.8s0.6,1.2,0.6,2.1
		H268.1z"/>
	<path class="st5" d="M275,26.4c0-1.5-0.3-2.6-1.1-3.4c-0.7-0.8-1.7-1.2-3-1.2s-2.3,0.5-3.2,1.4c-0.9,1-1.3,2.2-1.3,3.7
		c0,1.6,0.4,2.9,1.2,3.7c0.8,0.9,1.9,1.3,3.3,1.3s2.5-0.3,3.4-0.9v-1.5c-0.9,0.7-1.9,1.1-3,1.1c-1,0-1.7-0.3-2.3-0.9
		c-0.6-0.6-0.9-1.4-0.9-2.5h6.9V26.4z M268.1,25.9c0.1-0.9,0.4-1.5,1-2.1c0.5-0.5,1.1-0.8,1.9-0.8s1.4,0.3,1.8,0.8s0.6,1.2,0.6,2.1
		H268.1z"/>
	<path class="st5" d="M282.5,21.8c-0.2-0.1-0.6-0.1-1-0.1c-0.6,0-1.1,0.2-1.6,0.6c-0.4,0.3-0.7,0.7-0.9,1.2v-1.7h-1.8v10h1.8v-5.1
		c0-1.1,0.2-1.9,0.7-2.5c0.4-0.6,1-0.9,1.6-0.9c0.5,0,0.9,0.1,1.1,0.3l0.2,0.1L282.5,21.8L282.5,21.8z"/>
	<path class="st5" d="M291.4,22.7L291.4,22.7c-0.6-0.7-1.4-1.1-2.5-1.1c-1.3,0-2.4,0.6-3.1,1.7v-1.5H284v10h1.8v-5.7
		c0-0.9,0.2-1.6,0.7-2.2c0.5-0.6,1.1-0.8,1.9-0.8c1.5,0,2.2,1,2.2,3v5.7h1.8v-6.1C292.3,24.4,292,23.4,291.4,22.7"/>
	<path class="st5" d="M298.7,21.7c-1.2,0-2.4,0.3-3.3,0.9v1.6c0.9-0.8,2-1.2,3.2-1.2c1.3,0,2,0.8,2,2.5l-2.9,0.4
		c-2.1,0.3-3.2,1.4-3.2,3.2c0,0.9,0.3,1.5,0.8,2s1.3,0.8,2.3,0.8c1.3,0,2.3-0.6,3-1.8l0,0v1.5h1.6v-6.3
		C302.1,22.9,300.9,21.7,298.7,21.7 M300.5,27.7c0,0.8-0.3,1.5-0.8,2.1c-0.5,0.5-1.1,0.8-1.9,0.8c-0.6,0-1-0.1-1.4-0.5
		c-0.3-0.3-0.5-0.7-0.5-1.2c0-0.6,0.2-1.1,0.6-1.4c0.4-0.3,0.9-0.4,1.6-0.5l2.4-0.3L300.5,27.7L300.5,27.7z"/>
	<path class="st5" d="M298.7,21.7c-1.2,0-2.4,0.3-3.3,0.9v1.6c0.9-0.8,2-1.2,3.2-1.2c1.3,0,2,0.8,2,2.5l-2.9,0.4
		c-2.1,0.3-3.2,1.4-3.2,3.2c0,0.9,0.3,1.5,0.8,2s1.3,0.8,2.3,0.8c1.3,0,2.3-0.6,3-1.8l0,0v1.5h1.6v-6.3
		C302.1,22.9,300.9,21.7,298.7,21.7z M300.5,27.7c0,0.8-0.3,1.5-0.8,2.1c-0.5,0.5-1.1,0.8-1.9,0.8c-0.6,0-1-0.1-1.4-0.5
		c-0.3-0.3-0.5-0.7-0.5-1.2c0-0.6,0.2-1.1,0.6-1.4c0.4-0.3,0.9-0.4,1.6-0.5l2.4-0.3L300.5,27.7L300.5,27.7z"/>
	<path class="st5" d="M312.4,22.7c-0.6-0.7-1.4-1.1-2.5-1.1c-1.3,0-2.4,0.6-3.1,1.7v-1.5H305v10h1.8v-5.7c0-0.9,0.3-1.6,0.7-2.2
		c0.5-0.6,1.1-0.8,1.9-0.8c1.5,0,2.2,1,2.2,3v5.7h1.8v-6.1C313.2,24.4,312.9,23.4,312.4,22.7"/>
	<path class="st5" d="M320.4,23.1c0.8,0,1.6,0.3,2.3,0.7l0.2,0.1V22h-0.1c-0.7-0.3-1.4-0.5-2.3-0.5c-1.6,0-2.8,0.5-3.8,1.5
		c-0.9,1-1.4,2.3-1.4,3.9c0,1.5,0.4,2.7,1.3,3.6c0.9,0.9,2,1.4,3.4,1.4c1,0,2-0.2,2.7-0.7l0,0v-1.7l-0.2,0.1
		c-0.7,0.5-1.5,0.8-2.3,0.8c-1,0-1.8-0.3-2.3-1c-0.6-0.6-0.9-1.5-0.9-2.6s0.3-2.1,0.9-2.7C318.7,23.5,319.5,23.1,320.4,23.1"/>
	<path class="st5" d="M332.9,26.4c0-1.5-0.3-2.6-1-3.4c-0.7-0.8-1.7-1.2-3-1.2s-2.3,0.5-3.2,1.4c-0.9,1-1.3,2.2-1.3,3.7
		c0,1.6,0.4,2.9,1.2,3.7c0.8,0.9,1.9,1.3,3.2,1.3c1.4,0,2.5-0.3,3.4-0.9v-1.5c-0.9,0.7-1.9,1.1-3,1.1c-1,0-1.7-0.3-2.3-0.9
		c-0.6-0.6-0.9-1.4-0.9-2.5h6.9L332.9,26.4L332.9,26.4z M326.1,25.9c0.1-0.9,0.4-1.5,1-2.1s1.1-0.8,1.9-0.8s1.4,0.3,1.8,0.8
		s0.6,1.2,0.6,2.1H326.1z"/>
	<path class="st5" d="M332.9,26.4c0-1.5-0.3-2.6-1-3.4c-0.7-0.8-1.7-1.2-3-1.2s-2.3,0.5-3.2,1.4c-0.9,1-1.3,2.2-1.3,3.7
		c0,1.6,0.4,2.9,1.2,3.7c0.8,0.9,1.9,1.3,3.2,1.3c1.4,0,2.5-0.3,3.4-0.9v-1.5c-0.9,0.7-1.9,1.1-3,1.1c-1,0-1.7-0.3-2.3-0.9
		c-0.6-0.6-0.9-1.4-0.9-2.5h6.9L332.9,26.4L332.9,26.4z M326.1,25.9c0.1-0.9,0.4-1.5,1-2.1s1.1-0.8,1.9-0.8s1.4,0.3,1.8,0.8
		s0.6,1.2,0.6,2.1H326.1z"/>
	<path class="st5" d="M184.9,40.5c-0.3-0.1-0.7-0.2-1.2-0.2c-0.9,0-1.7,0.3-2.3,0.9c-0.6,0.6-0.9,1.5-0.9,2.5v1.5h-1.7v1.6h1.7v8.4
		h1.8v-8.4h2.3v-1.5h-2.3v-1.5c0-1.3,0.5-2,1.5-2c0.4,0,0.7,0.1,1,0.2l0.2,0.1L184.9,40.5L184.9,40.5z"/>
	<path class="st5" d="M194.3,46.4L194.3,46.4c-0.8-0.9-2-1.4-3.5-1.4s-2.8,0.5-3.7,1.4s-1.4,2.3-1.4,3.9c0,1.5,0.4,2.8,1.3,3.7
		c0.9,0.9,2.1,1.4,3.5,1.4c1.5,0,2.7-0.5,3.6-1.4c0.9-0.9,1.3-2.2,1.3-3.8C195.6,48.6,195.1,47.3,194.3,46.4 M193.8,50.2
		c0,1.2-0.3,2.1-0.8,2.7c-0.5,0.6-1.3,0.9-2.2,0.9c-1,0-1.7-0.3-2.3-1s-0.9-1.5-0.9-2.7s0.3-2.1,0.9-2.8c0.6-0.7,1.3-1,2.3-1
		s1.7,0.3,2.2,1C193.5,48.1,193.8,49,193.8,50.2"/>
	<path class="st5" d="M203.5,45.2c-0.2-0.1-0.5-0.1-1-0.1c-0.6,0-1.1,0.2-1.6,0.6c-0.4,0.3-0.7,0.7-0.9,1.2v-1.7h-1.8v10h1.8v-5.1
		c0-1.1,0.2-1.9,0.7-2.5c0.4-0.6,1-0.9,1.6-0.9c0.5,0,0.9,0.1,1.1,0.3l0.2,0.1L203.5,45.2L203.5,45.2z"/>
	<polygon class="st5" points="213.2,53.5 213.2,49 218.1,49 218.1,47.3 213.2,47.3 213.2,43 218.5,43 218.5,41.3 211.4,41.3 
		211.4,55.2 218.8,55.2 218.8,53.5 	"/>
	<path class="st5" d="M228.8,46.1c-0.6-0.7-1.4-1.1-2.5-1.1c-1.3,0-2.4,0.6-3.1,1.7v-1.4h-1.8v10h1.8v-5.7c0-0.9,0.3-1.6,0.7-2.2
		c0.5-0.6,1.1-0.8,1.9-0.8c1.5,0,2.2,1,2.2,3v5.7h1.8v-6.1C229.7,47.8,229.4,46.8,228.8,46.1"/>
	<path class="st5" d="M237.6,46.8v-1.5h-2.5v-2.9l-1.8,0.6v2.4h-1.7v1.4h1.7v5.7c0,2,0.9,3,2.7,3c0.6,0,1.1-0.1,1.5-0.3h0.1v-1.6
		l-0.2,0.1c-0.3,0.2-0.6,0.3-1,0.3c-0.5,0-0.8-0.1-1-0.4c-0.2-0.3-0.3-0.7-0.3-1.3v-5.5H237.6z"/>
	<path class="st5" d="M245,45.2c-0.2-0.1-0.5-0.1-1-0.1c-0.6,0-1.1,0.2-1.6,0.6c-0.4,0.3-0.7,0.7-0.9,1.2v-1.7h-1.8v10h1.8v-5.1
		c0-1.1,0.2-1.9,0.7-2.5c0.4-0.6,1-0.9,1.6-0.9c0.5,0,0.9,0.1,1.1,0.3l0.2,0.1L245,45.2L245,45.2z"/>
	<path class="st5" d="M254.8,49.8c0-1.5-0.4-2.7-1.1-3.5s-1.7-1.3-3-1.3s-2.4,0.5-3.3,1.5s-1.3,2.2-1.3,3.8s0.4,2.9,1.2,3.8
		c0.8,0.9,1.9,1.4,3.3,1.4s2.6-0.3,3.5-1l0,0v-1.7l-0.2,0.1c-0.9,0.7-1.9,1.1-3,1.1c-0.9,0-1.7-0.3-2.2-0.9
		c-0.5-0.5-0.8-1.3-0.8-2.3h6.9V49.8z M247.9,49.2c0.1-0.8,0.4-1.4,0.9-1.9s1.1-0.8,1.8-0.8c0.7,0,1.3,0.2,1.7,0.7
		c0.4,0.5,0.6,1.1,0.6,1.9L247.9,49.2L247.9,49.2z"/>
	<path class="st5" d="M265.4,46.3c-0.7-0.9-1.7-1.3-3-1.3c-1.4,0-2.5,0.6-3.3,1.8v-1.5h-1.8v14.4h1.8V54c0.7,1,1.7,1.5,2.9,1.5
		c1.4,0,2.5-0.5,3.3-1.5s1.2-2.3,1.2-4C266.5,48.4,266.1,47.2,265.4,46.3 M262,46.5c0.8,0,1.5,0.3,2,0.9c0.5,0.6,0.7,1.4,0.7,2.5
		c0,1.3-0.3,2.3-0.8,3s-1.2,1-2.1,1c-0.8,0-1.4-0.3-1.9-0.8s-0.8-1.2-0.8-2v-1.4c0-0.9,0.3-1.7,0.8-2.3
		C260.4,46.8,261.1,46.5,262,46.5"/>
	<path class="st5" d="M274.4,45.2c-0.2-0.1-0.6-0.1-1-0.1c-0.6,0-1.1,0.2-1.6,0.6c-0.4,0.3-0.7,0.7-0.9,1.2v-1.7h-1.8v10h1.8v-5.1
		c0-1.1,0.2-1.9,0.7-2.5c0.4-0.6,1-0.9,1.6-0.9c0.5,0,0.9,0.1,1.1,0.3l0.2,0.1L274.4,45.2L274.4,45.2z"/>
	<path class="st5" d="M284.1,49.8c0-1.5-0.4-2.7-1.1-3.5s-1.7-1.3-3-1.3s-2.4,0.5-3.3,1.5s-1.3,2.2-1.3,3.8s0.4,2.9,1.2,3.8
		c0.8,0.9,1.9,1.4,3.3,1.4s2.6-0.3,3.5-1l0,0v-1.7l-0.2,0.1c-0.9,0.7-1.9,1.1-3,1.1c-0.9,0-1.7-0.3-2.2-0.9
		c-0.5-0.5-0.8-1.3-0.8-2.3h6.9V49.8z M278.2,47.3c0.5-0.5,1.1-0.8,1.8-0.8c0.7,0,1.3,0.2,1.7,0.7c0.4,0.5,0.6,1.1,0.6,1.9h-5
		C277.4,48.4,277.7,47.8,278.2,47.3"/>
	<path class="st5" d="M294.1,46.1c-0.6-0.7-1.4-1.1-2.5-1.1c-1.3,0-2.4,0.6-3.1,1.7v-1.4h-1.8v10h1.8v-5.7c0-0.9,0.2-1.6,0.7-2.2
		c0.5-0.6,1.1-0.8,1.9-0.8c1.5,0,2.2,1,2.2,3v5.7h1.8v-6.1C295,47.8,294.7,46.8,294.1,46.1"/>
	<path class="st5" d="M306.2,49.8c0-1.5-0.4-2.7-1.1-3.5s-1.7-1.3-3-1.3s-2.4,0.5-3.3,1.5s-1.3,2.2-1.3,3.8s0.4,2.9,1.2,3.8
		c0.8,0.9,1.9,1.4,3.3,1.4s2.6-0.3,3.5-1l0,0v-1.7l-0.2,0.1c-0.9,0.7-1.9,1.1-3,1.1c-0.9,0-1.7-0.3-2.2-0.9
		c-0.5-0.6-0.8-1.3-0.8-2.3h6.9V49.8z M299.3,49.2c0.1-0.8,0.4-1.4,0.9-1.9s1.1-0.8,1.8-0.8c0.7,0,1.3,0.2,1.7,0.7
		c0.4,0.5,0.6,1.1,0.6,1.9L299.3,49.2L299.3,49.2z"/>
	<path class="st5" d="M315,45.2v5.7c0,0.9-0.2,1.6-0.7,2.1s-1.1,0.8-1.8,0.8c-1.5,0-2.3-1-2.3-3v-5.7h-1.7V51c0,2.8,1.2,4.3,3.6,4.3
		c1.3,0,2.3-0.5,2.9-1.6V55h1.8V45H315V45.2z"/>
	<path class="st5" d="M325.4,45.2c-0.2-0.1-0.6-0.1-1-0.1c-0.6,0-1.1,0.2-1.6,0.6c-0.4,0.3-0.7,0.7-0.9,1.2v-1.7h-1.8v10h1.8v-5.1
		c0-1.1,0.2-1.9,0.7-2.5c0.4-0.6,1-0.9,1.6-0.9c0.5,0,0.9,0.1,1.1,0.3l0.2,0.1L325.4,45.2L325.4,45.2z"/>
	<path class="st5" d="M333.3,51.4c-0.1-0.3-0.3-0.6-0.6-0.8c-0.2-0.2-0.5-0.4-0.9-0.6c-0.3-0.2-0.7-0.3-1.2-0.5
		c-0.3-0.1-0.6-0.2-0.9-0.4c-0.2-0.1-0.4-0.2-0.6-0.4c-0.2-0.1-0.3-0.3-0.4-0.4c-0.1-0.2-0.1-0.4-0.1-0.6c0-0.2,0-0.4,0.1-0.5
		s0.2-0.3,0.4-0.4c0.2-0.1,0.3-0.2,0.6-0.3c0.2-0.1,0.5-0.1,0.8-0.1c0.9,0,1.7,0.2,2.4,0.7l0.2,0.1v-1.8H333
		c-0.7-0.3-1.5-0.4-2.3-0.4c-0.5,0-0.9,0.1-1.4,0.2c-0.5,0.1-0.9,0.3-1.2,0.6c-0.4,0.2-0.6,0.5-0.9,0.9c-0.2,0.4-0.3,0.8-0.3,1.3
		c0,0.4,0.1,0.7,0.2,1s0.3,0.6,0.5,0.8s0.5,0.4,0.8,0.6c0.3,0.2,0.7,0.4,1.2,0.5c0.3,0.1,0.6,0.2,0.9,0.3s0.5,0.2,0.7,0.4
		c0.2,0.1,0.3,0.3,0.5,0.5c0.1,0.2,0.2,0.4,0.2,0.6c0,0.9-0.6,1.3-2,1.3c-1,0-1.9-0.3-2.7-0.9L327,53v1.8h0.1
		c0.7,0.4,1.6,0.6,2.7,0.6c0.5,0,1-0.1,1.5-0.2s0.9-0.3,1.3-0.5s0.7-0.5,0.9-0.9c0.2-0.4,0.3-0.8,0.3-1.3
		C333.5,52.1,333.5,51.7,333.3,51.4"/>
	<path class="st5" d="M207.4,82.3c-0.2-0.2-0.5-0.3-0.8-0.3s-0.6,0.1-0.8,0.3c-0.2,0.2-0.3,0.5-0.3,0.8s0.1,0.6,0.3,0.8
		c0.2,0.2,0.5,0.3,0.8,0.3s0.6-0.1,0.8-0.3c0.2-0.2,0.3-0.5,0.3-0.8S207.6,82.6,207.4,82.3L207.4,82.3z"/>
	<path class="st5" d="M204.9,82.3c-0.2-0.2-0.5-0.3-0.8-0.3s-0.6,0.1-0.8,0.3c-0.2,0.2-0.3,0.5-0.3,0.8s0.1,0.6,0.3,0.8
		c0.2,0.2,0.5,0.3,0.8,0.3s0.6-0.1,0.8-0.3c0.2-0.2,0.3-0.5,0.3-0.8S205.1,82.6,204.9,82.3L204.9,82.3z"/>
	<path class="st5" d="M225.2,68c0.3,0,0.6-0.1,0.8-0.3c0.2-0.2,0.3-0.5,0.3-0.8s-0.1-0.6-0.3-0.8l0,0c-0.2-0.2-0.5-0.3-0.8-0.3
		s-0.6,0.1-0.8,0.3c-0.2,0.2-0.3,0.5-0.3,0.8s0.1,0.6,0.3,0.8C224.6,67.8,224.9,68,225.2,68"/>
	<path class="st5" d="M223.9,70.3c0.3,0,0.6-0.1,0.8-0.3c0.2-0.2,0.3-0.5,0.3-0.8s-0.1-0.6-0.3-0.8l0,0c-0.2-0.2-0.5-0.3-0.8-0.3
		s-0.6,0.1-0.8,0.3c-0.2,0.2-0.3,0.5-0.3,0.8s0.1,0.6,0.3,0.8C223.3,70.2,223.6,70.3,223.9,70.3"/>
	<path class="st5" d="M229.2,78.4h-1.5c-0.3,0-0.6,0-0.8-0.1s-0.4-0.2-0.5-0.4c-0.1-0.2-0.2-0.4-0.2-0.6c0-0.3-0.1-0.5-0.1-0.9v-2.9
		h-1.8v3.7c0,0.3,0,0.6-0.1,0.7c-0.1,0.2-0.2,0.3-0.3,0.4s-0.3,0.1-0.5,0.2c-0.2,0-0.4,0-0.7,0c-0.4,0-0.8,0-1-0.1s-0.4-0.2-0.6-0.4
		c-0.1-0.2-0.2-0.4-0.2-0.6c0-0.3-0.1-0.6-0.1-0.9v-2.9H219v3.7c0,0.3,0,0.6-0.1,0.7c-0.1,0.2-0.2,0.3-0.3,0.4
		c-0.2,0.1-0.4,0.2-0.7,0.2s-0.6,0-1.1,0h-0.7h-2.6h-2.8h-2.8c-0.3,0-0.6,0-0.8-0.1s-0.4-0.2-0.5-0.4c-0.1-0.2-0.2-0.4-0.2-0.6
		c0-0.3-0.1-0.5-0.1-0.9v-3.9h-1.8v4.6c0,0.3,0,0.6-0.1,0.7c-0.1,0.2-0.2,0.3-0.3,0.4s-0.3,0.1-0.5,0.2c-0.2,0-0.5,0-0.8,0h-1.3
		h-2.8h-2.8h-2.8h-2.8h-2.8c-0.2,0-0.3,0-0.5-0.1s-0.3-0.2-0.5-0.4c-0.2-0.2-0.3-0.4-0.5-0.8c-0.1-0.2-0.2-0.4-0.4-0.6
		c-0.1-0.2-0.2-0.3-0.3-0.5l-2.3-4l-1.7,1.1l2.1,3.2c0.2,0.3,0.4,0.6,0.5,0.8c0.1,0.2,0.2,0.5,0.2,0.7s-0.1,0.4-0.4,0.5
		c-0.3,0.1-0.7,0.2-1.2,0.2H179v1.9h3c0.3,0,0.6,0,0.9,0c0.3,0,0.6-0.1,0.9-0.2c0.3-0.1,0.6-0.3,0.8-0.5s0.4-0.4,0.5-0.7
		c0.3,0.5,0.7,0.9,1,1.1c0.4,0.2,0.8,0.4,1.4,0.4h2.8h2.8h2.8h2.8h2.8h1.6c0.7,0,1.3-0.1,1.8-0.2s0.8-0.4,1-0.9
		c0.1,0.3,0.3,0.5,0.6,0.7s0.7,0.4,1.1,0.4c0.1,0,0.1,0,0.2,0h2.8h2.8h2.8h0.6c0.5,0,1,0,1.5-0.1c0.4,0,0.8-0.1,1-0.2
		c0.3-0.1,0.5-0.2,0.7-0.4c0.1-0.1,0.3-0.3,0.4-0.5c0.1,0.1,0.1,0.2,0.2,0.3c0.1,0.2,0.3,0.3,0.5,0.5c0.2,0.1,0.5,0.2,0.8,0.3
		c0.3,0.1,0.7,0.1,1.1,0.1c0.7,0,1.3-0.1,1.8-0.2c0.4-0.1,0.8-0.4,1-0.9c0.1,0.3,0.3,0.5,0.6,0.7c0.3,0.3,0.7,0.4,1.3,0.4h3.3v-7.8
		h-1.8L229.2,78.4L229.2,78.4z"/>
	<path class="st5" d="M225.3,69.2c0,0.3,0.1,0.6,0.3,0.8c0.2,0.2,0.5,0.3,0.8,0.3s0.6-0.1,0.8-0.3c0.2-0.2,0.3-0.5,0.3-0.8
		s-0.1-0.6-0.3-0.8l0,0c-0.2-0.2-0.5-0.3-0.8-0.3s-0.6,0.1-0.8,0.3C225.4,68.6,225.3,68.9,225.3,69.2"/>
	<path class="st5" d="M252.4,78.4h-2.9h-2.8h-2.8h-2.8h-2.8c-0.6,0-1-0.2-1.2-0.5c-0.2-0.4-0.3-0.9-0.3-1.5v-2.9H235v5.3
		c0,0.7,0,1.2,0,1.7s-0.1,0.9-0.3,1.1c-0.2,0.3-0.4,0.5-0.7,0.6s-0.8,0.2-1.4,0.2h-0.1v1.8h0.1c0.9,0,1.6-0.1,2.1-0.3
		c0.6-0.2,1-0.5,1.3-0.9s0.5-1,0.6-1.6s0.2-1.3,0.2-2.1c0.1,0.2,0.3,0.3,0.5,0.4c0.3,0.2,0.6,0.3,0.9,0.3c0.1,0,0.1,0,0.2,0h2.8h2.8
		h2.8h2.8h4.7V65.9h-1.8v12.5H252.4z"/>
	<rect x="256.7" y="65.9" class="st5" width="1.8" height="14.4"/>
	<path class="st5" d="M328.3,78.4h-2.9h-2.8h-2.8l0,0h-1.1c0-0.8-0.1-1.6-0.4-2.3c-0.2-0.8-0.6-1.4-1-2c-0.5-0.6-1-1-1.8-1.4
		c-0.7-0.3-1.5-0.5-2.5-0.5c-0.5,0-1,0-1.4,0.2c-0.4,0.1-0.7,0.2-1,0.3h-0.1v1.8h0.1c0.3-0.1,0.6-0.2,1-0.2c1.1-0.2,1.9-0.1,2.7,0.1
		c0.5,0.2,0.9,0.4,1.3,0.8c0.4,0.3,0.6,0.8,0.9,1.4c0.2,0.5,0.3,1.2,0.3,2h-7.6h-2.8h-2.9h-2.8c-0.2,0-0.4,0-0.6-0.1
		c-0.2,0-0.3-0.1-0.5-0.3c-0.1-0.2-0.3-0.4-0.4-0.6c-0.1-0.3-0.3-0.6-0.4-1.1c-0.3-0.8-0.8-1.7-1.6-2.5c-0.8-0.8-1.8-1.5-3.1-2.2
		l5.5-2.5v-1.9l-7.3,3.3c-0.1,0-0.2,0.1-0.2,0.2c-0.1,0.1-0.1,0.2-0.2,0.4c-0.1,0.1-0.1,0.3-0.2,0.5c0,0.2-0.1,0.3-0.1,0.5v0.1h0.1
		c0.8,0.4,1.5,0.8,2.2,1.2c0.6,0.4,1.2,0.9,1.7,1.3c0.5,0.5,0.9,0.9,1.1,1.3c0.3,0.4,0.4,0.8,0.4,1.1c0,0.4-0.1,0.6-0.4,0.8
		c-0.3,0.2-0.8,0.3-1.5,0.3h-4.3h-2.8h-2.8h-2.8h-2.8h-2.9c-0.2,0-0.3,0-0.4,0.1c-0.3,0-0.6-0.1-0.7-0.3c-0.3-0.2-0.4-0.5-0.6-1
		c0-0.1,0-0.2,0-0.3c0-0.1,0-0.2,0-0.3c0-0.6-0.1-1.1-0.3-1.6c-0.2-0.5-0.4-0.9-0.7-1.3c-0.3-0.4-0.7-0.6-1.1-0.8
		c-0.4-0.2-0.9-0.3-1.3-0.3c-0.3,0-0.7,0.1-1.1,0.2s-0.8,0.4-1.2,0.8c-0.4,0.4-0.7,0.8-1,1.4s-0.5,1.3-0.7,2.2
		c-0.6,0.2-1,0.4-1.4,0.7c-0.4,0.3-0.6,0.6-0.8,0.9c-0.2,0.4-0.3,0.8-0.4,1.3s-0.1,1.1-0.1,1.7v6.1h1.6v-6c0-0.5,0-0.9,0-1.3
		s0.1-0.6,0.2-0.9c0.1-0.2,0.3-0.4,0.5-0.6c0.2-0.1,0.5-0.2,0.8-0.3c0.7,0.5,1.3,0.9,1.9,1.1s1.2,0.3,1.8,0.3c0.7,0,1.3-0.1,1.7-0.4
		c0.5-0.3,0.8-0.7,1.1-1.2l0,0c0.2,0.5,0.5,0.8,0.9,1c0.2,0.1,0.5,0.2,0.7,0.2c0.1,0.1,0.3,0.2,0.5,0.2h2.9h2.8h2.8h2.8h2.8h3.9
		c0.8,0,1.6-0.1,2.1-0.3c0.6-0.2,1-0.6,1.2-1.2c0.1,0.3,0.3,0.5,0.4,0.7c0.2,0.2,0.4,0.4,0.6,0.5s0.4,0.2,0.7,0.2
		c0.2,0,0.5,0.1,0.7,0.1h2.8h2.8h2.8h10.5l0,0h2.8h2.8h4.7V65.9h-1.8v12.5H328.3z M273,78.2c-0.3,0.3-0.8,0.5-1.3,0.5
		s-1-0.1-1.4-0.3c-0.5-0.2-0.9-0.5-1.4-0.8c0.3-1.2,0.7-2,1.2-2.5s1-0.8,1.5-0.8c0.3,0,0.6,0.1,0.8,0.2c0.2,0.1,0.4,0.3,0.6,0.5
		s0.3,0.5,0.4,0.7c0.1,0.3,0.1,0.6,0.1,0.9C273.5,77.4,273.3,77.9,273,78.2"/>
	<rect x="332.5" y="65.9" class="st5" width="1.8" height="14.4"/>
	<path class="st5" d="M184.9,103.7c0,1.3-0.3,2.2-0.8,2.8c-0.6,0.6-1.5,0.8-2.7,0.8c-2.4,0-3.6-1.2-3.6-3.8v-2.8H176v3.2
		c0,0.8,0.1,1.5,0.3,2.1c0.2,0.7,0.6,1.2,1,1.7s1,0.8,1.7,1.1c0.7,0.3,1.5,0.4,2.3,0.4c1.7,0,3-0.5,4-1.4c0.9-0.9,1.4-2.3,1.4-4v-14
		h-1.8L184.9,103.7L184.9,103.7z"/>
	<path class="st5" d="M250.7,101.6c-0.4-0.4-0.6-0.9-0.6-1.6s0.2-1.2,0.7-1.6s1.1-0.6,1.8-0.6c0.4,0,0.8,0,1,0.1
		c0.3,0.1,0.6,0.1,0.8,0.2h0.1v-2h-0.1c-0.2-0.1-0.4-0.1-0.7-0.2c-0.3-0.1-0.7-0.1-1.2-0.1s-1,0.1-1.5,0.2c-0.5,0.2-1,0.4-1.4,0.8
		c-0.4,0.3-0.8,0.8-1,1.3c-0.3,0.5-0.4,1.1-0.4,1.8c0,0.5,0.1,1,0.2,1.4c0.1,0.3,0.3,0.6,0.5,0.8h-2.1H244h-2.8h-2.8h-2.9h-2.8h-2.8
		h-2.8c-0.2,0-0.3,0-0.4,0.1c-0.3,0-0.6-0.1-0.8-0.3c-0.3-0.2-0.4-0.5-0.6-1c0-0.1,0-0.2,0-0.2c0-0.1,0-0.2,0-0.3
		c0-0.6-0.1-1.1-0.3-1.6s-0.4-0.9-0.7-1.3c-0.3-0.3-0.7-0.6-1.1-0.8c-0.4-0.2-0.9-0.3-1.3-0.3c-0.3,0-0.7,0-1,0.1s-0.7,0.3-1,0.6
		c-0.3,0.3-0.7,0.7-1,1.2s-0.6,1.2-0.9,2.1c-0.1,0.4-0.3,0.7-0.5,0.9c-0.2,0.2-0.3,0.4-0.5,0.5s-0.3,0.2-0.5,0.3
		c-0.2,0-0.3,0.1-0.5,0.1h-0.3c-0.1-0.1-0.3-0.1-0.4-0.1h-2.8h-3h-2.8h-2.8h-2.8h-2.8h-2.8h-3h-0.3c-0.5,0-0.9-0.1-1-0.3
		c-0.2-0.2-0.2-0.6-0.2-1.1v-11h-1.8v11.5c0,0.5,0.1,1,0.2,1.4c0.1,0.4,0.3,0.7,0.6,0.9c0.2,0.2,0.5,0.4,0.9,0.5
		c0.3,0.1,0.7,0.1,1.1,0.1h0.5h2.8h2.8h2.8h2.8h2.8h2.8h2.8h2.8c0.2,0,0.3,0,0.5-0.1h0.3c0.2,0,0.5,0,0.6,0c0.2,0,0.4-0.1,0.6-0.1
		c0.2-0.1,0.4-0.2,0.5-0.3c0.2-0.2,0.3-0.4,0.5-0.6c0.7,0.5,1.3,0.9,1.9,1.1c0.6,0.2,1.2,0.3,1.8,0.3c0.7,0,1.3-0.1,1.8-0.4
		s0.8-0.7,1.1-1.2l0,0c0.2,0.5,0.5,0.8,0.9,1c0.2,0.1,0.5,0.2,0.7,0.2c0.1,0.1,0.3,0.2,0.5,0.2h2.9h2.8h2.8h2.8h2.8h2.8h2.8h8.5
		v-1.8h-2.9C251.7,102.2,251.1,102,250.7,101.6 M223.2,102.1c-0.3,0.3-0.8,0.5-1.3,0.5s-1-0.1-1.4-0.3c-0.5-0.2-0.9-0.4-1.4-0.8
		c0.4-1.2,0.8-2.1,1.3-2.6c0.4-0.5,0.9-0.7,1.5-0.7c0.3,0,0.6,0.1,0.8,0.2s0.4,0.3,0.6,0.5c0.2,0.2,0.3,0.5,0.4,0.7
		c0.1,0.3,0.1,0.6,0.1,0.9C223.7,101.2,223.5,101.7,223.2,102.1"/>
	<path class="st5" d="M263.8,92h-1.2c-0.3,0-0.5-0.1-0.7-0.3c-0.2-0.2-0.2-0.4-0.2-0.6s0.1-0.4,0.2-0.6s0.3-0.2,0.6-0.2
		c0.3,0,0.5,0.1,0.8,0.2l0.1,0.1v-1.1l0,0c-0.1-0.1-0.2-0.1-0.4-0.2c-0.2,0-0.4,0-0.6,0s-0.4,0-0.6,0.1s-0.4,0.2-0.6,0.4
		c-0.2,0.2-0.3,0.4-0.4,0.6s-0.1,0.5-0.1,0.8s0.1,0.6,0.2,0.9h-0.8v1.1h3.7V92z"/>
	<polygon class="st5" points="266.3,102.2 263.1,102.2 263.1,94.7 261.3,94.7 261.3,102.2 257,102.2 257,104.1 268.1,104.1 
		268.1,89.7 266.3,89.7 	"/>
	<rect x="270.6" y="89.7" class="st5" width="1.8" height="14.4"/>
	<path class="st5" d="M286.5,100.8c-0.1-0.3-0.3-0.7-0.6-1.1c-0.2-0.4-0.5-0.9-0.9-1.6c-0.4-0.6-0.8-1.4-1.3-2.3l-0.1-0.1l-1.6,1.1
		l0.1,0.1c0.4,0.6,0.7,1.1,1,1.5c0.2,0.3,0.4,0.6,0.6,0.9l0.4,0.6c0.2,0.3,0.4,0.5,0.5,0.7s0.3,0.5,0.4,0.7c0,0.1,0.1,0.3,0.1,0.4
		s-0.1,0.3-0.1,0.4c-0.1,0.1-0.2,0.2-0.7,0.2h-4.5v1.8h4.7c0.8,0,1.5-0.2,1.9-0.6s0.7-1,0.7-1.6
		C286.6,101.5,286.6,101.2,286.5,100.8"/>
	<rect x="288.7" y="89.7" class="st5" width="1.8" height="14.4"/>
	<path class="st5" d="M299.1,97.7c-0.3-0.5-0.6-0.8-1.1-1.1c-0.5-0.3-1-0.4-1.7-0.4c-0.6,0-1.2,0.1-1.6,0.4c-0.5,0.2-0.9,0.6-1.2,1
		c-0.3,0.4-0.6,0.9-0.7,1.4c-0.2,0.5-0.3,1-0.3,1.6c0,0.7,0.1,1.2,0.3,1.7c0.2,0.5,0.4,0.8,0.7,1.1c0.3,0.3,0.7,0.5,1.1,0.6
		s0.9,0.2,1.4,0.2s1-0.1,1.4-0.2s0.7-0.2,0.9-0.4v0.4c0,0.6-0.1,1.1-0.3,1.4c-0.2,0.4-0.5,0.6-0.9,0.8c-0.4,0.2-0.8,0.3-1.3,0.4
		s-1.1,0.1-1.7,0.1h-0.6v1.6h0.8c0.9,0,1.6-0.1,2.3-0.2c0.7-0.1,1.3-0.4,1.7-0.7c0.5-0.4,0.8-0.9,1.1-1.5c0.3-0.6,0.4-1.4,0.4-2.4
		v-1.9c0-0.8-0.1-1.4-0.2-2.1C299.6,98.7,299.4,98.1,299.1,97.7 M298.3,101.7c-0.2,0.2-0.5,0.3-0.8,0.4c-0.4,0.1-0.8,0.2-1.3,0.2
		c-0.6,0-1.2-0.2-1.6-0.5s-0.6-0.9-0.6-1.6c0-0.3,0-0.6,0.1-0.9s0.2-0.6,0.4-0.8c0.2-0.2,0.4-0.4,0.7-0.6c0.3-0.2,0.6-0.2,1-0.2
		s0.7,0.1,1,0.2c0.3,0.2,0.5,0.4,0.7,0.7c0.2,0.3,0.3,0.6,0.4,1s0.1,0.8,0.1,1.3v0.8H298.3z"/>
	<path class="st5" d="M332.5,89.7v12.5h-2.9h-2.8H324h-2.8h-2.8h-2.9h-2.8h-2.8h-2.8c-0.6,0-1-0.2-1.2-0.5c-0.2-0.4-0.3-0.9-0.3-1.5
		v-2.9h-1.8v5.4c0,0.6,0,1.2,0,1.7s-0.1,0.9-0.3,1.1c-0.2,0.3-0.4,0.5-0.7,0.6c-0.3,0.1-0.8,0.2-1.4,0.2h-0.1v1.8h0.1
		c0.9,0,1.6-0.1,2.1-0.3c0.6-0.2,1-0.5,1.3-0.9s0.5-1,0.6-1.6s0.2-1.3,0.2-2.1c0.1,0.2,0.3,0.3,0.5,0.4c0.3,0.2,0.6,0.3,0.9,0.3
		c0.1,0,0.1,0,0.2,0h2.8h2.8h2.8h2.8h2.8h2.8h2.8h2.8h4.7V89.7H332.5z"/>
	<polygon class="st5" points="125,22.1 125,22 163.4,27.6 163.4,19.7 117.5,12.8 116.9,12.7 116.9,59.2 125,60.1 	"/>
	<polygon class="st5" points="125,75.3 143.3,76.8 143.3,68.9 116.9,66.2 116.9,113.7 163,106.4 163.4,106.3 163.4,98.5 125,104.5 	
		"/>
	<polygon class="st5" points="56.6,28 57.1,28.1 57.1,20.2 9.7,13 9.7,114.5 57.1,106.9 57.1,69 30.7,66.6 30.7,74.7 49,76.1 
		49,100 17.7,105.1 17.7,22.3 	"/>
	<polygon class="st5" points="110.1,66.3 84.7,68.8 83.9,68.8 83.9,69.7 83.9,76.6 83.9,77.5 84.8,77.5 102.2,75.9 102.2,104 
		71.8,99.5 71.8,27.3 110.3,21.3 111.1,21.2 111.1,20.4 111.1,13.2 111.1,12.2 110,12.3 63.6,19.8 62.8,19.9 62.8,20.7 62.8,106.4 
		62.8,107.1 63.6,107.2 110.1,114 111.1,114.2 111.1,113.1 111.1,67.2 111.1,66.2 	"/>
	<path class="st5" d="M246.4,118.6c0.5-0.1,1.3-0.2,2.2-0.2c1.1,0,1.9,0.3,2.5,0.7c0.5,0.4,0.8,1.1,0.8,1.8c0,0.8-0.2,1.4-0.7,1.9
		c-0.6,0.6-1.6,1-2.7,1c-0.3,0-0.7,0-0.9-0.1v3.5h-1.1L246.4,118.6L246.4,118.6z M247.5,122.8c0.2,0.1,0.6,0.1,0.9,0.1
		c1.4,0,2.2-0.7,2.2-1.9s-0.8-1.7-2.1-1.7c-0.5,0-0.9,0-1.1,0.1v3.4H247.5z"/>
	<path class="st5" d="M246.4,118.6c0.5-0.1,1.3-0.2,2.2-0.2c1.1,0,1.9,0.3,2.5,0.7c0.5,0.4,0.8,1.1,0.8,1.8c0,0.8-0.2,1.4-0.7,1.9
		c-0.6,0.6-1.6,1-2.7,1c-0.3,0-0.7,0-0.9-0.1v3.5h-1.1L246.4,118.6L246.4,118.6z M247.5,122.8c0.2,0.1,0.6,0.1,0.9,0.1
		c1.4,0,2.2-0.7,2.2-1.9s-0.8-1.7-2.1-1.7c-0.5,0-0.9,0-1.1,0.1v3.4H247.5z"/>
	<path class="st5" d="M258.7,124c0,2.3-1.6,3.3-3.1,3.3c-1.7,0-3-1.2-3-3.2c0-2.1,1.4-3.3,3.1-3.3
		C257.4,120.8,258.7,122.1,258.7,124 M253.7,124.1c0,1.4,0.8,2.4,1.9,2.4s1.9-1,1.9-2.4c0-1.1-0.5-2.4-1.9-2.4
		C254.3,121.6,253.7,122.9,253.7,124.1"/>
	<path class="st5" d="M258.7,124c0,2.3-1.6,3.3-3.1,3.3c-1.7,0-3-1.2-3-3.2c0-2.1,1.4-3.3,3.1-3.3
		C257.4,120.8,258.7,122.1,258.7,124z M253.7,124.1c0,1.4,0.8,2.4,1.9,2.4s1.9-1,1.9-2.4c0-1.1-0.5-2.4-1.9-2.4
		C254.3,121.6,253.7,122.9,253.7,124.1z"/>
	<path class="st5" d="M260.5,120.9l0.8,3.2c0.2,0.7,0.4,1.4,0.5,2l0,0c0.1-0.6,0.4-1.3,0.6-2l1-3.2h1l1,3.2c0.2,0.8,0.4,1.4,0.6,2.1
		l0,0c0.1-0.6,0.3-1.3,0.5-2l0.9-3.2h1.1l-2,6.3h-1l-1-3c-0.2-0.7-0.4-1.3-0.6-2.1l0,0c-0.2,0.8-0.4,1.4-0.6,2.1l-1,3h-1l-1.9-6.3
		h1.1V120.9z"/>
	<path class="st5" d="M260.5,120.9l0.8,3.2c0.2,0.7,0.4,1.4,0.5,2l0,0c0.1-0.6,0.4-1.3,0.6-2l1-3.2h1l1,3.2c0.2,0.8,0.4,1.4,0.6,2.1
		l0,0c0.1-0.6,0.3-1.3,0.5-2l0.9-3.2h1.1l-2,6.3h-1l-1-3c-0.2-0.7-0.4-1.3-0.6-2.1l0,0c-0.2,0.8-0.4,1.4-0.6,2.1l-1,3h-1l-1.9-6.3
		h1.1V120.9z"/>
	<path class="st5" d="M270.1,124.3c0,1.5,1,2.2,2.2,2.2c0.8,0,1.3-0.1,1.7-0.3l0.2,0.8c-0.4,0.2-1.1,0.4-2.1,0.4
		c-1.9,0-3.1-1.3-3.1-3.2s1.1-3.4,3-3.4c2.1,0,2.6,1.8,2.6,3c0,0.2,0,0.4,0,0.5H270.1z M273.5,123.5c0-0.7-0.3-1.9-1.6-1.9
		c-1.2,0-1.7,1.1-1.8,1.9H273.5z"/>
	<path class="st5" d="M270.1,124.3c0,1.5,1,2.2,2.2,2.2c0.8,0,1.3-0.1,1.7-0.3l0.2,0.8c-0.4,0.2-1.1,0.4-2.1,0.4
		c-1.9,0-3.1-1.3-3.1-3.2s1.1-3.4,3-3.4c2.1,0,2.6,1.8,2.6,3c0,0.2,0,0.4,0,0.5H270.1z M273.5,123.5c0-0.7-0.3-1.9-1.6-1.9
		c-1.2,0-1.7,1.1-1.8,1.9H273.5z"/>
	<path class="st5" d="M276,122.9c0-0.7,0-1.4-0.1-2h1v1.2h0.1c0.3-0.8,1-1.4,1.7-1.4c0.1,0,0.2,0,0.3,0v1.1c-0.1,0-0.2,0-0.4,0
		c-0.8,0-1.4,0.6-1.5,1.5c0,0.2,0,0.3,0,0.5v3.4H276V122.9z"/>
	<path class="st5" d="M276,122.9c0-0.7,0-1.4-0.1-2h1v1.2h0.1c0.3-0.8,1-1.4,1.7-1.4c0.1,0,0.2,0,0.3,0v1.1c-0.1,0-0.2,0-0.4,0
		c-0.8,0-1.4,0.6-1.5,1.5c0,0.2,0,0.3,0,0.5v3.4H276V122.9z"/>
	<path class="st5" d="M280.8,124.3c0,1.5,1,2.2,2.2,2.2c0.8,0,1.3-0.1,1.7-0.3l0.2,0.8c-0.4,0.2-1.1,0.4-2.1,0.4
		c-1.9,0-3.1-1.3-3.1-3.2s1.1-3.4,3-3.4c2.1,0,2.6,1.8,2.6,3c0,0.2,0,0.4,0,0.5H280.8z M284.1,123.5c0-0.7-0.3-1.9-1.6-1.9
		c-1.2,0-1.7,1.1-1.8,1.9H284.1z"/>
	<path class="st5" d="M280.8,124.3c0,1.5,1,2.2,2.2,2.2c0.8,0,1.3-0.1,1.7-0.3l0.2,0.8c-0.4,0.2-1.1,0.4-2.1,0.4
		c-1.9,0-3.1-1.3-3.1-3.2s1.1-3.4,3-3.4c2.1,0,2.6,1.8,2.6,3c0,0.2,0,0.4,0,0.5H280.8z M284.1,123.5c0-0.7-0.3-1.9-1.6-1.9
		c-1.2,0-1.7,1.1-1.8,1.9H284.1z"/>
	<path class="st5" d="M292.1,118v7.6c0,0.6,0,1.2,0,1.6h-1l-0.1-1.1l0,0c-0.4,0.7-1.1,1.2-2.1,1.2c-1.5,0-2.7-1.3-2.7-3.2
		c0-2.1,1.3-3.4,2.8-3.4c1,0,1.6,0.5,1.9,1l0,0v-3.8L292.1,118L292.1,118z M291,123.5c0-0.1,0-0.3-0.1-0.5c-0.2-0.7-0.8-1.3-1.7-1.3
		c-1.2,0-1.9,1-1.9,2.4c0,1.3,0.6,2.3,1.9,2.3c0.8,0,1.5-0.5,1.7-1.4c0-0.2,0.1-0.3,0.1-0.5V123.5z"/>
	<path class="st5" d="M292.1,118v7.6c0,0.6,0,1.2,0,1.6h-1l-0.1-1.1l0,0c-0.4,0.7-1.1,1.2-2.1,1.2c-1.5,0-2.7-1.3-2.7-3.2
		c0-2.1,1.3-3.4,2.8-3.4c1,0,1.6,0.5,1.9,1l0,0v-3.8L292.1,118L292.1,118z M291,123.5c0-0.1,0-0.3-0.1-0.5c-0.2-0.7-0.8-1.3-1.7-1.3
		c-1.2,0-1.9,1-1.9,2.4c0,1.3,0.6,2.3,1.9,2.3c0.8,0,1.5-0.5,1.7-1.4c0-0.2,0.1-0.3,0.1-0.5V123.5z"/>
	<path class="st5" d="M296.7,127.2c0-0.4,0-1.1,0-1.6V118h1.1v4l0,0c0.4-0.7,1.1-1.2,2.1-1.2c1.6,0,2.7,1.3,2.7,3.2
		c0,2.3-1.4,3.4-2.8,3.4c-0.9,0-1.6-0.4-2.1-1.2l0,0v1L296.7,127.2L296.7,127.2z M297.9,124.7c0,0.1,0,0.3,0.1,0.4
		c0.2,0.8,0.9,1.3,1.7,1.3c1.2,0,1.9-1,1.9-2.4c0-1.3-0.6-2.3-1.9-2.3c-0.8,0-1.5,0.5-1.7,1.4c0,0.1-0.1,0.3-0.1,0.5V124.7z"/>
	<path class="st5" d="M296.7,127.2c0-0.4,0-1.1,0-1.6V118h1.1v4l0,0c0.4-0.7,1.1-1.2,2.1-1.2c1.6,0,2.7,1.3,2.7,3.2
		c0,2.3-1.4,3.4-2.8,3.4c-0.9,0-1.6-0.4-2.1-1.2l0,0v1L296.7,127.2L296.7,127.2z M297.9,124.7c0,0.1,0,0.3,0.1,0.4
		c0.2,0.8,0.9,1.3,1.7,1.3c1.2,0,1.9-1,1.9-2.4c0-1.3-0.6-2.3-1.9-2.3c-0.8,0-1.5,0.5-1.7,1.4c0,0.1-0.1,0.3-0.1,0.5V124.7z"/>
	<path class="st5" d="M304.5,120.9l1.4,3.7c0.1,0.4,0.3,0.9,0.4,1.3l0,0c0.1-0.4,0.2-0.9,0.4-1.3l1.3-3.7h1.2l-1.7,4.5
		c-0.8,2.2-1.4,3.3-2.2,3.9c-0.6,0.5-1.1,0.7-1.4,0.7l-0.3-1c0.3-0.1,0.7-0.3,1-0.6c0.3-0.2,0.7-0.7,1-1.3c0-0.1,0.1-0.2,0.1-0.3
		s0-0.2-0.1-0.3l-2.3-5.8h1.2V120.9z"/>
	<path class="st5" d="M304.5,120.9l1.4,3.7c0.1,0.4,0.3,0.9,0.4,1.3l0,0c0.1-0.4,0.2-0.9,0.4-1.3l1.3-3.7h1.2l-1.7,4.5
		c-0.8,2.2-1.4,3.3-2.2,3.9c-0.6,0.5-1.1,0.7-1.4,0.7l-0.3-1c0.3-0.1,0.7-0.3,1-0.6c0.3-0.2,0.7-0.7,1-1.3c0-0.1,0.1-0.2,0.1-0.3
		s0-0.2-0.1-0.3l-2.3-5.8h1.2V120.9z"/>
	<path class="st5" d="M317.4,126.5c-0.7,0.7-1.5,1-2.5,1.1c-0.3,0-0.7,0.1-1,0.1l0,0c-0.2,0-0.5,0-0.7,0c-0.6,0-0.8-0.5-0.5-0.9
		c0.2-0.4,0.6-0.6,1.1-0.6c0.6,0,1.1-0.1,1.7-0.1c0.4-0.1,0.6-0.3,0.6-0.8s-0.3-0.8-0.6-1.1c-0.2-0.1-0.4-0.3-0.5-0.4
		c-0.3-0.2-0.4-0.5-0.3-0.8c0.2-0.9,1.2-1.3,2-0.7c0.7,0.5,1.3,1.2,1.6,2.1C318.4,125,318.1,125.8,317.4,126.5"/>
	<path class="st5" d="M321.6,123.5c0,1.2-0.2,2.4-0.6,3.6c-0.2,0.5-0.6,0.6-1,0.3c-0.6-0.4-0.7-0.9-0.6-1.6c0.2-0.7,0.3-1.4,0.3-2.1
		c0-1.3-0.3-2.4-0.9-3.5c-0.1-0.3-0.3-0.5-0.4-0.8c-0.3-0.7,0-1.5,0.7-1.7c0.4-0.1,0.7,0,0.9,0.3c0.7,1.2,1.2,2.5,1.4,3.9
		C321.5,122.5,321.5,123,321.6,123.5"/>
	<path class="st5" d="M327.3,120.3c-0.4,0.5-0.9,0.7-1.5,0.6c-0.2-0.1-0.3,0.1-0.5,0.2c-0.6,0.5-1.2,0.7-2,0.5
		c-1-0.3-1.3-1.3-0.8-2.1c0.2-0.3,0.6-0.4,0.9-0.2c0.2,0.1,0.2,0.2,0.2,0.4c0,0.1,0,0.1,0,0.2c-0.1,0.2-0.1,0.4,0,0.5
		c0.2,0.2,0.4,0.2,0.6,0.1h0.1c0.3-0.1,0.3-0.1,0.2-0.4c-0.1-0.4,0.1-0.8,0.5-0.9c0.3-0.1,0.4,0,0.6,0.3s0.4,0.4,0.7,0.3
		c0.2-0.1,0.2-0.2,0.1-0.3s-0.2-0.2-0.3-0.3c-0.3-0.2-0.4-0.4-0.3-0.6c0.2-0.4,0.5-0.6,0.8-0.5C327.4,118.4,328.1,119.4,327.3,120.3
		"/>
	<path class="st5" d="M328.3,125.8c-0.7,1.4-1.6,2.6-3,3.3c-0.8,0.4-1.6,0.7-2.5,0.8c-0.5,0-0.9,0-1.3-0.5c-0.3-0.4-0.2-0.9,0.3-1.1
		c0.3-0.1,0.6-0.1,0.9-0.1c1.4-0.2,2.4-0.8,3-2.1V126c-0.2,0-0.4,0-0.6,0c-1.2-0.1-1.9-1.3-1.4-2.3s1.3-1.5,2.4-1.7
		c1.1-0.1,2.2,0.6,2.3,1.7C328.7,124.4,328.6,125.1,328.3,125.8"/>
	<path class="st5" d="M334.3,122.8c-0.1,1.2-0.4,2.2-1,3.2c-1,1.7-2.5,2.9-4.3,3.7c-0.5,0.2-1,0.2-1.5-0.2s-0.4-0.9,0.1-1.1
		c0.9-0.4,1.7-0.8,2.4-1.4c1.1-0.9,2-2,2.4-3.4c0.1-0.3,0.2-0.7,0.2-1.1c0-0.3,0.1-0.6,0.5-0.7c0.4-0.1,0.7-0.1,1,0.1
		C334.2,122.3,334.3,122.5,334.3,122.8"/>
</g>
</svg>
