<?xml version="1.0" encoding="utf-8"?>
<!-- Generator: Adobe Illustrator 21.0.0, SVG Export Plug-In . SVG Version: 6.00 Build 0)  -->
<svg version="1.1" id="layer" xmlns="http://www.w3.org/2000/svg" xmlns:xlink="http://www.w3.org/1999/xlink" x="0px" y="0px"
	 viewBox="0 0 652 182" style="enable-background:new 0 0 652 182;" xml:space="preserve">
<style type="text/css">
	.st0{fill:#040303;}
</style>
<g>
	<path class="st0" d="M66.8,129.3c-0.5,0.3-1.1,0.8-1.6,1.2l-0.1,0.1c-0.1,0.1-0.2,0.2-0.3,0.3c-0.1,0.1-0.2,0.2-0.3,0.2
		c-0.1,0.1-0.2,0.2-0.4,0.2c-0.1,0.1-0.2,0.2-0.4,0.2c-0.1,0.1-0.3,0.2-0.4,0.2c-0.1,0.1-0.3,0.1-0.4,0.2c-0.1,0.1-0.3,0.1-0.4,0.2
		c-0.1,0.1-0.3,0.1-0.4,0.2c-0.1,0.1-0.3,0.1-0.4,0.2c-0.1,0.1-0.3,0.1-0.4,0.2c-0.1,0.1-0.3,0.1-0.4,0.2c-0.1,0.1-0.3,0.1-0.4,0.2
		c-0.1,0.1-0.3,0.1-0.4,0.1c-0.1,0.1-0.3,0.1-0.4,0.1c-0.1,0-0.3,0.1-0.4,0.1c-0.1,0-0.3,0.1-0.4,0.1c-0.1,0-0.3,0.1-0.4,0.1
		c-0.1,0-0.3,0.1-0.4,0.1c-0.1,0-0.3,0.1-0.4,0.1c-1.7,0.3-3.4,0.4-5.2,0.5h-1.3c-8.7-0.2-15.9-3.1-21.7-8.5
		c-5.8-5.5-8.8-12.4-9-20.6V72.7c0.2-8.3,3.2-15.1,9-20.6s13-8.3,21.7-8.5h1.7c1.6,0,3.2,0.1,4.6,0.3l0.4,0.1c0.1,0,0.3,0,0.4,0.1
		c0.1,0,0.3,0.1,0.4,0.1c0.1,0,0.3,0.1,0.4,0.1c0.1,0,0.3,0.1,0.4,0.1s0.3,0.1,0.5,0.1c0.1,0.1,0.3,0.1,0.4,0.1
		c0.2,0.1,0.3,0.1,0.5,0.2s0.3,0.1,0.5,0.2c0.1,0.1,0.3,0.1,0.4,0.2c0.1,0.1,0.3,0.1,0.4,0.2c0.1,0.1,0.3,0.1,0.4,0.2
		c0.1,0.1,0.3,0.1,0.4,0.2c0.1,0.1,0.3,0.1,0.4,0.2c0.1,0.1,0.3,0.1,0.4,0.2l0.1,0.1l0.2,0.1l0.2,0.1l0.2,0.1l0.2,0.1l0.2,0.1
		l0.1,0.1l0.1,0.1l0.1,0.1l0.1,0.1l0.1,0.1l0.1,0.1l0.1,0.1l0.1,0.1l0.1,0.1l0.1,0.1l0.1,0.1l0.1,0.1c0,0,0.1,0.1,0.3,0.2
		c0.1,0.1,0.1,0.1,0.2,0.1s0.2,0.1,0.3,0.1c0.1,0,0.2,0,0.3,0c0.1,0,0.2,0,0.3,0c0.1,0,0.2-0.1,0.3-0.1c0.1,0,0.2-0.1,0.3-0.1
		c0.1-0.1,0.2-0.1,0.2-0.2c0.1-0.1,0.1-0.2,0.2-0.2c0.1-0.1,0.1-0.2,0.1-0.3c0-0.1,0.1-0.2,0.1-0.3c0-0.1,0-0.2,0-0.3
		c0-1.1,0-2.5,1.2-2.9c0.7-0.2,1.6-0.1,2.3-0.1h7.1h3.8c1.1,0,2.8-0.3,3.3,1.1c0.3,1,0.1,3.1,0.1,4.2v15.2v35.5v18.6
		c0,6.2,0.2,12.4-0.4,18.5c-1.9,17.1-10.5,31.6-28.5,34.8c-10.9,1.9-21.8-2-30.3-8.9c-1-0.9-3.2-2.3-3.1-3.7c0-0.5,0.3-1,0.6-1.4
		c0,0,7-7.4,7.5-8.1c0.5-0.6,1.2-1.3,2-1.3c1.1,0,2.2,1,4.3,2.2c3.4,2,7.1,3.8,11,4.4c2.5,0.4,5.1,0,7.5-0.7
		c9.2-3,11.7-14.5,12.2-23.6v-0.2c0-0.1,0-0.1,0-0.2s0-0.1,0-0.2s0-0.1,0-0.2c0,0,0-0.1-0.1-0.1c0-0.1,0-0.1-0.1-0.1
		c0-0.1-0.1-0.1-0.1-0.1l-0.1-0.1l-0.1-0.1l-0.1-0.1l-0.1-0.1l-0.1-0.1c0,0-0.1,0-0.1-0.1c0,0-0.1,0-0.1-0.1h-0.1c0,0-0.1,0-0.2,0
		s-0.1,0-0.2,0s-0.1,0-0.2,0s-0.1,0-0.2,0s-0.1,0-0.1,0c-0.1,0-0.1,0-0.1,0.1C67.1,129.2,66.9,129.3,66.8,129.3 M68.8,105.5V72.9
		c-0.1-4.3-1.7-7-4.7-9.5c-3-2.4-5.8-3.7-10.1-3.7h-1.7c-4.4,0.1-7.3,1.6-10.3,4.4s-4.5,5.6-4.7,9.9v30.2c0.1,4.2,1.7,7.1,4.7,9.9
		s5.9,4.3,10.3,4.4H54c4.3-0.1,7.1-1.3,10.1-3.7C67.1,112.2,68.6,109.6,68.8,105.5"/>
	<path class="st0" d="M210.4,132.4v-12c0-0.7-0.2-1.2-0.5-1.5c-0.4-0.3-0.8-0.5-1.4-0.5h-32.8c-0.8,0-1.4-0.1-1.7-0.4
		s-0.5-0.6-0.5-1.1s0.2-1.1,0.4-1.4l36-67.9c0.1-0.2,0.2-0.4,0.3-0.7c0.1-0.3,0.1-0.5,0.1-0.7c0-1-0.8-1.6-2.2-1.6h-59
		c-1.4,0-2,0.6-2,2v11.9c0,1.4,0.6,2,2,2h30.8c0.7,0,1.3,0.1,1.6,0.4c0.4,0.3,0.5,0.7,0.5,1.2c0,0.2,0,0.4-0.1,0.7
		c-0.1,0.3-0.2,0.5-0.3,0.7l-36.4,67.9c-0.1,0.2-0.2,0.4-0.3,0.7c-0.1,0.3-0.1,0.5-0.1,0.7c0,1,0.8,1.6,2.2,1.6h61.4
		c0.7,0,1.2-0.2,1.5-0.5C210.2,133.6,210.4,133.1,210.4,132.4"/>
	<path class="st0" d="M108.4,33c0.1,0.7,0.3,1.2,0.6,1.5c0.4,0.4,1,0.6,1.8,0.6h12.4c0.8,0,1.4-0.2,1.8-0.6c0.3-0.3,0.6-0.8,0.6-1.5
		c0,0,0-0.3,0-0.4V18.8c0-0.8-0.2-1.4-0.6-1.8c-0.4-0.4-1-0.6-1.8-0.6h-1c-0.8,0-1.4,0.2-2.1,0.9l-10.4,11.6l-0.5,0.6
		c-0.6,0.7-0.8,1.2-0.8,1.9v1.2C108.4,32.8,108.4,33,108.4,33"/>
	<path class="st0" d="M125.5,46.6c0-0.7-0.2-1.2-0.5-1.6s-0.9-0.5-1.6-0.5h-12.9c-0.7,0-1.3,0.2-1.6,0.6c-0.3,0.4-0.5,0.9-0.5,1.5
		V47v48.5v36.7c0,0.7,0.2,1.2,0.5,1.6s0.9,0.5,1.6,0.5h12.9c0.7,0,1.3-0.2,1.6-0.6c0.3-0.4,0.5-0.9,0.5-1.5V46.6z"/>
	<path class="st0" d="M620.1,114c0-0.4-0.1-0.7-0.4-0.9c-0.3-0.2-0.5-0.3-0.8-0.3s-0.6,0.1-0.8,0.3c-0.3,0.2-0.4,0.5-0.4,0.9v8.3
		h-7.5V114c0-0.4-0.1-0.7-0.4-0.9c-0.3-0.2-0.5-0.3-0.8-0.3s-0.6,0.1-0.8,0.3c-0.3,0.2-0.4,0.5-0.4,0.9v19.7c0,0.4,0.1,0.7,0.4,0.9
		c0.3,0.2,0.5,0.3,0.8,0.3s0.6-0.1,0.8-0.3c0.3-0.2,0.4-0.5,0.4-0.9v-9h7.5v9c0,0.4,0.1,0.7,0.4,0.9c0.3,0.2,0.5,0.3,0.8,0.3
		s0.6-0.1,0.8-0.3c0.3-0.2,0.4-0.5,0.4-0.9V114z M599.6,129.9c0,0.7-0.3,1.4-0.8,1.9s-1.2,0.8-1.9,0.8h-0.3c-0.7,0-1.3-0.2-1.9-0.7
		c-0.5-0.4-0.8-1.1-0.8-1.8v-5.8c0-0.7,0.3-1.3,0.8-1.8c0.5-0.4,1.2-0.7,1.9-0.7h0.3c0.8,0,1.4,0.3,1.9,0.8s0.8,1.2,0.8,1.9V129.9z
		 M602,124.5c0-0.7-0.1-1.3-0.4-2c-0.3-0.6-0.6-1.2-1.1-1.6c-0.5-0.5-1-0.8-1.6-1.1c-0.6-0.3-1.3-0.4-2-0.4h-0.2
		c-0.5,0-1.1,0.1-1.6,0.3c-0.5,0.2-0.9,0.4-1.2,0.8v-6.4c0-0.4-0.1-0.7-0.4-0.9c-0.3-0.2-0.5-0.3-0.8-0.3s-0.6,0.1-0.8,0.3
		c-0.3,0.2-0.4,0.5-0.4,0.9v19.8c0,0.4,0.1,0.7,0.4,0.8c0.3,0.2,0.5,0.3,0.8,0.3s0.5-0.1,0.8-0.2c0.2-0.2,0.4-0.4,0.4-0.7
		c0.2,0.2,0.6,0.4,1,0.6c0.5,0.2,1,0.3,1.7,0.3h0.3c0.7,0,1.4-0.1,2-0.4s1.2-0.6,1.6-1.1c0.5-0.5,0.8-1,1.1-1.6s0.4-1.3,0.4-2V124.5
		z M585.7,124.5c0-0.9-0.1-1.6-0.4-2.3c-0.3-0.6-0.6-1.2-1.1-1.6s-1-0.7-1.6-0.9c-0.6-0.2-1.3-0.3-1.9-0.3h-0.3
		c-0.8,0-1.5,0.2-2.2,0.5s-1.2,0.8-1.7,1.3c-0.5-0.5-1.1-1-1.7-1.3c-0.7-0.3-1.4-0.5-2.2-0.5h-0.3c-0.5,0-1.1,0.1-1.5,0.3
		c-0.5,0.2-0.9,0.4-1.2,0.7c-0.1-0.3-0.2-0.5-0.4-0.7s-0.5-0.2-0.7-0.2c-0.3,0-0.6,0.1-0.9,0.3c-0.3,0.2-0.4,0.5-0.4,0.9v13.2
		c0,0.4,0.1,0.7,0.4,0.9c0.3,0.2,0.5,0.3,0.8,0.3s0.6-0.1,0.8-0.3c0.3-0.2,0.4-0.5,0.4-0.9v-9.5c0-0.7,0.3-1.3,0.8-1.8
		c0.5-0.4,1.2-0.7,1.9-0.7h0.3c0.8,0,1.4,0.3,1.9,0.8s0.8,1.2,0.8,2v9.2c0,0.4,0.1,0.7,0.4,0.9c0.3,0.2,0.5,0.3,0.8,0.3
		s0.6-0.1,0.8-0.3c0.3-0.2,0.4-0.5,0.4-0.9v-9.2c0-0.8,0.3-1.4,0.8-1.9s1.2-0.8,1.9-0.8h0.3c0.8,0,1.4,0.2,1.9,0.7
		c0.5,0.4,0.7,1.1,0.7,2v9.3c0,0.4,0.1,0.7,0.4,0.9c0.3,0.2,0.5,0.3,0.8,0.3s0.6-0.1,0.8-0.3c0.3-0.2,0.4-0.5,0.4-0.9V124.5z
		 M561.4,124.1c0-0.3-0.1-0.6-0.4-0.8c-0.2-0.2-0.5-0.4-0.8-0.4h-4.5c-0.4,0-0.7,0.1-0.9,0.4s-0.3,0.5-0.3,0.8s0.1,0.6,0.3,0.8
		c0.2,0.3,0.5,0.4,0.9,0.4h3.3v3.7c0,0.5-0.1,1-0.3,1.4s-0.4,0.8-0.8,1.1c-0.3,0.3-0.7,0.6-1.1,0.8c-0.4,0.2-0.9,0.3-1.4,0.3h-0.3
		c-0.5,0-1-0.1-1.4-0.3c-0.4-0.2-0.8-0.4-1.1-0.8c-0.3-0.3-0.6-0.7-0.8-1.1s-0.3-0.9-0.3-1.4v-10.2c0-0.5,0.1-0.9,0.3-1.4
		c0.2-0.4,0.4-0.8,0.8-1.1c0.3-0.3,0.7-0.6,1.1-0.8c0.4-0.2,0.9-0.3,1.4-0.3h0.3c1,0,1.8,0.3,2.4,0.9c0.6,0.6,1,1.3,1.2,2.2
		c0.1,0.4,0.2,0.6,0.4,0.8c0.2,0.2,0.5,0.2,0.8,0.2s0.6-0.1,0.8-0.3c0.3-0.2,0.4-0.5,0.4-0.9v-0.2c-0.1-0.7-0.3-1.4-0.7-2
		c-0.3-0.6-0.8-1.2-1.3-1.6c-0.5-0.5-1.1-0.8-1.8-1.1c-0.7-0.3-1.4-0.4-2.2-0.4h-0.3c-0.8,0-1.6,0.2-2.3,0.5s-1.4,0.7-1.9,1.3
		c-0.5,0.5-1,1.2-1.3,1.9c-0.3,0.7-0.5,1.5-0.5,2.3V129c0,0.8,0.2,1.6,0.5,2.3c0.3,0.7,0.7,1.4,1.3,1.9c0.5,0.5,1.2,1,1.9,1.3
		s1.5,0.5,2.3,0.5h0.3c0.8,0,1.6-0.1,2.3-0.5c0.7-0.3,1.4-0.7,1.9-1.3c0.5-0.5,1-1.2,1.3-1.9c0.3-0.7,0.5-1.5,0.5-2.3L561.4,124.1
		L561.4,124.1z M536.5,120.4c-0.2-1.3-0.6-2.6-1-3.8c-0.4-1.2-0.9-2.2-1.5-3.2s-1.2-1.8-1.9-2.4c-0.3-0.3-0.5-0.4-0.8-0.4
		s-0.5,0.1-0.8,0.3c-0.3,0.3-0.4,0.5-0.4,0.8s0.1,0.5,0.3,0.8c0.5,0.5,1.1,1.2,1.6,2s0.9,1.7,1.3,2.8c0.4,1,0.7,2.1,0.9,3.4
		c0.2,1.2,0.3,2.5,0.3,3.8s-0.1,2.6-0.3,3.8c-0.2,1.2-0.5,2.3-0.9,3.4c-0.4,1-0.8,2-1.3,2.8s-1,1.5-1.6,2c-0.2,0.2-0.3,0.5-0.3,0.8
		s0.1,0.6,0.4,0.8c0.3,0.3,0.6,0.4,0.9,0.4c0.3,0,0.5-0.1,0.8-0.4c0.7-0.7,1.3-1.4,1.9-2.4s1.1-2,1.5-3.2s0.8-2.4,1-3.8
		c0.3-1.4,0.4-2.8,0.4-4.2C536.8,123.1,536.7,121.8,536.5,120.4 M525.6,132.8c-0.2-0.3-0.5-0.4-0.9-0.4h-7.9l8.9-17.2
		c0.1-0.3,0.2-0.5,0.2-0.8c0-0.4-0.1-0.7-0.4-1c-0.3-0.3-0.6-0.4-1-0.4h-9c-0.4,0-0.7,0.1-0.9,0.4s-0.3,0.5-0.3,0.8s0.1,0.6,0.3,0.8
		c0.2,0.3,0.5,0.4,0.9,0.4h7.5l-8.9,17.1c-0.1,0.2-0.2,0.5-0.2,0.8c0,0.4,0.1,0.8,0.4,1.1c0.2,0.3,0.6,0.5,1,0.5h9.5
		c0.4,0,0.7-0.1,0.9-0.4s0.3-0.5,0.3-0.8C525.9,133.3,525.8,133,525.6,132.8 M508.2,114c0-0.4-0.1-0.7-0.4-0.9
		c-0.3-0.2-0.5-0.3-0.8-0.3s-0.6,0.1-0.8,0.3c-0.3,0.2-0.4,0.5-0.4,0.9v19.7c0,0.4,0.1,0.7,0.4,0.9c0.3,0.2,0.5,0.3,0.8,0.3
		s0.6-0.1,0.8-0.3c0.3-0.2,0.4-0.5,0.4-0.9V114z M499.4,124.1c0-0.3-0.1-0.6-0.4-0.8c-0.2-0.2-0.5-0.4-0.8-0.4h-4.5
		c-0.4,0-0.7,0.1-0.9,0.4c-0.2,0.3-0.3,0.5-0.3,0.8s0.1,0.6,0.3,0.8c0.2,0.3,0.5,0.4,0.9,0.4h3.3v3.7c0,0.5-0.1,1-0.3,1.4
		c-0.2,0.4-0.4,0.8-0.8,1.1c-0.3,0.3-0.7,0.6-1.1,0.8c-0.4,0.2-0.9,0.3-1.4,0.3h-0.3c-0.5,0-1-0.1-1.4-0.3c-0.4-0.2-0.8-0.4-1.1-0.8
		c-0.3-0.3-0.6-0.7-0.8-1.1c-0.2-0.4-0.3-0.9-0.3-1.4v-10.2c0-0.5,0.1-0.9,0.3-1.4c0.2-0.4,0.4-0.8,0.8-1.1c0.3-0.3,0.7-0.6,1.1-0.8
		c0.4-0.2,0.9-0.3,1.4-0.3h0.3c1,0,1.8,0.3,2.4,0.9s1,1.3,1.1,2.2c0.1,0.4,0.2,0.6,0.4,0.8c0.2,0.2,0.5,0.2,0.8,0.2s0.6-0.1,0.8-0.3
		c0.3-0.2,0.4-0.5,0.4-0.9v-0.2c-0.1-0.7-0.3-1.4-0.7-2c-0.3-0.6-0.8-1.2-1.3-1.6c-0.5-0.5-1.1-0.8-1.8-1.1
		c-0.7-0.3-1.4-0.4-2.2-0.4H493c-0.8,0-1.6,0.2-2.3,0.5c-0.7,0.3-1.4,0.7-1.9,1.3c-0.5,0.5-1,1.2-1.3,1.9c-0.3,0.7-0.5,1.5-0.5,2.3
		V129c0,0.8,0.2,1.6,0.5,2.3c0.3,0.7,0.7,1.4,1.3,1.9c0.5,0.5,1.2,1,1.9,1.3c0.7,0.3,1.5,0.5,2.3,0.5h0.3c0.8,0,1.6-0.1,2.3-0.5
		c0.7-0.3,1.4-0.7,1.9-1.3c0.5-0.5,1-1.2,1.3-1.9c0.3-0.7,0.5-1.5,0.5-2.3v-4.9H499.4z M481.5,134.5c-0.5-0.8-1-1.7-1.3-2.8
		c-0.4-1-0.7-2.1-0.9-3.4c-0.2-1.2-0.3-2.5-0.3-3.8s0.1-2.6,0.3-3.8c0.2-1.2,0.5-2.3,0.9-3.4c0.4-1,0.8-2,1.3-2.8s1-1.5,1.5-2
		c0.2-0.2,0.3-0.5,0.3-0.8s-0.1-0.6-0.4-0.8c-0.3-0.2-0.6-0.3-0.8-0.3c-0.3,0-0.6,0.1-0.8,0.4c-0.7,0.7-1.3,1.5-1.8,2.4
		c-0.6,1-1.1,2-1.5,3.2s-0.8,2.4-1,3.7c-0.3,1.3-0.4,2.7-0.4,4.1s0.1,2.8,0.4,4.2c0.3,1.4,0.6,2.6,1,3.8c0.4,1.2,0.9,2.2,1.5,3.2
		c0.6,0.9,1.2,1.7,1.9,2.4c0.3,0.3,0.5,0.4,0.8,0.4s0.6-0.1,0.8-0.4c0.3-0.2,0.4-0.5,0.4-0.8s-0.1-0.5-0.4-0.8
		C482.5,136,482,135.3,481.5,134.5 M463.7,133c-0.2-0.2-0.5-0.4-0.8-0.4c-0.5,0-0.9-0.2-1.3-0.5s-0.6-0.7-0.6-1.3v-8.9h1.7
		c0.4,0,0.7-0.1,0.9-0.4c0.2-0.3,0.3-0.5,0.3-0.8s-0.1-0.6-0.3-0.8c-0.2-0.3-0.5-0.4-0.9-0.4H461V114c0-0.4-0.1-0.7-0.4-0.9
		c-0.3-0.2-0.5-0.3-0.8-0.3s-0.6,0.1-0.8,0.3c-0.3,0.2-0.4,0.5-0.4,0.9v5.5h-1.1c-0.4,0-0.7,0.1-0.9,0.4c-0.2,0.3-0.3,0.5-0.3,0.8
		s0.1,0.6,0.3,0.8c0.2,0.3,0.5,0.4,0.9,0.4h1.1v8.9c0,0.6,0.1,1.1,0.3,1.6c0.2,0.5,0.5,0.9,0.9,1.3s0.8,0.7,1.3,0.9
		c0.5,0.2,1,0.3,1.6,0.3c0.4,0,0.7-0.1,0.9-0.4c0.2-0.2,0.3-0.5,0.3-0.8C464,133.5,463.9,133.2,463.7,133 M451.3,120.6
		c0-0.4-0.1-0.7-0.4-0.9c-0.3-0.2-0.5-0.3-0.8-0.3s-0.6,0.1-0.8,0.3c-0.3,0.2-0.4,0.5-0.4,0.9v13.2c0,0.4,0.1,0.7,0.4,0.9
		c0.3,0.2,0.5,0.3,0.8,0.3s0.6-0.1,0.8-0.3c0.3-0.2,0.4-0.5,0.4-0.9V120.6z M451.3,114c0-0.4-0.1-0.7-0.4-0.9
		c-0.3-0.2-0.5-0.3-0.8-0.3s-0.6,0.1-0.8,0.3c-0.3,0.2-0.4,0.5-0.4,0.9v0.7c0,0.4,0.1,0.7,0.4,0.9c0.3,0.2,0.5,0.3,0.8,0.3
		s0.6-0.1,0.8-0.3c0.3-0.2,0.4-0.5,0.4-0.9V114z M441.2,126.1h-5.7v-1.6c0-0.8,0.3-1.4,0.8-1.9s1.2-0.8,1.9-0.8h0.3
		c0.7,0,1.3,0.3,1.8,0.8s0.8,1.2,0.8,2v1.5H441.2z M443.5,124.5c0-0.7-0.1-1.4-0.4-2s-0.6-1.2-1.1-1.6c-0.5-0.5-1-0.8-1.6-1.1
		c-0.6-0.3-1.3-0.4-2-0.4h-0.3c-0.7,0-1.3,0.1-2,0.4c-0.6,0.3-1.2,0.6-1.6,1.1c-0.5,0.5-0.8,1-1.1,1.6c-0.3,0.6-0.4,1.3-0.4,2v5.4
		c0,0.7,0.1,1.4,0.4,2s0.6,1.1,1.1,1.6s1,0.8,1.6,1.1c0.6,0.3,1.3,0.4,2,0.4h0.3c1.1,0,2-0.3,2.8-0.8c0.8-0.6,1.4-1.3,1.8-2.2
		c0.1-0.1,0.1-0.3,0.1-0.5c0-0.4-0.1-0.7-0.4-0.9c-0.3-0.2-0.5-0.3-0.9-0.3c-0.2,0-0.4,0.1-0.6,0.2s-0.3,0.3-0.4,0.6
		c-0.2,0.4-0.5,0.8-0.9,1.1s-0.9,0.5-1.5,0.5h-0.3c-0.7,0-1.4-0.3-1.9-0.8s-0.8-1.1-0.8-1.9v-1.6h6.9c0.3,0,0.6-0.1,0.9-0.4
		c0.2-0.2,0.3-0.5,0.3-0.8V124.5z M425.5,129.9c0,0.7-0.3,1.4-0.8,1.9s-1.2,0.8-1.9,0.8h-0.3c-0.7,0-1.3-0.2-1.9-0.7
		c-0.5-0.4-0.8-1.1-0.8-1.8v-5.8c0-0.7,0.3-1.3,0.8-1.8c0.5-0.4,1.2-0.7,1.9-0.7h0.3c0.8,0,1.4,0.3,1.9,0.8s0.8,1.2,0.8,1.9V129.9z
		 M427.9,124.5c0-0.7-0.1-1.3-0.4-2c-0.3-0.6-0.6-1.2-1.1-1.6c-0.5-0.5-1-0.8-1.6-1.1c-0.6-0.3-1.3-0.4-2-0.4h-0.2
		c-0.5,0-1.1,0.1-1.6,0.3c-0.5,0.2-0.9,0.4-1.2,0.8v-6.4c0-0.4-0.1-0.7-0.4-0.9c-0.3-0.2-0.5-0.3-0.8-0.3s-0.6,0.1-0.8,0.3
		c-0.3,0.2-0.4,0.5-0.4,0.9v19.8c0,0.4,0.1,0.7,0.4,0.8c0.3,0.2,0.5,0.3,0.8,0.3s0.5-0.1,0.8-0.2c0.2-0.2,0.4-0.4,0.4-0.7
		c0.2,0.2,0.6,0.4,1,0.6c0.5,0.2,1,0.3,1.7,0.3h0.3c0.7,0,1.3-0.1,2-0.4c0.6-0.3,1.2-0.6,1.6-1.1c0.5-0.5,0.8-1,1.1-1.6
		c0.3-0.6,0.4-1.3,0.4-2L427.9,124.5L427.9,124.5z M412.3,121c-0.4-0.5-0.9-0.9-1.5-1.2s-1.2-0.4-1.8-0.4c-0.4,0-0.8,0-1,0.1
		c-0.3,0.1-0.5,0.1-0.7,0.2s-0.4,0.2-0.5,0.3c-0.1-0.2-0.3-0.4-0.4-0.5c-0.2-0.1-0.4-0.1-0.6-0.1c-0.3,0-0.6,0.1-0.8,0.3
		c-0.3,0.2-0.4,0.5-0.4,0.9v13.1c0,0.4,0.1,0.7,0.4,0.9c0.3,0.2,0.5,0.3,0.8,0.3s0.6-0.1,0.8-0.3c0.3-0.2,0.4-0.5,0.4-0.9v-9.8
		c0-0.3,0-0.5,0.1-0.8c0-0.3,0.1-0.5,0.3-0.7c0.1-0.2,0.4-0.4,0.6-0.5c0.3-0.1,0.7-0.2,1.1-0.2s0.7,0.1,0.9,0.2
		c0.2,0.2,0.4,0.3,0.5,0.4c0.3,0.3,0.6,0.4,1,0.4c0.3,0,0.6-0.1,0.8-0.3c0.2-0.2,0.3-0.5,0.3-0.8C412.6,121.5,412.5,121.3,412.3,121
		 M395.6,129.9c0,0.8-0.3,1.4-0.8,1.9s-1.2,0.8-1.9,0.8h-0.3c-0.8,0-1.4-0.2-1.9-0.6s-0.7-0.9-0.7-1.6v-0.3c0-0.5,0.2-1,0.6-1.3
		s0.8-0.5,1.4-0.7s1.2-0.3,1.8-0.4c0.7-0.1,1.3-0.2,1.9-0.4v2.6H395.6z M399.5,133c-0.2-0.2-0.4-0.4-0.8-0.4c-0.5-0.1-0.8-0.5-0.8-1
		v-7.3c0-0.7-0.1-1.3-0.4-1.9s-0.6-1.1-1-1.5s-1-0.8-1.6-1c-0.6-0.3-1.3-0.4-2-0.4h-0.2c-0.4,0-0.9,0.1-1.3,0.1
		c-0.4,0.1-0.9,0.3-1.3,0.5s-0.8,0.5-1.2,0.9c-0.4,0.4-0.7,0.9-0.9,1.4c-0.1,0.1-0.1,0.3-0.1,0.6c0,0.3,0.1,0.6,0.4,0.8
		c0.3,0.2,0.5,0.3,0.8,0.3c0.2,0,0.4-0.1,0.6-0.1c0.2-0.1,0.3-0.3,0.5-0.5c0.3-0.5,0.6-0.9,1-1.2c0.4-0.3,0.9-0.4,1.5-0.4h0.2
		c0.7,0,1.3,0.2,1.8,0.6s0.8,1,0.8,2c0,0.1,0,0.2,0,0.3c0,0.1,0,0.2-0.1,0.3c-0.1,0.2-0.4,0.3-0.9,0.4s-1,0.2-1.6,0.3
		c-0.6,0.1-1.2,0.2-1.9,0.4c-0.7,0.2-1.3,0.4-1.8,0.7c-0.5,0.3-1,0.8-1.4,1.3s-0.5,1.2-0.5,2v0.4c0,0.7,0.1,1.4,0.4,1.9
		c0.3,0.6,0.7,1,1.2,1.4s1,0.7,1.6,0.9c0.6,0.2,1.2,0.3,1.9,0.3h0.3c1.3,0,2.5-0.4,3.4-1.2c0.2,0.3,0.5,0.5,0.8,0.8s0.8,0.4,1.3,0.4
		c0,0,0.1,0,0.2,0c0.4,0,0.7-0.1,0.9-0.4c0.2-0.2,0.3-0.5,0.3-0.8C399.8,133.5,399.7,133.3,399.5,133 M382.6,124.5
		c0-0.9-0.1-1.6-0.4-2.2s-0.6-1.2-1.1-1.6s-1-0.7-1.6-0.9c-0.6-0.2-1.3-0.3-1.9-0.3h-0.3c-0.5,0-1.1,0.1-1.5,0.3
		c-0.5,0.2-0.9,0.4-1.2,0.7c-0.1-0.3-0.2-0.5-0.4-0.7c-0.2-0.2-0.5-0.2-0.8-0.2s-0.6,0.1-0.9,0.3c-0.3,0.2-0.4,0.5-0.4,0.9V134
		c0,0.4,0.1,0.7,0.4,0.9c0.3,0.2,0.5,0.3,0.8,0.3s0.6-0.1,0.8-0.3c0.3-0.2,0.4-0.5,0.4-0.9v-9.3c0-0.8,0.3-1.4,0.8-1.9
		s1.2-0.8,1.9-0.8h0.3c0.8,0,1.4,0.3,1.9,0.8s0.8,1.2,0.8,1.9v9.3c0,0.4,0.1,0.7,0.4,0.9c0.3,0.2,0.5,0.3,0.8,0.3s0.6-0.1,0.8-0.3
		c0.2-0.2,0.4-0.5,0.4-0.9L382.6,124.5L382.6,124.5z M364.6,126.1h-5.7v-1.6c0-0.8,0.3-1.4,0.8-1.9s1.2-0.8,1.9-0.8h0.3
		c0.7,0,1.3,0.3,1.8,0.8s0.8,1.2,0.8,2v1.5H364.6z M366.9,124.5c0-0.7-0.1-1.4-0.4-2s-0.6-1.2-1.1-1.6c-0.5-0.5-1-0.8-1.6-1.1
		c-0.6-0.3-1.3-0.4-2-0.4h-0.3c-0.7,0-1.4,0.1-2,0.4s-1.2,0.6-1.6,1.1c-0.5,0.5-0.8,1-1.1,1.6c-0.3,0.6-0.4,1.3-0.4,2v5.4
		c0,0.7,0.1,1.4,0.4,2s0.6,1.1,1.1,1.6s1,0.8,1.6,1.1c0.6,0.3,1.3,0.4,2,0.4h0.3c1.1,0,2-0.3,2.8-0.8c0.8-0.6,1.4-1.3,1.8-2.2
		c0.1-0.1,0.1-0.3,0.1-0.5c0-0.4-0.1-0.7-0.4-0.9c-0.3-0.2-0.5-0.3-0.8-0.3c-0.2,0-0.4,0.1-0.6,0.2s-0.3,0.3-0.4,0.6
		c-0.2,0.4-0.5,0.8-0.9,1.1s-0.9,0.5-1.5,0.5h-0.3c-0.7,0-1.4-0.3-1.9-0.8s-0.8-1.1-0.8-1.9v-1.6h6.9c0.3,0,0.6-0.1,0.9-0.4
		c0.2-0.2,0.3-0.5,0.3-0.8v-2.7H366.9z M351.2,124.5c0-0.9-0.1-1.6-0.4-2.3c-0.3-0.6-0.7-1.2-1.1-1.6c-0.5-0.4-1-0.7-1.6-0.9
		c-0.6-0.2-1.2-0.3-1.9-0.3h-0.3c-0.8,0-1.5,0.2-2.2,0.5s-1.2,0.8-1.7,1.3c-0.5-0.5-1.1-1-1.7-1.3c-0.7-0.3-1.4-0.5-2.2-0.5h-0.3
		c-0.5,0-1.1,0.1-1.5,0.3c-0.5,0.2-0.9,0.4-1.2,0.7c-0.1-0.3-0.2-0.5-0.4-0.7c-0.2-0.2-0.5-0.2-0.7-0.2c-0.3,0-0.6,0.1-0.9,0.3
		c-0.3,0.2-0.4,0.5-0.4,0.9v13.2c0,0.4,0.1,0.7,0.4,0.9c0.3,0.2,0.5,0.3,0.8,0.3s0.6-0.1,0.8-0.3c0.3-0.2,0.4-0.5,0.4-0.9v-9.5
		c0-0.7,0.3-1.3,0.8-1.8c0.5-0.4,1.2-0.7,1.9-0.7h0.3c0.8,0,1.4,0.3,1.9,0.8s0.8,1.2,0.8,2v9.2c0,0.4,0.1,0.7,0.4,0.9
		c0.3,0.2,0.5,0.3,0.8,0.3s0.6-0.1,0.8-0.3c0.3-0.2,0.4-0.5,0.4-0.9v-9.2c0-0.8,0.3-1.4,0.8-1.9s1.2-0.8,1.9-0.8h0.3
		c0.8,0,1.4,0.2,1.9,0.7c0.5,0.4,0.7,1.1,0.7,2v9.3c0,0.4,0.1,0.7,0.4,0.9c0.3,0.2,0.5,0.3,0.8,0.3s0.6-0.1,0.8-0.3
		c0.3-0.2,0.4-0.5,0.4-0.9L351.2,124.5L351.2,124.5z M327.1,124.5c0-0.9-0.1-1.6-0.4-2.3c-0.3-0.6-0.6-1.2-1.1-1.6s-1-0.7-1.6-0.9
		c-0.6-0.2-1.2-0.3-1.9-0.3h-0.3c-0.8,0-1.5,0.2-2.2,0.5s-1.2,0.8-1.7,1.3c-0.5-0.5-1.1-1-1.7-1.3c-0.7-0.3-1.4-0.5-2.2-0.5h-0.3
		c-0.5,0-1.1,0.1-1.5,0.3c-0.5,0.2-0.9,0.4-1.2,0.7c-0.1-0.3-0.2-0.5-0.4-0.7c-0.2-0.2-0.5-0.2-0.7-0.2c-0.3,0-0.6,0.1-0.9,0.3
		c-0.3,0.2-0.4,0.5-0.4,0.9v13.2c0,0.4,0.1,0.7,0.4,0.9c0.3,0.2,0.5,0.3,0.8,0.3s0.6-0.1,0.8-0.3c0.3-0.2,0.4-0.5,0.4-0.9v-9.5
		c0-0.7,0.3-1.3,0.8-1.8c0.5-0.4,1.2-0.7,1.9-0.7h0.3c0.8,0,1.4,0.3,1.9,0.8s0.8,1.2,0.8,2v9.2c0,0.4,0.1,0.7,0.4,0.9
		c0.3,0.2,0.5,0.3,0.8,0.3s0.6-0.1,0.8-0.3c0.3-0.2,0.4-0.5,0.4-0.9v-9.2c0-0.8,0.3-1.4,0.8-1.9s1.2-0.8,1.9-0.8h0.3
		c0.8,0,1.4,0.2,1.9,0.7c0.5,0.4,0.7,1.1,0.7,2v9.3c0,0.4,0.1,0.7,0.4,0.9c0.3,0.2,0.5,0.3,0.8,0.3s0.6-0.1,0.8-0.3
		c0.3-0.2,0.4-0.5,0.4-0.9L327.1,124.5L327.1,124.5z M299.5,129.9c0,0.8-0.3,1.4-0.8,1.9s-1.2,0.8-1.9,0.8h-0.3
		c-0.8,0-1.4-0.2-1.9-0.6s-0.7-0.9-0.7-1.6v-0.3c0-0.5,0.2-1,0.6-1.3s0.8-0.5,1.4-0.7s1.2-0.3,1.8-0.4c0.7-0.1,1.3-0.2,1.9-0.4v2.6
		H299.5z M303.5,133c-0.2-0.2-0.4-0.4-0.8-0.4c-0.5-0.1-0.8-0.5-0.8-1v-7.3c0-0.7-0.1-1.3-0.4-1.9s-0.6-1.1-1-1.5s-1-0.8-1.6-1
		c-0.6-0.3-1.3-0.4-2-0.4h-0.2c-0.4,0-0.9,0.1-1.3,0.1c-0.4,0.1-0.9,0.3-1.3,0.5s-0.8,0.5-1.2,0.9c-0.4,0.4-0.7,0.9-0.9,1.4
		c-0.1,0.1-0.1,0.3-0.1,0.6c0,0.3,0.1,0.6,0.4,0.8c0.3,0.2,0.5,0.3,0.8,0.3c0.2,0,0.4-0.1,0.6-0.1c0.2-0.1,0.3-0.3,0.5-0.5
		c0.3-0.5,0.6-0.9,1-1.2c0.4-0.3,0.9-0.4,1.5-0.4h0.2c0.7,0,1.3,0.2,1.8,0.6s0.8,1,0.8,2c0,0.1,0,0.2,0,0.3c0,0.1,0,0.2-0.1,0.3
		c-0.1,0.2-0.4,0.3-0.9,0.4s-1,0.2-1.6,0.3c-0.6,0.1-1.2,0.2-1.9,0.4c-0.7,0.2-1.3,0.4-1.8,0.7c-0.5,0.3-1,0.8-1.4,1.3
		s-0.5,1.2-0.5,2v0.4c0,0.7,0.1,1.4,0.4,1.9c0.3,0.6,0.7,1,1.2,1.4s1,0.7,1.6,0.9c0.6,0.2,1.2,0.3,1.9,0.3h0.3
		c1.3,0,2.5-0.4,3.4-1.2c0.2,0.3,0.5,0.5,0.8,0.8s0.8,0.4,1.3,0.4c0,0,0.1,0,0.2,0c0.4,0,0.7-0.1,0.9-0.4c0.2-0.2,0.3-0.5,0.3-0.8
		C303.7,133.5,303.6,133.3,303.5,133 M286.9,130.4c0-1-0.2-1.8-0.6-2.4s-0.9-1-1.5-1.4c-0.6-0.3-1.3-0.6-2-0.7
		c-0.7-0.2-1.4-0.3-2-0.5s-1.1-0.4-1.5-0.6c-0.4-0.3-0.6-0.7-0.6-1.2v-0.1c0-0.5,0.3-0.9,0.7-1.2c0.5-0.3,1.1-0.5,2-0.5h0.1
		c0.7,0,1.3,0.1,1.7,0.3c0.4,0.2,0.8,0.4,1.1,0.6c0.3,0.1,0.5,0.2,0.7,0.2c0.3,0,0.6-0.1,0.8-0.3c0.2-0.2,0.3-0.5,0.3-0.8
		c0-0.4-0.1-0.7-0.4-0.9c-0.1-0.1-0.3-0.2-0.5-0.4c-0.2-0.2-0.5-0.3-0.9-0.4c-0.3-0.1-0.7-0.3-1.2-0.4s-1-0.2-1.5-0.2h-0.1
		c-0.5,0-1.1,0.1-1.7,0.2s-1.2,0.4-1.7,0.7c-0.5,0.3-0.9,0.7-1.3,1.2s-0.5,1.1-0.5,1.9c0,1,0.2,1.7,0.6,2.3c0.4,0.5,0.9,0.9,1.5,1.2
		c0.6,0.3,1.2,0.5,2,0.6c0.7,0.1,1.4,0.3,2,0.5s1.1,0.4,1.5,0.8c0.4,0.3,0.6,0.8,0.6,1.5v0.1c0,0.5-0.3,1-0.8,1.4s-1.3,0.7-2.2,0.7
		h-0.2c-0.6,0-1.2-0.2-1.8-0.6c-0.6-0.4-1.1-0.9-1.5-1.4c-0.1-0.2-0.3-0.3-0.5-0.4s-0.4-0.1-0.6-0.1c-0.3,0-0.6,0.1-0.9,0.3
		c-0.3,0.2-0.4,0.5-0.4,0.9c0,0.1,0.1,0.3,0.2,0.6c0.3,0.5,0.6,0.9,1,1.3s0.8,0.7,1.3,1s1,0.5,1.5,0.6s1.1,0.2,1.6,0.2h0.2
		c0.7,0,1.3-0.1,2-0.3c0.7-0.2,1.2-0.5,1.8-0.8c0.5-0.4,0.9-0.8,1.3-1.4c0.3-0.5,0.5-1.2,0.5-1.9v-0.2H286.9z M270.7,120.6
		c0-0.4-0.1-0.7-0.4-0.9c-0.3-0.2-0.5-0.3-0.8-0.3s-0.6,0.1-0.8,0.3c-0.3,0.2-0.4,0.5-0.4,0.9v9.3c0,0.7-0.3,1.4-0.8,1.9
		s-1.2,0.8-1.9,0.8h-0.3c-0.7,0-1.4-0.3-1.9-0.8s-0.8-1.1-0.8-1.9v-9.3c0-0.4-0.1-0.7-0.4-0.9c-0.3-0.2-0.5-0.3-0.8-0.3
		s-0.6,0.1-0.8,0.3c-0.3,0.2-0.4,0.5-0.4,0.9v9.3c0,0.9,0.1,1.6,0.4,2.3c0.3,0.6,0.6,1.1,1.1,1.6c0.5,0.4,1,0.7,1.6,0.9
		c0.6,0.2,1.3,0.3,1.9,0.3h0.3c0.5,0,1.1-0.1,1.5-0.2c0.5-0.2,0.9-0.4,1.2-0.7c0.1,0.3,0.2,0.5,0.4,0.7c0.2,0.1,0.5,0.2,0.8,0.2
		s0.6-0.1,0.8-0.3c0.3-0.2,0.4-0.5,0.4-0.9L270.7,120.6L270.7,120.6z M255.3,132.8c-0.2-0.3-0.5-0.4-0.9-0.4h-7.9l8.9-17.2
		c0.1-0.3,0.2-0.5,0.2-0.8c0-0.4-0.1-0.7-0.4-1c-0.3-0.3-0.6-0.4-1-0.4h-9c-0.4,0-0.7,0.1-0.9,0.4s-0.3,0.5-0.3,0.8s0.1,0.6,0.3,0.8
		c0.2,0.3,0.5,0.4,0.9,0.4h7.5l-8.9,17.1c-0.1,0.2-0.2,0.5-0.2,0.8c0,0.4,0.1,0.8,0.4,1.1c0.2,0.3,0.6,0.5,1,0.5h9.5
		c0.4,0,0.7-0.1,0.9-0.4s0.3-0.5,0.3-0.8C255.6,133.3,255.5,133,255.3,132.8"/>
	<path class="st0" d="M475.6,91.7h-5.7v-1.6c0-0.8,0.3-1.4,0.8-1.9s1.2-0.8,1.9-0.8h0.3c0.7,0,1.3,0.3,1.8,0.8s0.8,1.2,0.8,1.9v1.6
		H475.6z M478,90.1c0-0.7-0.1-1.4-0.4-2s-0.6-1.2-1.1-1.6c-0.5-0.5-1-0.8-1.6-1.1c-0.6-0.3-1.3-0.4-2-0.4h-0.3c-0.7,0-1.4,0.1-2,0.4
		s-1.2,0.6-1.6,1.1c-0.5,0.5-0.8,1-1.1,1.6c-0.3,0.6-0.4,1.3-0.4,2v5.4c0,0.7,0.1,1.4,0.4,2s0.6,1.1,1.1,1.6s1,0.8,1.6,1.1
		c0.6,0.3,1.3,0.4,2,0.4h0.3c1.1,0,2-0.3,2.8-0.8c0.8-0.6,1.4-1.3,1.8-2.2c0.1-0.1,0.1-0.3,0.1-0.5c0-0.4-0.1-0.7-0.4-0.9
		c-0.3-0.2-0.5-0.3-0.9-0.3c-0.2,0-0.4,0.1-0.6,0.2s-0.3,0.3-0.4,0.6c-0.2,0.4-0.5,0.8-0.9,1.1c-0.4,0.3-0.9,0.5-1.5,0.5h-0.3
		c-0.7,0-1.4-0.3-1.9-0.8s-0.8-1.1-0.8-1.9V94h6.9c0.3,0,0.6-0.1,0.9-0.4c0.2-0.2,0.3-0.5,0.3-0.8V90.1z M462.9,98.5
		c-0.2-0.3-0.5-0.4-0.9-0.4c-0.5,0-0.9-0.2-1.2-0.5c-0.3-0.3-0.5-0.7-0.5-1.2V79.6c0-0.4-0.1-0.7-0.4-0.9c-0.3-0.2-0.5-0.3-0.8-0.3
		s-0.6,0.1-0.8,0.3c-0.3,0.2-0.4,0.5-0.4,0.9v16.8c0,0.6,0.1,1.1,0.3,1.6c0.2,0.5,0.5,0.9,0.9,1.3s0.8,0.7,1.3,0.9
		c0.5,0.2,1,0.3,1.6,0.3c0.4,0,0.7-0.1,0.9-0.4c0.2-0.2,0.3-0.5,0.3-0.8C463.2,99.1,463.1,98.8,462.9,98.5 M448.9,95.5
		c0,0.8-0.3,1.4-0.8,1.9s-1.2,0.8-1.9,0.8h-0.3c-0.8,0-1.4-0.2-1.9-0.6s-0.7-0.9-0.7-1.6v-0.3c0-0.5,0.2-1,0.5-1.3
		c0.4-0.3,0.8-0.5,1.4-0.7s1.2-0.3,1.8-0.4c0.7-0.1,1.3-0.2,1.9-0.4V95.5z M452.9,98.6c-0.2-0.2-0.4-0.4-0.8-0.4
		c-0.5-0.1-0.8-0.5-0.8-1v-7.3c0-0.7-0.1-1.3-0.4-1.9s-0.6-1.1-1-1.5s-1-0.8-1.6-1c-0.6-0.3-1.3-0.4-2-0.4h-0.2
		c-0.4,0-0.9,0.1-1.3,0.1c-0.4,0.1-0.9,0.3-1.3,0.5s-0.8,0.5-1.2,0.9c-0.4,0.4-0.7,0.9-0.9,1.4c-0.1,0.1-0.1,0.3-0.1,0.6
		c0,0.3,0.1,0.6,0.4,0.8c0.3,0.2,0.5,0.3,0.8,0.3c0.2,0,0.4,0,0.6-0.1s0.3-0.3,0.5-0.5c0.3-0.5,0.6-0.9,1-1.2
		c0.4-0.3,0.9-0.4,1.5-0.4h0.2c0.7,0,1.3,0.2,1.8,0.6s0.8,1,0.8,2c0,0.1,0,0.2,0,0.3c0,0.1,0,0.2-0.1,0.3c-0.1,0.2-0.4,0.3-0.9,0.4
		s-1,0.2-1.6,0.3c-0.6,0.1-1.2,0.2-1.9,0.4c-0.7,0.2-1.2,0.4-1.8,0.7c-0.5,0.3-1,0.8-1.4,1.3s-0.5,1.2-0.5,2v0.4
		c0,0.7,0.1,1.4,0.4,2s0.7,1,1.1,1.4c0.5,0.4,1,0.7,1.6,0.9c0.6,0.2,1.2,0.3,1.9,0.3h0.3c1.3,0,2.4-0.4,3.4-1.2
		c0.2,0.3,0.5,0.5,0.8,0.8c0.3,0.2,0.8,0.4,1.3,0.4c0,0,0.1,0,0.2,0c0.4,0,0.7-0.1,0.9-0.4c0.2-0.2,0.3-0.5,0.3-0.8
		C453.1,99.1,453,98.9,452.9,98.6 M435.9,90.1c0-0.9-0.1-1.6-0.4-2.2s-0.6-1.2-1.1-1.6s-1-0.7-1.6-0.9c-0.6-0.2-1.2-0.3-1.9-0.3
		h-0.3c-0.5,0-1.1,0.1-1.5,0.3c-0.5,0.2-0.9,0.4-1.2,0.7c-0.1-0.3-0.2-0.5-0.4-0.7c-0.2-0.2-0.5-0.2-0.8-0.2s-0.6,0.1-0.9,0.3
		c-0.3,0.2-0.4,0.5-0.4,0.9v13c0,0.4,0.1,0.7,0.4,0.9c0.3,0.2,0.5,0.3,0.8,0.3s0.6-0.1,0.8-0.3c0.3-0.2,0.4-0.5,0.4-0.9v-9.3
		c0-0.8,0.3-1.4,0.8-1.9s1.2-0.8,1.9-0.8h0.3c0.7,0,1.4,0.3,1.9,0.8s0.8,1.2,0.8,1.9v9.3c0,0.4,0.1,0.7,0.4,0.9
		c0.3,0.2,0.5,0.3,0.8,0.3s0.6-0.1,0.8-0.3c0.2-0.2,0.4-0.5,0.4-0.9L435.9,90.1L435.9,90.1z M417.6,95.5c0,0.7-0.3,1.4-0.8,1.9
		s-1.2,0.8-1.9,0.8h-0.3c-0.8,0-1.4-0.3-1.9-0.8s-0.8-1.1-0.8-1.9v-5.4c0-0.7,0.3-1.4,0.8-1.9s1.2-0.8,1.9-0.8h0.3
		c0.7,0,1.4,0.3,1.9,0.8s0.8,1.1,0.8,1.9V95.5z M420,90.1c0-0.7-0.1-1.3-0.4-2c-0.3-0.6-0.6-1.2-1.1-1.6c-0.5-0.5-1-0.8-1.6-1.1
		c-0.6-0.3-1.3-0.4-2-0.4h-0.3c-0.7,0-1.4,0.1-2,0.4s-1.2,0.6-1.6,1.1c-0.5,0.5-0.8,1-1.1,1.6c-0.3,0.6-0.4,1.3-0.4,2v5.4
		c0,0.7,0.1,1.4,0.4,2s0.6,1.1,1.1,1.6s1,0.8,1.6,1.1c0.6,0.3,1.3,0.4,2,0.4h0.3c0.7,0,1.3-0.1,2-0.4c0.6-0.3,1.2-0.6,1.6-1.1
		c0.5-0.5,0.8-1,1.1-1.6c0.3-0.6,0.4-1.3,0.4-2V90.1z M403.9,86.2c0-0.4-0.1-0.7-0.4-0.9c-0.3-0.2-0.5-0.3-0.8-0.3s-0.6,0.1-0.8,0.3
		c-0.3,0.2-0.4,0.5-0.4,0.9v13.2c0,0.4,0.1,0.7,0.4,0.9c0.3,0.2,0.5,0.3,0.8,0.3s0.6-0.1,0.8-0.3c0.3-0.2,0.4-0.5,0.4-0.9V86.2z
		 M403.9,79.6c0-0.4-0.1-0.7-0.4-0.9c-0.3-0.2-0.5-0.3-0.8-0.3s-0.6,0.1-0.8,0.3c-0.3,0.2-0.4,0.5-0.4,0.9v0.7
		c0,0.4,0.1,0.7,0.4,0.9c0.3,0.2,0.5,0.3,0.8,0.3s0.6-0.1,0.8-0.3c0.3-0.2,0.4-0.5,0.4-0.9V79.6z M396.2,98.6
		c-0.2-0.2-0.5-0.4-0.8-0.4c-0.5,0-0.9-0.2-1.3-0.5s-0.5-0.7-0.5-1.3v-8.9h1.7c0.4,0,0.7-0.1,0.9-0.4c0.2-0.3,0.3-0.5,0.3-0.8
		s-0.1-0.6-0.3-0.8c-0.2-0.3-0.5-0.4-0.9-0.4h-1.7v-5.5c0-0.4-0.1-0.7-0.4-0.9c-0.3-0.2-0.5-0.3-0.8-0.3s-0.6,0.1-0.8,0.3
		c-0.3,0.2-0.4,0.5-0.4,0.9v5.5H390c-0.4,0-0.7,0.1-0.9,0.4c-0.2,0.3-0.3,0.5-0.3,0.8s0.1,0.6,0.3,0.8c0.2,0.3,0.5,0.4,0.9,0.4h1.1
		v8.9c0,0.6,0.1,1.1,0.3,1.6c0.2,0.5,0.5,0.9,0.9,1.3s0.8,0.7,1.3,0.9c0.5,0.2,1,0.3,1.6,0.3c0.4,0,0.7-0.1,0.9-0.4
		c0.2-0.2,0.3-0.5,0.3-0.8C396.4,99.1,396.3,98.8,396.2,98.6 M381.5,95.5c0,0.8-0.3,1.4-0.8,1.9s-1.2,0.8-1.9,0.8h-0.3
		c-0.8,0-1.4-0.2-1.9-0.6s-0.7-0.9-0.7-1.6v-0.3c0-0.5,0.2-1,0.5-1.3c0.4-0.3,0.8-0.5,1.4-0.7s1.2-0.3,1.8-0.4
		c0.7-0.1,1.3-0.2,1.9-0.4V95.5z M385.5,98.6c-0.2-0.2-0.4-0.4-0.8-0.4c-0.5-0.1-0.8-0.5-0.8-1v-7.3c0-0.7-0.1-1.3-0.4-1.9
		s-0.6-1.1-1-1.5s-1-0.8-1.6-1c-0.6-0.3-1.3-0.4-2-0.4h-0.2c-0.4,0-0.8,0.1-1.3,0.1c-0.4,0.1-0.9,0.3-1.3,0.5s-0.8,0.5-1.2,0.9
		c-0.4,0.4-0.7,0.9-0.9,1.4c-0.1,0.1-0.1,0.3-0.1,0.6c0,0.3,0.1,0.6,0.4,0.8c0.3,0.2,0.5,0.3,0.8,0.3c0.2,0,0.4,0,0.6-0.1
		s0.3-0.3,0.5-0.5c0.3-0.5,0.6-0.9,1-1.2c0.4-0.3,0.9-0.4,1.5-0.4h0.2c0.7,0,1.3,0.2,1.8,0.6s0.8,1,0.8,2c0,0.1,0,0.2,0,0.3
		c0,0.1,0,0.2-0.1,0.3c-0.1,0.2-0.4,0.3-0.9,0.4s-1,0.2-1.6,0.3c-0.6,0.1-1.2,0.2-1.9,0.4c-0.7,0.2-1.2,0.4-1.8,0.7
		c-0.5,0.3-1,0.8-1.4,1.3s-0.5,1.2-0.5,2v0.4c0,0.7,0.1,1.4,0.4,2s0.7,1,1.1,1.4c0.5,0.4,1,0.7,1.6,0.9c0.6,0.2,1.2,0.3,1.9,0.3h0.3
		c1.3,0,2.5-0.4,3.4-1.2c0.2,0.3,0.5,0.5,0.8,0.8c0.3,0.2,0.8,0.4,1.3,0.4c0,0,0.1,0,0.2,0c0.4,0,0.7-0.1,0.9-0.4
		c0.2-0.2,0.3-0.5,0.3-0.8C385.7,99.1,385.6,98.9,385.5,98.6 M368.5,90.1c0-0.9-0.1-1.6-0.4-2.2s-0.6-1.2-1.1-1.6s-1-0.7-1.6-0.9
		c-0.6-0.2-1.3-0.3-1.9-0.3h-0.3c-0.5,0-1.1,0.1-1.5,0.3c-0.5,0.2-0.9,0.4-1.2,0.7c-0.1-0.3-0.2-0.5-0.4-0.7
		c-0.2-0.2-0.5-0.2-0.8-0.2s-0.6,0.1-0.9,0.3c-0.3,0.2-0.4,0.5-0.4,0.9v13c0,0.4,0.1,0.7,0.4,0.9c0.3,0.2,0.5,0.3,0.8,0.3
		s0.6-0.1,0.8-0.3c0.3-0.2,0.4-0.5,0.4-0.9v-9.3c0-0.8,0.3-1.4,0.8-1.9s1.2-0.8,1.9-0.8h0.3c0.8,0,1.4,0.3,1.9,0.8s0.8,1.2,0.8,1.9
		v9.3c0,0.4,0.1,0.7,0.4,0.9c0.3,0.2,0.5,0.3,0.8,0.3s0.6-0.1,0.8-0.3c0.3-0.2,0.4-0.5,0.4-0.9L368.5,90.1L368.5,90.1z M353.7,86.6
		c-0.4-0.5-0.9-0.9-1.5-1.2c-0.6-0.2-1.2-0.4-1.8-0.4c-0.4,0-0.8,0-1,0.1c-0.3,0.1-0.5,0.1-0.7,0.2s-0.4,0.2-0.5,0.3
		c-0.1-0.2-0.3-0.4-0.4-0.5c-0.2-0.1-0.4-0.1-0.6-0.1c-0.3,0-0.6,0.1-0.8,0.3c-0.3,0.2-0.4,0.5-0.4,0.9v13.1c0,0.4,0.1,0.7,0.4,0.9
		c0.3,0.2,0.5,0.3,0.8,0.3s0.6-0.1,0.8-0.3c0.3-0.2,0.4-0.5,0.4-0.9v-9.8c0-0.3,0-0.5,0.1-0.8c0-0.3,0.1-0.5,0.3-0.7
		c0.1-0.2,0.4-0.4,0.6-0.5c0.3-0.1,0.7-0.2,1.1-0.2s0.7,0.1,0.9,0.2c0.2,0.2,0.4,0.3,0.5,0.4c0.3,0.3,0.6,0.4,1,0.4
		c0.3,0,0.6-0.1,0.8-0.3c0.2-0.2,0.3-0.5,0.3-0.8C354,87.1,353.9,86.9,353.7,86.6 M338.4,91.7h-5.7v-1.6c0-0.8,0.3-1.4,0.8-1.9
		s1.2-0.8,1.9-0.8h0.3c0.7,0,1.3,0.3,1.8,0.8s0.8,1.2,0.8,1.9v1.6H338.4z M340.8,90.1c0-0.7-0.1-1.4-0.4-2s-0.6-1.2-1.1-1.6
		c-0.5-0.5-1-0.8-1.6-1.1c-0.6-0.3-1.3-0.4-2-0.4h-0.3c-0.7,0-1.3,0.1-2,0.4c-0.6,0.3-1.2,0.6-1.6,1.1c-0.5,0.5-0.8,1-1.1,1.6
		c-0.3,0.6-0.4,1.3-0.4,2v5.4c0,0.7,0.1,1.4,0.4,2s0.6,1.1,1.1,1.6s1,0.8,1.6,1.1c0.6,0.3,1.3,0.4,2,0.4h0.3c1.1,0,2-0.3,2.8-0.8
		c0.8-0.6,1.4-1.3,1.8-2.2c0.1-0.1,0.1-0.3,0.1-0.5c0-0.4-0.1-0.7-0.4-0.9c-0.3-0.2-0.5-0.3-0.9-0.3c-0.2,0-0.4,0.1-0.6,0.2
		s-0.3,0.3-0.4,0.6c-0.2,0.4-0.5,0.8-0.9,1.1c-0.4,0.3-0.9,0.5-1.5,0.5h-0.3c-0.7,0-1.4-0.3-1.9-0.8s-0.8-1.1-0.8-1.9V94h6.9
		c0.3,0,0.6-0.1,0.9-0.4c0.2-0.2,0.3-0.5,0.3-0.8V90.1z M325.7,98.6c-0.2-0.2-0.5-0.4-0.8-0.4c-0.5,0-0.9-0.2-1.3-0.5
		s-0.5-0.7-0.5-1.3v-8.9h1.7c0.4,0,0.7-0.1,0.9-0.4c0.2-0.3,0.3-0.5,0.3-0.8s-0.1-0.6-0.3-0.8c-0.2-0.3-0.5-0.4-0.9-0.4h-1.7v-5.5
		c0-0.4-0.1-0.7-0.4-0.9c-0.3-0.2-0.5-0.3-0.8-0.3s-0.6,0.1-0.8,0.3c-0.3,0.2-0.4,0.5-0.4,0.9v5.5h-1.1c-0.4,0-0.7,0.1-0.9,0.4
		c-0.2,0.3-0.3,0.5-0.3,0.8s0.1,0.6,0.3,0.8c0.2,0.3,0.5,0.4,0.9,0.4h1.1v8.9c0,0.6,0.1,1.1,0.3,1.6c0.2,0.5,0.5,0.9,0.9,1.3
		s0.8,0.7,1.3,0.9c0.5,0.2,1,0.3,1.6,0.3c0.4,0,0.7-0.1,0.9-0.4c0.2-0.2,0.3-0.5,0.3-0.8C326,99.1,325.9,98.8,325.7,98.6
		 M313.9,90.1c0-0.9-0.1-1.6-0.4-2.2s-0.6-1.2-1.1-1.6s-1-0.7-1.6-0.9c-0.6-0.2-1.3-0.3-1.9-0.3h-0.3c-0.5,0-1.1,0.1-1.5,0.3
		c-0.5,0.2-0.9,0.4-1.2,0.7c-0.1-0.3-0.2-0.5-0.4-0.7c-0.2-0.2-0.5-0.2-0.8-0.2s-0.6,0.1-0.9,0.3c-0.3,0.2-0.4,0.5-0.4,0.9v13
		c0,0.4,0.1,0.7,0.4,0.9c0.3,0.2,0.5,0.3,0.8,0.3s0.6-0.1,0.8-0.3c0.3-0.2,0.4-0.5,0.4-0.9v-9.3c0-0.8,0.3-1.4,0.8-1.9
		s1.2-0.8,1.9-0.8h0.3c0.7,0,1.4,0.3,1.9,0.8s0.8,1.2,0.8,1.9v9.3c0,0.4,0.1,0.7,0.4,0.9c0.3,0.2,0.5,0.3,0.8,0.3s0.6-0.1,0.8-0.3
		c0.3-0.2,0.4-0.5,0.4-0.9L313.9,90.1L313.9,90.1z M297.1,79.6c0-0.4-0.1-0.7-0.4-0.9s-0.5-0.3-0.8-0.3s-0.6,0.1-0.8,0.3
		c-0.3,0.2-0.4,0.5-0.4,0.9v19.8c0,0.4,0.1,0.7,0.4,0.9c0.3,0.2,0.5,0.3,0.8,0.3s0.6-0.1,0.8-0.3s0.4-0.5,0.4-0.9V79.6z M279.2,86.6
		c-0.4-0.5-0.9-0.9-1.5-1.2c-0.6-0.2-1.2-0.4-1.8-0.4c-0.4,0-0.8,0-1,0.1c-0.3,0.1-0.5,0.1-0.7,0.2s-0.4,0.2-0.5,0.3
		c-0.1-0.2-0.3-0.4-0.4-0.5c-0.2-0.1-0.4-0.1-0.6-0.1c-0.3,0-0.6,0.1-0.8,0.3c-0.3,0.2-0.4,0.5-0.4,0.9v13.1c0,0.4,0.1,0.7,0.4,0.9
		c0.3,0.2,0.5,0.3,0.8,0.3s0.6-0.1,0.8-0.3c0.3-0.2,0.4-0.5,0.4-0.9v-9.8c0-0.3,0-0.5,0.1-0.8c0-0.3,0.1-0.5,0.3-0.7
		c0.1-0.2,0.4-0.4,0.6-0.5c0.3-0.1,0.7-0.2,1.1-0.2s0.7,0.1,0.9,0.2c0.2,0.2,0.4,0.3,0.5,0.4c0.3,0.3,0.6,0.4,1,0.4
		c0.3,0,0.6-0.1,0.8-0.3c0.2-0.2,0.3-0.5,0.3-0.8C279.5,87.1,279.4,86.9,279.2,86.6 M265.7,86.2c0-0.4-0.1-0.7-0.4-0.9
		c-0.3-0.2-0.5-0.3-0.8-0.3s-0.6,0.1-0.8,0.3c-0.3,0.2-0.4,0.5-0.4,0.9v9.3c0,0.7-0.3,1.4-0.8,1.9s-1.2,0.8-1.9,0.8h-0.3
		c-0.7,0-1.4-0.3-1.9-0.8s-0.8-1.1-0.8-1.9v-9.3c0-0.4-0.1-0.7-0.4-0.9c-0.3-0.2-0.5-0.3-0.8-0.3s-0.6,0.1-0.8,0.3
		c-0.3,0.2-0.4,0.5-0.4,0.9v9.3c0,0.9,0.1,1.6,0.4,2.3c0.3,0.6,0.6,1.2,1.1,1.6s1,0.7,1.6,0.9c0.6,0.2,1.3,0.3,1.9,0.3h0.3
		c0.5,0,1.1-0.1,1.5-0.2c0.5-0.2,0.9-0.4,1.2-0.7c0.1,0.3,0.2,0.6,0.4,0.7c0.2,0.1,0.5,0.2,0.8,0.2s0.6-0.1,0.8-0.3
		c0.3-0.2,0.4-0.5,0.4-0.9L265.7,86.2L265.7,86.2z M258.8,79.6c0-0.4-0.1-0.7-0.4-0.9c-0.3-0.2-0.5-0.3-0.8-0.3s-0.6,0.1-0.8,0.3
		c-0.3,0.2-0.4,0.5-0.4,0.9v0.7c0,0.4,0.1,0.7,0.4,0.9c0.3,0.2,0.5,0.3,0.8,0.3s0.6-0.1,0.8-0.3c0.3-0.2,0.4-0.5,0.4-0.9V79.6z
		 M264.6,79.6c0-0.4-0.1-0.7-0.4-0.9c-0.3-0.2-0.5-0.3-0.8-0.3s-0.6,0.1-0.8,0.3c-0.2,0.2-0.4,0.5-0.4,0.9v0.7
		c0,0.4,0.1,0.7,0.4,0.9c0.3,0.2,0.5,0.3,0.8,0.3s0.6-0.1,0.8-0.3c0.3-0.2,0.4-0.5,0.4-0.9V79.6z M250.6,78.8
		c-0.2-0.3-0.5-0.4-0.9-0.4c-0.6,0-1.1,0.1-1.6,0.3c-0.5,0.2-0.9,0.5-1.3,0.9c-0.4,0.4-0.7,0.8-0.9,1.3s-0.3,1.1-0.3,1.6V85h-0.7
		c-0.4,0-0.7,0.1-0.9,0.4s-0.3,0.5-0.3,0.8s0.1,0.6,0.3,0.8c0.2,0.3,0.5,0.4,0.9,0.4h0.7v12c0,0.4,0.1,0.7,0.4,0.9
		c0.3,0.2,0.5,0.3,0.8,0.3s0.6-0.1,0.8-0.3c0.3-0.2,0.4-0.5,0.4-0.9V87.5h1.5c0.4,0,0.7-0.1,0.9-0.4s0.3-0.5,0.3-0.8
		s-0.1-0.6-0.3-0.8c-0.2-0.3-0.5-0.4-0.9-0.4H248v-2.5c0-0.5,0.2-0.9,0.5-1.2c0.3-0.3,0.7-0.5,1.2-0.5c0.4,0,0.7-0.1,0.9-0.4
		s0.3-0.5,0.3-0.8C250.9,79.3,250.8,79.1,250.6,78.8"/>
	<path class="st0" d="M542.4,64.2c-0.2-0.2-0.5-0.4-0.8-0.4c-0.5,0-0.9-0.2-1.3-0.5c-0.4-0.3-0.6-0.7-0.6-1.3v-8.9h1.7
		c0.4,0,0.7-0.1,0.9-0.4s0.3-0.5,0.3-0.8s-0.1-0.6-0.3-0.8c-0.2-0.3-0.5-0.4-0.9-0.4h-1.7v-5.5c0-0.4-0.1-0.7-0.4-0.9
		c-0.3-0.2-0.5-0.3-0.8-0.3s-0.6,0.1-0.8,0.3c-0.3,0.2-0.4,0.5-0.4,0.9v5.5h-1.1c-0.4,0-0.7,0.1-0.9,0.4s-0.3,0.5-0.3,0.8
		s0.1,0.6,0.3,0.8c0.2,0.3,0.5,0.4,0.9,0.4h1.1V62c0,0.6,0.1,1.1,0.3,1.6s0.5,0.9,0.9,1.3s0.8,0.7,1.3,0.9c0.5,0.2,1,0.3,1.6,0.3
		c0.4,0,0.7-0.1,0.9-0.4s0.3-0.5,0.3-0.8C542.7,64.7,542.6,64.4,542.4,64.2 M532.1,44.4c-0.2-0.3-0.5-0.4-0.9-0.4
		c-0.6,0-1.1,0.1-1.6,0.3c-0.5,0.2-0.9,0.5-1.3,0.9c-0.4,0.4-0.6,0.8-0.8,1.3s-0.3,1.1-0.3,1.6v2.5h-0.7c-0.4,0-0.7,0.1-0.9,0.4
		s-0.3,0.5-0.3,0.8s0.1,0.6,0.3,0.8c0.2,0.3,0.5,0.4,0.9,0.4h0.7v11.9c0,0.4,0.1,0.7,0.4,0.9c0.3,0.2,0.5,0.3,0.8,0.3
		s0.6-0.1,0.8-0.3c0.3-0.2,0.4-0.5,0.4-0.9V53h1.5c0.4,0,0.7-0.1,0.9-0.4s0.3-0.5,0.3-0.8s-0.1-0.6-0.3-0.8
		c-0.2-0.3-0.5-0.4-0.9-0.4h-1.5v-2.5c0-0.5,0.1-0.9,0.5-1.2c0.3-0.3,0.7-0.5,1.2-0.5c0.4,0,0.7-0.1,0.9-0.4s0.3-0.5,0.3-0.8
		C532.4,44.9,532.3,44.7,532.1,44.4 M517.6,61.1c0,0.8-0.3,1.4-0.8,1.9s-1.2,0.8-1.9,0.8h-0.3c-0.8,0-1.4-0.2-1.9-0.6
		s-0.7-0.9-0.7-1.6v-0.3c0-0.5,0.2-1,0.6-1.3c0.4-0.3,0.8-0.5,1.4-0.7c0.6-0.2,1.2-0.3,1.8-0.4c0.7-0.1,1.3-0.2,1.9-0.4L517.6,61.1
		L517.6,61.1z M521.6,64.2c-0.2-0.2-0.4-0.4-0.8-0.4c-0.5-0.1-0.8-0.5-0.8-1v-7.3c0-0.7-0.1-1.3-0.4-1.9c-0.3-0.6-0.6-1.1-1-1.5
		s-1-0.8-1.6-1c-0.6-0.3-1.3-0.4-2-0.4h-0.2c-0.4,0-0.9,0-1.3,0.1c-0.4,0.1-0.9,0.3-1.3,0.5c-0.4,0.2-0.8,0.5-1.2,0.9
		c-0.4,0.4-0.7,0.9-0.9,1.4c-0.1,0.1-0.1,0.3-0.1,0.6c0,0.3,0.1,0.6,0.4,0.8c0.3,0.2,0.5,0.3,0.8,0.3c0.2,0,0.4,0,0.6-0.1
		s0.3-0.3,0.5-0.5c0.3-0.5,0.6-0.9,1-1.2c0.4-0.3,0.9-0.4,1.5-0.4h0.2c0.7,0,1.3,0.2,1.8,0.6s0.8,1,0.8,2c0,0.1,0,0.2,0,0.3
		c0,0.1,0,0.2-0.1,0.3c-0.1,0.2-0.4,0.3-0.9,0.4s-1,0.2-1.6,0.3c-0.6,0.1-1.2,0.2-1.9,0.4c-0.7,0.2-1.2,0.4-1.8,0.7
		c-0.5,0.3-1,0.8-1.4,1.3s-0.5,1.2-0.5,2v0.4c0,0.7,0.1,1.4,0.4,2s0.7,1,1.2,1.4s1,0.7,1.6,0.9s1.2,0.3,1.9,0.3h0.3
		c1.3,0,2.5-0.4,3.4-1.2c0.2,0.3,0.5,0.5,0.8,0.8c0.3,0.2,0.8,0.4,1.3,0.4c0,0,0.1,0,0.2,0c0.4,0,0.7-0.1,0.9-0.4
		c0.2-0.2,0.3-0.5,0.3-0.8C521.8,64.7,521.7,64.5,521.6,64.2 M504.7,55.7c0-0.7-0.1-1.4-0.4-2s-0.6-1.2-1.1-1.6
		c-0.5-0.5-1-0.8-1.6-1.1c-0.6-0.3-1.3-0.4-2-0.4h-0.3c-0.5,0-1.1,0.1-1.6,0.3c-0.5,0.2-0.9,0.4-1.2,0.7v-6.3c0-0.4-0.1-0.7-0.4-0.9
		c-0.3-0.2-0.5-0.3-0.8-0.3s-0.6,0.1-0.8,0.3c-0.3,0.2-0.4,0.5-0.4,0.9V65c0,0.4,0.1,0.7,0.4,0.9c0.3,0.2,0.5,0.3,0.8,0.3
		s0.6-0.1,0.8-0.3c0.3-0.2,0.4-0.5,0.4-0.9v-9.4c0-0.4,0.1-0.8,0.3-1.1c0.2-0.3,0.4-0.6,0.6-0.8c0.3-0.2,0.6-0.4,0.9-0.5
		s0.7-0.2,1.1-0.2c0.3,0,0.7,0.1,1,0.2s0.6,0.3,0.9,0.5s0.5,0.5,0.6,0.8c0.2,0.3,0.2,0.7,0.2,1.2V65c0,0.4,0.1,0.7,0.4,0.9
		c0.3,0.2,0.5,0.3,0.8,0.3s0.6-0.1,0.8-0.3c0.3-0.2,0.4-0.5,0.4-0.9v-9.3H504.7z M488.8,60.1c-0.3-0.2-0.5-0.3-0.8-0.3
		s-0.6,0.1-0.8,0.3c-0.2,0.2-0.4,0.5-0.4,0.9c0,0.7-0.3,1.4-0.8,1.9s-1.1,0.8-1.9,0.8h-0.3c-0.8,0-1.4-0.3-1.9-0.8s-0.8-1.2-0.8-1.9
		v-5.4c0-0.7,0.3-1.4,0.8-1.9s1.2-0.8,1.9-0.8h0.3c0.7,0,1.4,0.3,1.9,0.8s0.8,1.2,0.8,2c0,0.4,0.2,0.7,0.4,0.9
		c0.2,0.2,0.5,0.3,0.8,0.3s0.6-0.1,0.8-0.3c0.3-0.2,0.4-0.5,0.4-0.9c0-0.7-0.1-1.4-0.4-2s-0.6-1.2-1.1-1.6c-0.5-0.5-1-0.8-1.6-1.1
		c-0.6-0.3-1.3-0.4-2-0.4h-0.3c-0.7,0-1.4,0.1-2,0.4s-1.2,0.6-1.6,1.1s-0.8,1-1.1,1.6c-0.3,0.6-0.4,1.3-0.4,2v5.4
		c0,0.7,0.1,1.4,0.4,2s0.6,1.1,1.1,1.6s1,0.8,1.6,1.1c0.6,0.3,1.3,0.4,2,0.4h0.3c0.7,0,1.3-0.1,2-0.4c0.6-0.3,1.2-0.6,1.6-1.1
		c0.5-0.5,0.8-1,1.1-1.6c0.3-0.6,0.4-1.3,0.4-2C489.2,60.7,489.1,60.3,488.8,60.1 M473.9,61.6c0-1-0.2-1.8-0.6-2.4s-0.9-1-1.5-1.4
		c-0.6-0.3-1.3-0.6-2-0.7c-0.7-0.2-1.4-0.3-2-0.5s-1.1-0.4-1.5-0.6c-0.4-0.3-0.6-0.7-0.6-1.2v-0.1c0-0.5,0.3-0.9,0.7-1.2
		c0.5-0.3,1.1-0.5,2-0.5h0.1c0.7,0,1.3,0.1,1.7,0.3c0.4,0.2,0.8,0.4,1.1,0.5c0.3,0.1,0.5,0.2,0.7,0.2c0.3,0,0.6-0.1,0.8-0.3
		c0.2-0.2,0.3-0.5,0.3-0.8c0-0.4-0.1-0.7-0.4-0.9c-0.1-0.1-0.3-0.2-0.5-0.4c-0.2-0.2-0.5-0.3-0.9-0.5c-0.3-0.1-0.7-0.3-1.2-0.4
		s-1-0.2-1.5-0.2h-0.1c-0.5,0-1.1,0.1-1.7,0.2s-1.2,0.4-1.7,0.7c-0.5,0.3-0.9,0.7-1.3,1.2s-0.5,1.1-0.5,1.9c0,1,0.2,1.7,0.6,2.3
		c0.4,0.5,0.9,0.9,1.5,1.2c0.6,0.3,1.3,0.5,2,0.6s1.4,0.3,2,0.5s1.1,0.5,1.5,0.8s0.6,0.8,0.6,1.5v0.1c0,0.5-0.3,1-0.8,1.4
		s-1.2,0.7-2.2,0.7h-0.2c-0.6,0-1.2-0.2-1.8-0.6c-0.6-0.4-1.1-0.9-1.5-1.4c-0.1-0.2-0.3-0.4-0.5-0.4c-0.2-0.1-0.4-0.1-0.6-0.1
		c-0.3,0-0.6,0.1-0.8,0.3c-0.3,0.2-0.4,0.5-0.4,0.9c0,0.1,0.1,0.3,0.2,0.6c0.3,0.5,0.6,0.9,1,1.3s0.8,0.7,1.3,1s1,0.5,1.5,0.6
		s1.1,0.2,1.6,0.2h0.2c0.7,0,1.3-0.1,2-0.3c0.7-0.2,1.2-0.5,1.8-0.8c0.5-0.4,0.9-0.8,1.3-1.4c0.3-0.5,0.5-1.2,0.5-1.9v0H473.9z
		 M458.4,64.1c-0.2-0.3-0.5-0.4-0.9-0.4c-0.5,0-0.9-0.2-1.2-0.5c-0.3-0.3-0.5-0.7-0.5-1.2V45.2c0-0.4-0.1-0.7-0.4-0.9
		c-0.3-0.2-0.5-0.3-0.8-0.3s-0.6,0.1-0.8,0.3c-0.3,0.2-0.4,0.5-0.4,0.9V62c0,0.6,0.1,1.1,0.3,1.6c0.2,0.5,0.5,0.9,0.9,1.3
		s0.8,0.7,1.3,0.9c0.5,0.2,1,0.3,1.6,0.3c0.4,0,0.7-0.1,0.9-0.4c0.2-0.3,0.3-0.5,0.3-0.8C458.6,64.7,458.5,64.4,458.4,64.1
		 M448.5,64.1c-0.2-0.3-0.5-0.4-0.9-0.4c-0.5,0-0.9-0.2-1.2-0.5c-0.3-0.3-0.5-0.7-0.5-1.2V45.2c0-0.4-0.1-0.7-0.4-0.9
		c-0.3-0.2-0.5-0.3-0.8-0.3s-0.6,0.1-0.8,0.3c-0.3,0.2-0.4,0.5-0.4,0.9V62c0,0.6,0.1,1.1,0.3,1.6c0.2,0.5,0.5,0.9,0.9,1.3
		s0.8,0.7,1.3,0.9c0.5,0.2,1,0.3,1.6,0.3c0.4,0,0.7-0.1,0.9-0.4c0.2-0.3,0.3-0.5,0.3-0.8C448.8,64.7,448.7,64.4,448.5,64.1
		 M435.7,57.3H430v-1.6c0-0.8,0.3-1.4,0.8-1.9s1.2-0.8,1.9-0.8h0.3c0.7,0,1.3,0.3,1.8,0.8s0.8,1.2,0.8,2v1.5H435.7z M438.1,55.7
		c0-0.7-0.1-1.4-0.4-2s-0.6-1.2-1.1-1.6c-0.5-0.5-1-0.8-1.6-1.1c-0.6-0.3-1.3-0.4-2-0.4h-0.3c-0.7,0-1.4,0.1-2,0.4s-1.2,0.6-1.6,1.1
		c-0.5,0.5-0.8,1-1.1,1.6s-0.4,1.3-0.4,2v5.4c0,0.7,0.1,1.4,0.4,2s0.6,1.1,1.1,1.6s1,0.8,1.6,1.1c0.6,0.3,1.3,0.4,2,0.4h0.3
		c1.1,0,2-0.3,2.8-0.8s1.4-1.3,1.8-2.2c0.1-0.1,0.1-0.3,0.1-0.5c0-0.4-0.1-0.7-0.4-0.9c-0.3-0.2-0.5-0.3-0.9-0.3
		c-0.2,0-0.4,0.1-0.6,0.2s-0.3,0.3-0.4,0.6c-0.2,0.4-0.5,0.8-0.9,1.1c-0.4,0.3-0.9,0.5-1.5,0.5h-0.3c-0.7,0-1.4-0.3-1.9-0.8
		S430,62,430,61.2v-1.6h6.9c0.3,0,0.6-0.1,0.9-0.4c0.2-0.2,0.3-0.5,0.3-0.8V55.7z M422.8,61.6c0-1-0.2-1.8-0.6-2.4s-0.9-1-1.5-1.4
		c-0.6-0.3-1.3-0.6-2-0.7c-0.7-0.2-1.4-0.3-2-0.5s-1.1-0.4-1.5-0.6c-0.4-0.3-0.6-0.7-0.6-1.2v-0.1c0-0.5,0.3-0.9,0.7-1.2
		c0.5-0.3,1.1-0.5,2-0.5h0.1c0.7,0,1.3,0.1,1.7,0.3c0.4,0.2,0.8,0.4,1.1,0.5c0.3,0.1,0.5,0.2,0.7,0.2c0.3,0,0.6-0.1,0.8-0.3
		c0.2-0.2,0.3-0.5,0.3-0.8c0-0.4-0.1-0.7-0.4-0.9c-0.1-0.1-0.3-0.2-0.5-0.4c-0.2-0.2-0.5-0.3-0.9-0.5c-0.3-0.1-0.7-0.3-1.2-0.4
		s-0.9-0.2-1.5-0.2h-0.1c-0.5,0-1.1,0.1-1.7,0.2s-1.2,0.4-1.7,0.7c-0.5,0.3-0.9,0.7-1.3,1.2s-0.5,1.1-0.5,1.9c0,1,0.2,1.7,0.6,2.3
		c0.4,0.5,0.9,0.9,1.5,1.2c0.6,0.3,1.3,0.5,2,0.6s1.4,0.3,2,0.5s1.1,0.5,1.5,0.8s0.6,0.8,0.6,1.5v0.1c0,0.5-0.3,1-0.8,1.4
		s-1.2,0.7-2.2,0.7h-0.2c-0.6,0-1.2-0.2-1.8-0.6c-0.6-0.4-1.1-0.9-1.5-1.4c-0.1-0.2-0.3-0.4-0.5-0.4c-0.2-0.1-0.4-0.1-0.6-0.1
		c-0.3,0-0.6,0.1-0.9,0.3c-0.3,0.2-0.4,0.5-0.4,0.9c0,0.1,0.1,0.3,0.2,0.6c0.3,0.5,0.6,0.9,1,1.3s0.8,0.7,1.3,1s1,0.5,1.5,0.6
		s1.1,0.2,1.6,0.2h0.2c0.7,0,1.3-0.1,2-0.3c0.7-0.2,1.2-0.5,1.8-0.8c0.5-0.4,0.9-0.8,1.3-1.4c0.3-0.5,0.5-1.2,0.5-1.9v0H422.8z
		 M404.7,57.3H399v-1.6c0-0.8,0.3-1.4,0.8-1.9s1.2-0.8,1.9-0.8h0.3c0.7,0,1.3,0.3,1.8,0.8s0.8,1.2,0.8,2v1.5H404.7z M407.1,55.7
		c0-0.7-0.1-1.4-0.4-2s-0.6-1.2-1.1-1.6c-0.5-0.5-1-0.8-1.6-1.1c-0.6-0.3-1.3-0.4-2-0.4h-0.3c-0.7,0-1.3,0.1-2,0.4
		c-0.6,0.3-1.2,0.6-1.6,1.1c-0.5,0.5-0.8,1-1.1,1.6s-0.4,1.3-0.4,2v5.4c0,0.7,0.1,1.4,0.4,2s0.6,1.1,1.1,1.6s1,0.8,1.6,1.1
		c0.6,0.3,1.3,0.4,2,0.4h0.3c1.1,0,2-0.3,2.8-0.8s1.4-1.3,1.8-2.2c0.1-0.1,0.1-0.3,0.1-0.5c0-0.4-0.1-0.7-0.4-0.9
		c-0.3-0.2-0.5-0.3-0.9-0.3c-0.2,0-0.4,0.1-0.6,0.2s-0.3,0.3-0.4,0.6c-0.2,0.4-0.5,0.8-0.9,1.1c-0.4,0.3-0.9,0.5-1.5,0.5h-0.3
		c-0.7,0-1.4-0.3-1.9-0.8S399,62,399,61.2v-1.6h6.9c0.3,0,0.6-0.1,0.9-0.4c0.2-0.2,0.3-0.5,0.3-0.8V55.7z M391.1,55.3
		c0-0.3-0.1-0.6-0.4-0.8c-0.2-0.2-0.5-0.4-0.8-0.4h-4.5c-0.4,0-0.7,0.1-0.9,0.4c-0.2,0.3-0.3,0.5-0.3,0.8s0.1,0.6,0.3,0.8
		c0.2,0.3,0.5,0.4,0.9,0.4h3.3v3.7c0,0.5-0.1,1-0.3,1.4c-0.2,0.4-0.5,0.8-0.8,1.1c-0.3,0.3-0.7,0.6-1.1,0.8
		c-0.4,0.2-0.9,0.3-1.4,0.3h-0.3c-0.5,0-1-0.1-1.4-0.3c-0.4-0.2-0.8-0.5-1.1-0.8c-0.3-0.3-0.6-0.7-0.8-1.1c-0.2-0.4-0.3-0.9-0.3-1.4
		V50c0-0.5,0.1-0.9,0.3-1.4c0.2-0.4,0.4-0.8,0.8-1.1c0.3-0.3,0.7-0.6,1.1-0.8c0.4-0.2,0.9-0.3,1.4-0.3h0.3c1,0,1.8,0.3,2.4,0.9
		s1,1.3,1.1,2.2c0.1,0.4,0.2,0.6,0.4,0.8c0.2,0.2,0.5,0.2,0.8,0.2s0.6-0.1,0.8-0.3c0.3-0.2,0.4-0.5,0.4-0.9v-0.2
		c-0.1-0.7-0.3-1.4-0.7-2c-0.3-0.6-0.8-1.2-1.3-1.6c-0.5-0.5-1.1-0.8-1.8-1.1c-0.7-0.3-1.4-0.4-2.2-0.4h-0.3c-0.8,0-1.6,0.2-2.3,0.5
		c-0.7,0.3-1.4,0.7-1.9,1.3c-0.5,0.5-1,1.2-1.3,1.9c-0.3,0.7-0.5,1.5-0.5,2.3v10.2c0,0.8,0.2,1.6,0.5,2.4c0.3,0.7,0.7,1.3,1.3,1.9
		c0.5,0.5,1.2,1,1.9,1.3c0.7,0.3,1.5,0.5,2.3,0.5h0.3c0.8,0,1.6-0.2,2.3-0.5c0.7-0.3,1.4-0.7,1.9-1.3c0.5-0.5,1-1.2,1.3-1.9
		c0.3-0.7,0.5-1.5,0.5-2.4v-4.9H391.1z M360.9,57.3h-5.7v-1.6c0-0.8,0.3-1.4,0.8-1.9s1.2-0.8,1.9-0.8h0.3c0.7,0,1.3,0.3,1.8,0.8
		s0.8,1.2,0.8,2v1.5H360.9z M363.3,55.7c0-0.7-0.1-1.4-0.4-2s-0.6-1.2-1.1-1.6c-0.5-0.5-1-0.8-1.6-1.1c-0.6-0.3-1.3-0.4-2-0.4h-0.3
		c-0.7,0-1.3,0.1-2,0.4c-0.6,0.3-1.2,0.6-1.6,1.1c-0.5,0.5-0.8,1-1.1,1.6c-0.3,0.6-0.4,1.3-0.4,2v5.4c0,0.7,0.1,1.4,0.4,2
		s0.6,1.1,1.1,1.6s1,0.8,1.6,1.1c0.6,0.3,1.3,0.4,2,0.4h0.3c1.1,0,2-0.3,2.8-0.8s1.4-1.3,1.8-2.2c0.1-0.1,0.1-0.3,0.1-0.5
		c0-0.4-0.1-0.7-0.4-0.9c-0.3-0.2-0.5-0.3-0.9-0.3c-0.2,0-0.4,0.1-0.6,0.2s-0.3,0.3-0.4,0.6c-0.2,0.4-0.5,0.8-0.9,1.1
		c-0.4,0.3-0.9,0.5-1.5,0.5h-0.3c-0.7,0-1.4-0.3-1.9-0.8s-0.8-1.1-0.8-1.9v-1.6h6.9c0.3,0,0.6-0.1,0.9-0.4c0.2-0.2,0.3-0.5,0.3-0.8
		V55.7z M347.7,55.7c0-0.7-0.1-1.4-0.4-2s-0.6-1.2-1.1-1.6c-0.5-0.5-1-0.8-1.6-1.1c-0.6-0.3-1.3-0.4-2-0.4h-0.3
		c-0.5,0-1.1,0.1-1.6,0.3c-0.5,0.2-0.9,0.4-1.2,0.7v-6.3c0-0.4-0.1-0.7-0.4-0.9c-0.3-0.2-0.5-0.3-0.8-0.3s-0.6,0.1-0.8,0.3
		c-0.3,0.2-0.4,0.5-0.4,0.9V65c0,0.4,0.1,0.7,0.4,0.9c0.3,0.2,0.5,0.3,0.8,0.3s0.6-0.1,0.8-0.3c0.3-0.2,0.4-0.5,0.4-0.9v-9.4
		c0-0.4,0.1-0.8,0.3-1.1c0.2-0.3,0.4-0.6,0.7-0.8c0.3-0.2,0.6-0.4,0.9-0.5s0.7-0.2,1.1-0.2c0.3,0,0.7,0.1,1,0.2s0.6,0.3,0.9,0.5
		s0.5,0.5,0.7,0.8s0.2,0.7,0.2,1.2V65c0,0.4,0.1,0.7,0.4,0.9c0.3,0.2,0.5,0.3,0.8,0.3s0.6-0.1,0.8-0.3c0.3-0.2,0.4-0.5,0.4-0.9
		L347.7,55.7L347.7,55.7z M331.5,60.1c-0.3-0.2-0.5-0.3-0.8-0.3s-0.6,0.1-0.8,0.3c-0.2,0.2-0.4,0.5-0.4,0.9c0,0.7-0.3,1.4-0.8,1.9
		s-1.1,0.8-1.9,0.8h-0.3c-0.8,0-1.4-0.3-1.9-0.8s-0.8-1.2-0.8-1.9v-5.4c0-0.7,0.3-1.4,0.8-1.9s1.2-0.8,1.9-0.8h0.3
		c0.7,0,1.4,0.3,1.9,0.8s0.8,1.2,0.8,2c0,0.4,0.2,0.7,0.4,0.9c0.2,0.2,0.5,0.3,0.8,0.3s0.6-0.1,0.8-0.3c0.3-0.2,0.4-0.5,0.4-0.9
		c0-0.7-0.1-1.4-0.4-2s-0.6-1.2-1.1-1.6c-0.5-0.5-1-0.8-1.6-1.1c-0.6-0.3-1.3-0.4-2-0.4h-0.3c-0.7,0-1.3,0.1-2,0.4
		c-0.6,0.3-1.2,0.6-1.6,1.1s-0.8,1-1.1,1.6c-0.3,0.6-0.4,1.3-0.4,2v5.4c0,0.7,0.1,1.4,0.4,2s0.6,1.1,1.1,1.6s1,0.8,1.6,1.1
		c0.6,0.3,1.3,0.4,2,0.4h0.3c0.7,0,1.4-0.1,2-0.4s1.2-0.6,1.6-1.1c0.5-0.5,0.8-1,1.1-1.6c0.3-0.6,0.4-1.3,0.4-2
		C331.9,60.7,331.8,60.3,331.5,60.1 M316.6,61.6c0-1-0.2-1.8-0.6-2.4s-0.9-1-1.5-1.4c-0.6-0.3-1.3-0.6-2-0.7c-0.7-0.2-1.4-0.3-2-0.5
		s-1.1-0.4-1.5-0.6c-0.4-0.3-0.6-0.7-0.6-1.2v-0.1c0-0.5,0.3-0.9,0.7-1.2c0.5-0.3,1.1-0.5,2-0.5h0.1c0.7,0,1.3,0.1,1.7,0.3
		s0.8,0.4,1.1,0.5c0.3,0.1,0.5,0.2,0.7,0.2c0.3,0,0.6-0.1,0.8-0.3c0.2-0.2,0.3-0.5,0.3-0.8c0-0.4-0.1-0.7-0.4-0.9
		c-0.1-0.1-0.3-0.2-0.6-0.4c-0.2-0.2-0.5-0.3-0.9-0.5c-0.3-0.1-0.7-0.3-1.2-0.4s-1-0.2-1.5-0.2h-0.1c-0.5,0-1.1,0.1-1.6,0.2
		c-0.6,0.1-1.2,0.4-1.7,0.7c-0.5,0.3-0.9,0.7-1.3,1.2s-0.5,1.1-0.5,1.9c0,1,0.2,1.7,0.6,2.3c0.4,0.5,0.9,0.9,1.5,1.2
		c0.6,0.3,1.3,0.5,2,0.6s1.4,0.3,2,0.5s1.1,0.5,1.5,0.8s0.6,0.8,0.6,1.5v0.1c0,0.5-0.3,1-0.8,1.4s-1.3,0.7-2.2,0.7H311
		c-0.6,0-1.2-0.2-1.8-0.6c-0.6-0.4-1.1-0.9-1.5-1.4c-0.1-0.2-0.3-0.4-0.5-0.4c-0.2-0.1-0.4-0.1-0.6-0.1c-0.3,0-0.6,0.1-0.9,0.3
		c-0.3,0.2-0.4,0.5-0.4,0.9c0,0.1,0.1,0.3,0.2,0.6c0.3,0.5,0.6,0.9,1,1.3s0.8,0.7,1.3,1s1,0.5,1.5,0.6s1.1,0.2,1.6,0.2h0.2
		c0.7,0,1.3-0.1,2-0.3c0.7-0.2,1.2-0.5,1.8-0.8c0.5-0.4,0.9-0.8,1.3-1.4c0.3-0.5,0.5-1.2,0.5-1.9v0H316.6z M301.1,64.2
		c-0.2-0.2-0.5-0.4-0.8-0.4c-0.5,0-0.9-0.2-1.3-0.5s-0.5-0.7-0.5-1.3v-8.9h1.7c0.4,0,0.7-0.1,0.9-0.4c0.2-0.3,0.3-0.5,0.3-0.8
		s-0.1-0.6-0.3-0.8c-0.2-0.3-0.5-0.4-0.9-0.4h-1.7v-5.5c0-0.4-0.1-0.7-0.4-0.9c-0.3-0.2-0.5-0.3-0.8-0.3s-0.6,0.1-0.8,0.3
		c-0.3,0.2-0.4,0.5-0.4,0.9v5.5H295c-0.4,0-0.7,0.1-0.9,0.4c-0.2,0.3-0.3,0.5-0.3,0.8s0.1,0.6,0.3,0.8c0.2,0.3,0.5,0.4,0.9,0.4h1.1
		V62c0,0.6,0.1,1.1,0.3,1.6c0.2,0.5,0.5,0.9,0.9,1.3s0.8,0.7,1.3,0.9c0.5,0.2,1,0.3,1.6,0.3c0.4,0,0.7-0.1,0.9-0.4
		c0.2-0.3,0.3-0.5,0.3-0.8C301.3,64.7,301.3,64.4,301.1,64.2 M288.9,51.8c0-0.4-0.1-0.7-0.4-0.9c-0.3-0.2-0.5-0.3-0.8-0.3
		s-0.6,0.1-0.8,0.3c-0.3,0.2-0.4,0.5-0.4,0.9v9.3c0,0.7-0.3,1.4-0.8,1.9s-1.2,0.8-1.9,0.8h-0.3c-0.7,0-1.4-0.3-1.9-0.8
		s-0.8-1.2-0.8-1.9v-9.3c0-0.4-0.1-0.7-0.4-0.9c-0.3-0.2-0.5-0.3-0.8-0.3s-0.6,0.1-0.8,0.3c-0.3,0.2-0.4,0.5-0.4,0.9v9.3
		c0,0.9,0.1,1.6,0.4,2.3c0.3,0.6,0.6,1.1,1.1,1.6s1,0.7,1.6,0.9c0.6,0.2,1.3,0.3,1.9,0.3h0.3c0.5,0,1.1-0.1,1.5-0.2
		c0.5-0.2,0.9-0.4,1.2-0.7c0.1,0.3,0.2,0.6,0.4,0.7c0.2,0.1,0.5,0.2,0.8,0.2s0.6-0.1,0.8-0.3s0.4-0.5,0.4-0.9L288.9,51.8L288.9,51.8
		z M271,57.3h-5.7v-1.6c0-0.8,0.3-1.4,0.8-1.9s1.2-0.8,1.9-0.8h0.3c0.7,0,1.3,0.3,1.8,0.8s0.8,1.2,0.8,2v1.5H271z M273.4,55.7
		c0-0.7-0.1-1.4-0.4-2s-0.6-1.2-1.1-1.6c-0.5-0.5-1-0.8-1.6-1.1c-0.6-0.3-1.3-0.4-2-0.4H268c-0.7,0-1.3,0.1-2,0.4
		c-0.6,0.3-1.2,0.6-1.6,1.1c-0.5,0.5-0.8,1-1.1,1.6c-0.3,0.6-0.4,1.3-0.4,2v5.4c0,0.7,0.1,1.4,0.4,2s0.6,1.1,1.1,1.6s1,0.8,1.6,1.1
		c0.6,0.3,1.3,0.4,2,0.4h0.3c1.1,0,2-0.3,2.8-0.8s1.4-1.3,1.8-2.2c0.1-0.1,0.1-0.3,0.1-0.5c0-0.4-0.1-0.7-0.4-0.9
		c-0.3-0.2-0.5-0.3-0.9-0.3c-0.2,0-0.4,0.1-0.6,0.2s-0.3,0.3-0.4,0.6c-0.2,0.4-0.5,0.8-0.9,1.1c-0.4,0.3-0.9,0.5-1.5,0.5H268
		c-0.7,0-1.4-0.3-1.9-0.8s-0.8-1.1-0.8-1.9v-1.6h6.9c0.3,0,0.6-0.1,0.8-0.4c0.2-0.2,0.3-0.5,0.3-0.8v-2.7H273.4z M255,60
		c0,0.5-0.1,1-0.3,1.4s-0.4,0.8-0.8,1.1c-0.3,0.3-0.7,0.6-1.1,0.8c-0.4,0.2-0.9,0.3-1.4,0.3h-3.9v-17h3.9c0.5,0,1,0.1,1.4,0.3
		c0.4,0.2,0.8,0.4,1.1,0.8c0.3,0.3,0.6,0.7,0.8,1.1s0.3,0.9,0.3,1.4V60z M257.4,50.2c0-0.8-0.2-1.6-0.5-2.3
		c-0.3-0.7-0.7-1.4-1.3-1.9c-0.5-0.5-1.2-1-1.9-1.3s-1.5-0.5-2.3-0.5h-5.1c-0.3,0-0.6,0.1-0.8,0.4s-0.4,0.5-0.4,0.8v19.4
		c0,0.3,0.1,0.6,0.4,0.8c0.2,0.2,0.5,0.4,0.8,0.4h5.1c0.8,0,1.6-0.2,2.3-0.5s1.4-0.7,1.9-1.3c0.5-0.5,1-1.2,1.3-1.9
		c0.3-0.7,0.5-1.5,0.5-2.3V50.2z"/>
</g>
</svg>
