<?xml version="1.0" encoding="utf-8"?>
<!-- Generator: Adobe Illustrator 21.0.0, SVG Export Plug-In . SVG Version: 6.00 Build 0)  -->
<svg version="1.1" id="Layer_1" xmlns="http://www.w3.org/2000/svg" xmlns:xlink="http://www.w3.org/1999/xlink" x="0px" y="0px"
	 viewBox="0 0 500 300" style="enable-background:new 0 0 500 300;" xml:space="preserve">
<style type="text/css">
	.st0{fill:#FFFFFF;}
	.st1{fill:#466A7B;}
	.st2{fill:none;stroke:#466A7B;stroke-width:0.2027;stroke-miterlimit:10;}
	.st3{fill:#E07861;}
	.st4{fill:none;stroke:#466A7B;stroke-width:0.1718;stroke-miterlimit:10;}
	.st5{fill:#060505;}
	.st6{fill:#009468;}
	.st7{fill:#C4C4C4;}
	.st8{fill:#FF2E5F;}
</style>
<path class="st0" d="M422.3,448L280,466.5c-14.3,1.8-28.8,1.8-43.1,0L94.7,448c-10.1-1.3-17.4-7.9-17.4-15.7V261.8h362.4v170.5
	C439.7,440.1,432.4,446.7,422.3,448z"/>
<ellipse transform="matrix(6.506048e-02 -0.9979 0.9979 6.506048e-02 103.7795 668.5544)" class="st6" cx="408.7" cy="278.9" rx="0.2" ry="0.2"/>
<ellipse transform="matrix(6.504016e-02 -0.9979 0.9979 6.504016e-02 103.7874 668.5607)" class="st1" cx="408.7" cy="278.9" rx="0.3" ry="0.3"/>
<g>
	<g>
		<g id="triangle36_175_">
			<path class="st7" d="M374.3,302.4c-0.1,0-0.1,0-0.1-0.1l-18.6-40.9c0-0.1,0-0.1,0-0.2c0,0,0.1-0.1,0.2,0l30,10.7
				c0,0,0.1,0,0.1,0.1c0,0,0,0.1,0,0.1l-11.4,30.2C374.4,302.3,374.4,302.4,374.3,302.4C374.3,302.4,374.3,302.4,374.3,302.4z
				 M356,261.6l18.2,40.2l11.2-29.6L356,261.6z"/>
		</g>
		<g id="triangle36_173_">
			<path class="st7" d="M466.7,77.7c-0.1,0-0.1-0.1-0.2-0.1c0-0.1,0-0.2,0.1-0.2L500,60.1c0.1,0,0.2,0,0.2,0c0,0.1,0,0.2,0,0.2
				l-16.6,17.1c0,0-0.1,0.1-0.1,0.1L466.7,77.7C466.7,77.7,466.7,77.7,466.7,77.7z M499.3,60.9l-31.9,16.4l16.1-0.1L499.3,60.9z
				 M483.6,77.4L483.6,77.4L483.6,77.4z"/>
		</g>
		<g id="triangle36_172_">
			<path class="st7" d="M500.1,60.4C500.1,60.4,500,60.4,500.1,60.4l-78.5-49.8c0,0-0.1-0.1-0.1-0.1c0-0.1,0-0.1,0.1-0.1l9.6-7.6
				c0.1-0.1,0.2,0,0.2,0l68.9,57.3c0.1,0.1,0.1,0.2,0,0.2C500.2,60.4,500.2,60.4,500.1,60.4z M421.9,10.5l76,48.2L431.2,3.1
				L421.9,10.5z"/>
		</g>
		<g id="triangle36_171_">
			<path class="st7" d="M466.7,77.7c-0.1,0-0.1,0-0.1-0.1l-45-67c0-0.1,0-0.2,0-0.2c0.1-0.1,0.1-0.1,0.2,0l78.5,49.7
				c0.1,0,0.1,0.1,0.1,0.2c0,0.1,0,0.1-0.1,0.1L466.7,77.7C466.7,77.7,466.7,77.7,466.7,77.7z M422.2,11.1l44.5,66.2l33-17
				L422.2,11.1z"/>
		</g>
		<g id="triangle36_170_">
			<path class="st7" d="M297,267.5C297,267.5,297,267.5,297,267.5l-51.8-10.4c-0.1,0-0.1-0.1-0.1-0.2c0-0.1,0.1-0.2,0.2-0.2l53.6-4
				c0,0,0.1,0,0.1,0.1c0,0,0.1,0.1,0,0.1l-1.8,14.4c0,0,0,0.1-0.1,0.1C297.1,267.5,297.1,267.5,297,267.5z M246.5,257l50.4,10.1
				l1.8-14L246.5,257z"/>
		</g>
		<g id="triangle36_169_">
			<path class="st7" d="M297,267.5c0,0-0.1,0-0.1-0.1c0,0-0.1-0.1,0-0.1l1.8-14.4c0,0,0-0.1,0.1-0.1c0,0,0.1,0,0.1,0l56.8,8.4
				c0.1,0,0.1,0.1,0.1,0.2c0,0.1-0.1,0.2-0.2,0.2L297,267.5C297,267.5,297,267.5,297,267.5z M299,253.1l-1.8,14l57.1-5.9L299,253.1z
				"/>
		</g>
		<g id="triangle36_168_">
			<path class="st7" d="M355.7,261.5C355.7,261.5,355.7,261.5,355.7,261.5l-56.8-8.4c-0.1,0-0.1-0.1-0.1-0.2c0-0.1,0-0.2,0.1-0.2
				l52.5-20c0,0,0.1,0,0.1,0c0,0,0.1,0.1,0.1,0.1l4.3,28.3c0,0.1,0,0.1,0,0.1C355.8,261.5,355.8,261.5,355.7,261.5z M299.6,252.9
				l56,8.2l-4.3-27.9L299.6,252.9z"/>
		</g>
		<g id="triangle36_167_">
			<path class="st7" d="M162.8,317.7c0,0-0.1,0-0.1,0c-0.1,0-0.1-0.1,0-0.2l22.2-48.8c0-0.1,0.1-0.1,0.1-0.1c0.1,0,0.1,0,0.2,0.1
				l18.6,24.5c0,0,0,0.1,0,0.1c0,0,0,0.1-0.1,0.1L162.8,317.7C162.9,317.7,162.9,317.7,162.8,317.7z M185.1,269.1l-21.9,48
				l40.2-23.9L185.1,269.1z"/>
		</g>
		<g id="triangle36_166_">
			<path class="st7" d="M340,313.1c0,0-0.1,0-0.1-0.1l-43-45.6c0,0-0.1-0.1,0-0.2c0-0.1,0.1-0.1,0.1-0.1l58.7-6c0.1,0,0.1,0,0.1,0.1
				c0,0,0,0.1,0,0.2L340.2,313C340.1,313.1,340.1,313.1,340,313.1C340,313.1,340,313.1,340,313.1z M297.4,267.5l42.5,45.2l15.6-51.1
				L297.4,267.5z"/>
		</g>
		<g id="triangle36_164_">
			<path class="st7" d="M340,313.1c0,0-0.1,0-0.1,0c0,0-0.1-0.1,0-0.2l15.7-51.7c0-0.1,0.1-0.1,0.2-0.1c0.1,0,0.1,0,0.2,0.1
				l18.6,40.9c0,0,0,0.1,0,0.1c0,0-0.1,0.1-0.1,0.1L340,313.1C340,313.1,340,313.1,340,313.1z M355.7,261.8l-15.5,50.9l33.8-10.6
				L355.7,261.8z"/>
		</g>
		<g id="triangle36_160_">
			<path class="st7" d="M374.3,302.4c0,0-0.1,0-0.1-0.1c0,0-0.1-0.1,0-0.2l11.4-30.2c0-0.1,0.1-0.1,0.2-0.1l60.1,13.6
				c0.1,0,0.1,0.1,0.1,0.2c0,0.1-0.1,0.1-0.1,0.2L374.3,302.4C374.3,302.4,374.3,302.4,374.3,302.4z M385.8,272.2L374.6,302
				l70.5-16.3L385.8,272.2z"/>
		</g>
		<g id="triangle36_159_">
			<path class="st7" d="M445.8,285.8C445.8,285.8,445.8,285.8,445.8,285.8l-60.1-13.6c-0.1,0-0.1-0.1-0.1-0.1c0-0.1,0-0.1,0.1-0.2
				l17.4-13c0.1,0,0.1,0,0.2,0l42.7,26.6c0.1,0,0.1,0.1,0.1,0.2C445.9,285.8,445.9,285.8,445.8,285.8z M386.1,271.9l58.8,13.3
				l-41.8-26L386.1,271.9z"/>
		</g>
		<g id="triangle36_158_">
			<path class="st7" d="M445.8,285.8C445.8,285.8,445.8,285.8,445.8,285.8L403,259.2c-0.1,0-0.1-0.1-0.1-0.2c0-0.1,0.1-0.1,0.1-0.1
				l39-9.9c0,0,0.1,0,0.1,0c0,0,0.1,0.1,0.1,0.1l3.8,36.5c0,0.1,0,0.1-0.1,0.2C445.9,285.8,445.8,285.8,445.8,285.8z M403.5,259.1
				l42.1,26.2l-3.7-36L403.5,259.1z"/>
		</g>
		<g id="triangle36_157_">
			<path class="st7" d="M498,201.4c0,0-0.1,0-0.1-0.1l-25.8-30c-0.1-0.1-0.1-0.2,0-0.2c0.1-0.1,0.2-0.1,0.2,0l31.2,23
				c0,0,0.1,0.1,0.1,0.1c0,0,0,0.1,0,0.1l-5.4,7C498.1,201.3,498,201.4,498,201.4C498,201.4,498,201.4,498,201.4z M473.3,172.2
				l24.7,28.7l5.1-6.7L473.3,172.2z"/>
		</g>
		<g id="triangle36_155_">
			<path class="st7" d="M486.5,283.3c-0.1,0-0.1-0.1-0.2-0.1l-4.1-31.9c0-0.1,0-0.2,0.1-0.2c0.1,0,0.2,0,0.2,0.1l16.6,32.1
				c0,0.1,0,0.1,0,0.2c0,0.1-0.1,0.1-0.1,0.1L486.5,283.3C486.5,283.3,486.5,283.3,486.5,283.3z M482.7,252.2l4,30.8l12.1,0.3
				L482.7,252.2z"/>
		</g>
		<g id="triangle36_154_">
			<path class="st7" d="M486.6,284c-0.1,0-0.1-0.1-0.2-0.1l-0.1-0.7c0-0.1,0-0.1,0-0.1c0,0,0.1-0.1,0.1-0.1l12.5,0.3
				c0.1,0,0.2,0.1,0.2,0.2c0,0.1-0.1,0.2-0.2,0.2L486.6,284C486.6,284,486.6,284,486.6,284z M486.7,283.3l0.1,0.3l6.1-0.2
				L486.7,283.3z"/>
		</g>
		<g id="triangle36_152_">
			<path class="st7" d="M447.6,360.5C447.6,360.5,447.6,360.5,447.6,360.5l-73.5-58.2c-0.1,0-0.1-0.1-0.1-0.2c0-0.1,0.1-0.1,0.1-0.1
				l71.5-16.5c0,0,0.1,0,0.1,0c0,0,0.1,0.1,0.1,0.1l1.8,74.7C447.8,360.4,447.8,360.5,447.6,360.5
				C447.7,360.5,447.7,360.5,447.6,360.5z M374.7,302.3l72.8,57.7l-1.8-74.1L374.7,302.3z"/>
		</g>
		<g id="triangle36_151_">
			<path class="st7" d="M447.6,360.5C447.6,360.5,447.6,360.5,447.6,360.5c-0.1-0.1-0.2-0.1-0.2-0.2l-1.8-74.7
				c0-0.1,0.1-0.2,0.1-0.2c0.1,0,0.2,0,0.2,0.1l25.8,64.2c0,0.1,0,0.2-0.1,0.2L447.6,360.5C447.7,360.5,447.7,360.5,447.6,360.5z
				 M446,286.6l1.8,73.5l23.5-10.3L446,286.6z"/>
		</g>
		<g id="triangle36_150_">
			<path class="st7" d="M540.5,273C540.5,273,540.5,273,540.5,273l-58.2-21.6c0,0-0.1-0.1-0.1-0.1c0,0,0-0.1,0-0.1l25.2-41.3
				c0-0.1,0.1-0.1,0.2-0.1c0,0,0.1,0,0.1,0.1l32.9,62.9c0,0.1,0,0.1,0,0.2C540.6,273,540.6,273,540.5,273z M482.6,251.1l57.5,21.4
				l-32.6-62.3L482.6,251.1z"/>
		</g>
		<g id="triangle36_149_">
			<path class="st7" d="M507.6,210.1c0,0-0.1,0-0.1,0l-9.6-8.7c-0.1-0.1-0.1-0.2,0-0.2l5.4-7c0-0.1,0.1-0.1,0.2-0.1
				c0.1,0,0.1,0.1,0.1,0.1l4.2,15.7C507.8,209.9,507.7,210,507.6,210.1C507.7,210.1,507.6,210.1,507.6,210.1z M498.2,201.2l9.1,8.2
				l-4-14.8L498.2,201.2z"/>
		</g>
		<g id="triangle36_145_">
			<path class="st7" d="M500.1,60.4C500.1,60.4,500,60.4,500.1,60.4l-69-57.4c-0.1,0-0.1-0.1-0.1-0.2c0-0.1,0.1-0.1,0.2-0.1
				l99.9,2.7c0.1,0,0.1,0,0.1,0.1c0,0.1,0,0.1,0,0.2l-31,54.6C500.2,60.4,500.2,60.4,500.1,60.4C500.1,60.4,500.1,60.4,500.1,60.4z
				 M431.7,3.1L500.1,60l30.7-54.2L431.7,3.1z"/>
		</g>
		<g id="triangle36_144_">
			<path class="st7" d="M465.9,123.3C465.9,123.3,465.8,123.3,465.9,123.3l-50.5-6c-0.1,0-0.1-0.1-0.1-0.1c0-0.1,0-0.1,0.1-0.2
				l27.3-14.4c0.1,0,0.1,0,0.2,0L466,123c0.1,0,0.1,0.1,0,0.2C466,123.3,465.9,123.3,465.9,123.3z M416,117l49.4,5.9l-22.7-20
				L416,117z"/>
		</g>
		<g id="triangle36_143_">
			<path class="st7" d="M203.6,293.4c0,0-0.1,0-0.1-0.1L185,268.9c0,0,0-0.1,0-0.2c0-0.1,0.1-0.1,0.1-0.1l24.5-6.1
				c0.1,0,0.1,0,0.2,0c0,0,0.1,0.1,0.1,0.2l-6,30.5C203.8,293.3,203.8,293.4,203.6,293.4C203.7,293.4,203.7,293.4,203.6,293.4z
				 M185.4,268.9l18.2,24l5.9-29.9L185.4,268.9z"/>
		</g>
		<g id="triangle36_142_">
			<path class="st7" d="M185.1,268.9c-0.1,0-0.1,0-0.1-0.1c0-0.1,0-0.1,0-0.2l22.9-34.2c0-0.1,0.1-0.1,0.2-0.1
				c0.1,0,0.1,0.1,0.1,0.2l1.6,28.2c0,0.1,0,0.2-0.1,0.2L185.1,268.9C185.1,268.9,185.1,268.9,185.1,268.9z M207.9,235.1l-22.4,33.4
				l24-5.9L207.9,235.1z"/>
		</g>
		<g id="triangle36_141_">
			<path class="st7" d="M403.1,259.2c0,0-0.1,0-0.1-0.1c0,0-0.1-0.1,0-0.2l6.4-20.1c0-0.1,0.1-0.1,0.2-0.1l32.6,10.2
				c0.1,0,0.1,0.1,0.1,0.2c0,0.1-0.1,0.1-0.1,0.2L403.1,259.2C403.1,259.2,403.1,259.2,403.1,259.2z M409.6,239.2l-6.3,19.7
				l38.1-9.7L409.6,239.2z"/>
		</g>
		<g id="triangle36_140_">
			<path class="st7" d="M426.4,194.1C426.4,194.1,426.3,194.1,426.4,194.1l-12.8-4.3c-0.1,0-0.1-0.1-0.1-0.2c0-0.1,0-0.1,0.1-0.2
				l58.6-18.5c0.1,0,0.2,0,0.2,0.1c0,0.1,0,0.2-0.1,0.2L426.4,194.1C426.4,194.1,426.4,194.1,426.4,194.1z M414.1,189.7l12.2,4.1
				l43.8-21.7L414.1,189.7z"/>
		</g>
		<g id="triangle36_139_">
			<path class="st7" d="M355.7,261.5C355.7,261.5,355.7,261.5,355.7,261.5c-0.1,0-0.1-0.1-0.2-0.1l-4.3-28.3c0-0.1,0-0.1,0.1-0.2
				c0,0,0.1,0,0.2,0l16.8,7.1c0,0,0.1,0.1,0.1,0.1c0,0,0,0.1,0,0.1l-12.5,21.2C355.8,261.4,355.8,261.5,355.7,261.5z M351.6,233.2
				l4.2,27.6l12.1-20.6L351.6,233.2z"/>
		</g>
		<g id="triangle36_138_">
			<path class="st7" d="M385.7,272.2C385.7,272.2,385.7,272.2,385.7,272.2l-30-10.7c0,0-0.1-0.1-0.1-0.1c0,0,0-0.1,0-0.1L368,240
				c0-0.1,0.1-0.1,0.2-0.1c0.1,0,0.1,0,0.1,0.1l17.5,31.9c0,0.1,0,0.1,0,0.2C385.8,272.2,385.7,272.2,385.7,272.2z M356,261.2
				l29.4,10.5l-17.2-31.3L356,261.2z"/>
		</g>
		<g id="triangle36_137_">
			<path class="st7" d="M385.7,272.2C385.7,272.2,385.7,272.2,385.7,272.2c-0.1,0-0.1,0-0.1-0.1L368,240.2c0-0.1,0-0.1,0-0.2
				c0.1-0.1,0.1-0.1,0.2,0l34.9,19c0.1,0,0.1,0.1,0.1,0.1c0,0.1,0,0.1-0.1,0.1l-17.4,13C385.8,272.2,385.7,272.2,385.7,272.2z
				 M368.6,240.5l17.2,31.3l17-12.7L368.6,240.5z"/>
		</g>
		<g id="triangle36_136_">
			<path class="st7" d="M403.1,259.2C403,259.2,403,259.2,403.1,259.2l-35-19c-0.1,0-0.1-0.1-0.1-0.2c0-0.1,0.1-0.1,0.2-0.1
				l41.3-1.1c0.1,0,0.1,0,0.1,0.1c0,0,0,0.1,0,0.2l-6.4,20.1C403.2,259.1,403.2,259.2,403.1,259.2
				C403.1,259.2,403.1,259.2,403.1,259.2z M368.8,240.2l34.2,18.6l6.3-19.7L368.8,240.2z"/>
		</g>
		<g id="triangle36_134_">
			<path class="st7" d="M209.6,262.9C209.6,262.9,209.6,262.9,209.6,262.9c-0.1-0.1-0.2-0.1-0.2-0.2l-1.6-28.2c0-0.1,0-0.1,0.1-0.2
				c0.1,0,0.1,0,0.2,0l22.9,16.8c0,0,0.1,0.1,0.1,0.2c0,0.1,0,0.1-0.1,0.1L209.6,262.9C209.7,262.9,209.7,262.9,209.6,262.9z
				 M208.2,234.9l1.6,27.5l20.8-11.1L208.2,234.9z"/>
		</g>
		<g id="triangle36_133_">
			<path class="st7" d="M305.5,156.9C305.5,156.9,305.5,156.9,305.5,156.9c-0.1-0.1-0.2-0.1-0.2-0.1l-1-6.9c0,0,0-0.1,0-0.1
				c0,0,0.1-0.1,0.1-0.1l35.2-1.9c0.1,0,0.2,0.1,0.2,0.1c0,0.1,0,0.2-0.1,0.2L305.5,156.9C305.5,156.9,305.5,156.9,305.5,156.9z
				 M304.7,150l0.9,6.5l32.3-8.4L304.7,150z"/>
		</g>
		<g id="triangle36_132_">
			<path class="st7" d="M192.1,223.1C192,223.1,192,223.1,192.1,223.1l-18.2-12.6c-0.1,0-0.1-0.1-0.1-0.2c0-0.1,0.1-0.1,0.1-0.1
				l47.6-5.7c0.1,0,0.2,0,0.2,0.1c0,0.1,0,0.2-0.1,0.2l-29.5,18.2C192.1,223.1,192.1,223.1,192.1,223.1z M174.5,210.6l17.6,12.2
				l28.8-17.7L174.5,210.6z"/>
		</g>
		<g id="triangle36_131_">
			<path class="st7" d="M185.1,268.9C185.1,268.9,185.1,268.9,185.1,268.9c-0.1,0-0.2-0.1-0.2-0.2l7-45.8c0-0.1,0-0.1,0.1-0.1
				c0.1,0,0.1,0,0.2,0l15.9,11.6c0.1,0.1,0.1,0.2,0,0.2l-22.9,34.2C185.2,268.9,185.1,268.9,185.1,268.9z M192.2,223.3l-6.8,44.8
				l22.4-33.4L192.2,223.3z"/>
		</g>
		<g id="triangle36_130_">
			<path class="st7" d="M208,234.7C208,234.7,208,234.7,208,234.7l-16-11.6c0,0-0.1-0.1-0.1-0.1c0-0.1,0-0.1,0.1-0.1l29.5-18.2
				c0.1,0,0.1,0,0.2,0c0.1,0,0.1,0.1,0,0.2l-13.6,29.8C208.2,234.7,208.1,234.7,208,234.7C208.1,234.7,208,234.7,208,234.7z
				 M192.4,223l15.6,11.3l13.2-29.1L192.4,223z"/>
		</g>
		<g id="triangle36_129_">
			<path class="st7" d="M258.2,238.5C258.2,238.5,258.2,238.5,258.2,238.5l-50.2-3.8c-0.1,0-0.1,0-0.1-0.1c0,0,0-0.1,0-0.2
				l13.6-29.8c0,0,0.1-0.1,0.1-0.1c0.1,0,0.1,0,0.1,0l36.7,33.6c0.1,0,0.1,0.1,0,0.2C258.4,238.5,258.3,238.6,258.2,238.5z
				 M208.3,234.4l49.5,3.8l-36.1-33.1L208.3,234.4z"/>
		</g>
		<g id="triangle36_128_">
			<path class="st7" d="M230.9,251.5C230.9,251.5,230.8,251.5,230.9,251.5l-23-16.9c-0.1,0-0.1-0.1-0.1-0.2c0-0.1,0.1-0.1,0.2-0.1
				c0,0,0,0,0,0l50.2,3.8c0.1,0,0.1,0.1,0.2,0.1c0,0.1,0,0.2-0.1,0.2L230.9,251.5C230.9,251.5,230.9,251.5,230.9,251.5z
				 M208.6,234.8l22.3,16.4l26.7-12.7L208.6,234.8z"/>
		</g>
		<g id="triangle36_127_">
			<path class="st7" d="M245.2,257.1C245.2,257.1,245.2,257.1,245.2,257.1l-14.4-5.6c-0.1,0-0.1-0.1-0.1-0.2c0-0.1,0-0.1,0.1-0.2
				l27.4-13c0.1,0,0.2,0,0.2,0c0.1,0.1,0.1,0.1,0,0.2l-13,18.6C245.3,257.1,245.3,257.1,245.2,257.1z M231.3,251.4l13.8,5.4
				l12.6-17.9L231.3,251.4z"/>
		</g>
		<g id="triangle36_126_">
			<path class="st7" d="M245.2,257.1c-0.1,0-0.1,0-0.1-0.1c0-0.1,0-0.1,0-0.2l13-18.6c0-0.1,0.1-0.1,0.2-0.1l40.6,14.6
				c0.1,0,0.1,0.1,0.1,0.2c0,0.1-0.1,0.1-0.2,0.1L245.2,257.1C245.2,257.1,245.2,257.1,245.2,257.1z M258.3,238.6l-12.7,18.2
				l52.5-3.9L258.3,238.6z"/>
		</g>
		<g id="triangle36_122_">
			<path class="st7" d="M313.8,335.8C313.8,335.8,313.8,335.8,313.8,335.8l-82.3-31c-0.1,0-0.1-0.1-0.1-0.1c0-0.1,0-0.1,0.1-0.2
				l65.4-37.3c0,0,0.1,0,0.2,0c0,0,0.1,0.1,0.1,0.1l16.8,68.3c0,0.1,0,0.1-0.1,0.2C313.9,335.8,313.9,335.8,313.8,335.8z M232,304.6
				l81.6,30.7l-16.7-67.8L232,304.6z"/>
		</g>
		<g id="triangle36_121_">
			<path class="st7" d="M313.8,335.8C313.8,335.8,313.8,335.8,313.8,335.8c-0.1,0-0.1-0.1-0.2-0.1l-16.8-68.3c0-0.1,0-0.2,0.1-0.2
				c0.1,0,0.2,0,0.2,0l43,45.6c0,0,0,0.1,0,0.1c0,0,0,0.1-0.1,0.1l-26.2,22.7C313.9,335.8,313.9,335.8,313.8,335.8z M297.4,267.9
				l16.6,67.4l25.8-22.4L297.4,267.9z"/>
		</g>
		<g id="triangle36_120_">
			<path class="st7" d="M483.5,77.5c-0.1,0-0.1,0-0.1-0.1c0-0.1,0-0.1,0-0.2L500,60.1c0,0,0.1-0.1,0.1-0.1l62.6,8.7
				c0.1,0,0.1,0.1,0.1,0.2c0,0.1-0.1,0.2-0.2,0.2L483.5,77.5C483.6,77.5,483.6,77.5,483.5,77.5z M500.2,60.4L484,77.1l77.3-8.2
				L500.2,60.4z"/>
		</g>
		<g id="triangle36_119_">
			<path class="st7" d="M502.4,139.5C502.4,139.5,502.4,139.5,502.4,139.5c-0.1,0-0.1-0.1-0.2-0.1l-18.8-62c0,0,0-0.1,0-0.1
				c0,0,0.1-0.1,0.1-0.1l79.2-8.4c0.1,0,0.1,0,0.2,0.1c0,0.1,0,0.1,0,0.2l-60.3,70.4C502.5,139.5,502.4,139.5,502.4,139.5z
				 M483.8,77.5l18.7,61.5l59.9-69.8L483.8,77.5z"/>
		</g>
		<g id="triangle36_118_">
			<path class="st7" d="M562.7,69.2C562.7,69.2,562.7,69.2,562.7,69.2l-62.6-8.7c-0.1,0-0.1,0-0.1-0.1c0-0.1,0-0.1,0-0.2l31-54.6
				c0-0.1,0.1-0.1,0.2-0.1c0.1,0,0.1,0,0.1,0.1l31.6,63.4c0,0.1,0,0.1,0,0.2C562.8,69.1,562.8,69.2,562.7,69.2z M500.4,60.1l62,8.7
				L531.1,6L500.4,60.1z"/>
		</g>
		<g id="triangle36_113_">
			<path class="st7" d="M445.8,285.8c-0.1,0-0.1-0.1-0.2-0.2l-3.8-36.5c0,0,0-0.1,0-0.1c0,0,0.1-0.1,0.1-0.1l11.5-0.5
				c0.1,0,0.1,0,0.1,0.1c0,0,0,0.1,0,0.1l-7.7,37C446,285.8,445.9,285.8,445.8,285.8C445.8,285.8,445.8,285.8,445.8,285.8z
				 M442.2,249.3l3.7,35.2l7.4-35.7L442.2,249.3z"/>
		</g>
		<g id="triangle36_112_">
			<path class="st7" d="M445.8,285.8c0,0-0.1,0-0.1-0.1c0,0,0-0.1,0-0.1l7.7-37c0-0.1,0.1-0.1,0.1-0.1c0.1,0,0.1,0,0.2,0l33,34.4
				c0,0,0.1,0.1,0,0.2c0,0.1-0.1,0.1-0.1,0.1L445.8,285.8C445.8,285.8,445.8,285.8,445.8,285.8z M453.6,249l-7.6,36.5l40.1-2.5
				L453.6,249z"/>
		</g>
		<g id="triangle36_111_">
			<path class="st7" d="M486.5,283.3c0,0-0.1,0-0.1-0.1l-33-34.4c0-0.1-0.1-0.1,0-0.2c0-0.1,0.1-0.1,0.2-0.1l28.9,2.6
				c0.1,0,0.1,0.1,0.2,0.1l4.1,31.9C486.7,283.2,486.6,283.2,486.5,283.3C486.5,283.3,486.5,283.3,486.5,283.3z M453.9,248.9
				l32.3,33.7l-4-31.2L453.9,248.9z"/>
		</g>
		<g id="triangle36_107_">
			<path class="st7" d="M472.2,171.4c-0.1,0-0.2-0.1-0.2-0.2c0-0.1,0.1-0.2,0.1-0.2l28.5-4.7c0.1,0,0.2,0,0.2,0.1
				c0,0.1,0,0.2-0.1,0.2l-9.4,4.9c0,0-0.1,0-0.1,0L472.2,171.4C472.2,171.4,472.2,171.4,472.2,171.4z M499.6,166.8l-25.4,4.2l17,0.1
				L499.6,166.8z"/>
		</g>
		<g id="triangle36_106_">
			<path class="st7" d="M503.3,194.3C503.3,194.3,503.3,194.3,503.3,194.3l-31.3-23c-0.1,0-0.1-0.1-0.1-0.2s0.1-0.1,0.2-0.1
				l19.1,0.1c0.1,0,0.1,0,0.1,0.1l12.1,22.8c0,0.1,0,0.2,0,0.2C503.4,194.3,503.4,194.3,503.3,194.3z M472.7,171.4l30.2,22.2
				l-11.7-22.1L472.7,171.4z"/>
		</g>
		<g id="triangle36_105_">
			<path class="st7" d="M503.3,194.3c-0.1,0-0.1,0-0.1-0.1l-12.1-22.8c0,0,0-0.1,0-0.1c0,0,0-0.1,0.1-0.1l9.4-4.9c0,0,0.1,0,0.2,0
				c0,0,0.1,0.1,0.1,0.1l2.7,27.7C503.5,194.2,503.5,194.3,503.3,194.3C503.4,194.3,503.4,194.3,503.3,194.3z M491.5,171.4
				l11.6,21.9l-2.6-26.6L491.5,171.4z"/>
		</g>
		<g id="triangle36_104_">
			<path class="st7" d="M396.4,174.9C396.4,174.9,396.4,174.9,396.4,174.9L339.6,148c-0.1,0-0.1-0.1-0.1-0.1c0-0.1,0-0.1,0.1-0.2
				l30.9-22.5c0,0,0.1,0,0.1,0c0,0,0.1,0,0.1,0.1l25.8,49.3c0,0.1,0,0.1,0,0.2C396.5,174.9,396.4,174.9,396.4,174.9z M340,147.9
				l56,26.5l-25.5-48.7L340,147.9z"/>
		</g>
		<g id="triangle36_103_">
			<path class="st7" d="M396.4,174.9c-0.1,0-0.1,0-0.1-0.1l-25.8-49.3c0,0,0-0.1,0-0.1c0,0,0.1-0.1,0.1-0.1l24.8-9.3
				c0.1,0,0.1,0,0.2,0c0,0,0.1,0.1,0.1,0.1l1.1,58.6C396.6,174.8,396.5,174.9,396.4,174.9C396.4,174.9,396.4,174.9,396.4,174.9z
				 M370.8,125.5l25.4,48.5l-1.1-57.7L370.8,125.5z"/>
		</g>
		<g id="triangle36_102_">
			<path class="st7" d="M396.4,174.9C396.4,174.9,396.4,174.9,396.4,174.9c-0.1,0-0.2-0.1-0.2-0.2l-1.1-58.6c0,0,0-0.1,0.1-0.1
				c0,0,0.1-0.1,0.1,0l20.1,1c0.1,0,0.1,0,0.1,0.1c0,0,0,0.1,0,0.1l-19,57.6C396.5,174.9,396.5,174.9,396.4,174.9z M395.5,116.3
				l1.1,57.5l18.6-56.4L395.5,116.3z"/>
		</g>
		<g id="triangle36_101_">
			<path class="st7" d="M413.6,189.8c0,0-0.1,0-0.1,0l-17.2-14.9c-0.1,0-0.1-0.1,0-0.2c0-0.1,0.1-0.1,0.2-0.1l75.8-3.5
				c0.1,0,0.2,0.1,0.2,0.1c0,0.1,0,0.2-0.1,0.2L413.6,189.8C413.6,189.8,413.6,189.8,413.6,189.8z M396.8,174.9l16.8,14.6l57.2-18.1
				L396.8,174.9z"/>
		</g>
		<g id="triangle36_100_">
			<path class="st7" d="M395.3,116.3c-0.1,0-0.1,0-0.2-0.1c0-0.1,0-0.1,0.1-0.2L416.4,98c0.1,0,0.1-0.1,0.2,0c0.1,0,0.1,0.1,0.1,0.2
				l-1.1,19c0,0.1-0.1,0.2-0.2,0.2L395.3,116.3C395.3,116.3,395.3,116.3,395.3,116.3z M416.3,98.6l-20.5,17.4l19.5,1L416.3,98.6z"/>
		</g>
		<g id="triangle36_99_">
			<path class="st7" d="M416.5,98.3C416.4,98.3,416.4,98.3,416.5,98.3c-0.1-0.1-0.2-0.1-0.2-0.2l5.2-87.7c0-0.1,0.1-0.1,0.1-0.2
				c0.1,0,0.1,0,0.2,0.1l45,67c0,0,0,0.1,0,0.1c0,0-0.1,0.1-0.1,0.1L416.5,98.3C416.5,98.3,416.5,98.3,416.5,98.3z M421.8,11
				l-5.1,86.9l49.7-20.5L421.8,11z"/>
		</g>
		<g id="triangle36_98_">
			<path class="st7" d="M415.4,117.3C415.4,117.3,415.4,117.3,415.4,117.3c-0.1-0.1-0.2-0.1-0.2-0.2l1.1-19c0,0,0-0.1,0.1-0.1
				c0,0,0.1,0,0.1,0l26.2,4.6c0.1,0,0.1,0.1,0.1,0.1c0,0.1,0,0.1-0.1,0.2L415.4,117.3C415.5,117.3,415.4,117.3,415.4,117.3z
				 M416.6,98.4l-1,18.5l26.6-14L416.6,98.4z"/>
		</g>
		<g id="triangle36_97_">
			<path class="st7" d="M442.7,102.9C442.7,102.9,442.7,102.9,442.7,102.9l-26.2-4.6c-0.1,0-0.1-0.1-0.1-0.2c0-0.1,0-0.1,0.1-0.2
				l50.2-20.7c0.1,0,0.2,0,0.2,0.1c0,0.1,0,0.2,0,0.2l-24,25.3C442.8,102.9,442.7,102.9,442.7,102.9z M417.1,98.1l25.5,4.5L466,78
				L417.1,98.1z"/>
		</g>
		<g id="triangle36_96_">
			<path class="st7" d="M469.3,118.2C469.2,118.2,469.2,118.2,469.3,118.2l-26.7-15.3c0,0-0.1-0.1-0.1-0.1c0-0.1,0-0.1,0-0.1
				l24-25.3c0,0,0.1-0.1,0.2,0c0.1,0,0.1,0.1,0.1,0.1l2.6,40.5c0,0.1,0,0.1-0.1,0.2C469.3,118.2,469.3,118.2,469.3,118.2z
				 M443,102.7l26.1,15l-2.6-39.8L443,102.7z"/>
		</g>
		<g id="triangle36_95_">
			<path class="st7" d="M465.9,123.3c0,0-0.1,0-0.1,0l-23.2-20.4c-0.1-0.1-0.1-0.2,0-0.2c0.1-0.1,0.1-0.1,0.2,0l26.6,15.3
				c0,0,0.1,0.1,0.1,0.1c0,0,0,0.1,0,0.1l-3.4,5.1C466,123.3,465.9,123.3,465.9,123.3C465.9,123.3,465.9,123.3,465.9,123.3z
				 M444.1,103.7l21.8,19.1l3.2-4.8L444.1,103.7z"/>
		</g>
		<g id="triangle36_94_">
			<path class="st7" d="M469.3,118.2C469.3,118.2,469.3,118.2,469.3,118.2c-0.1,0-0.2-0.1-0.2-0.2l-2.6-40.5c0,0,0-0.1,0-0.1
				c0,0,0.1-0.1,0.1-0.1l16.9-0.1c0.1,0,0.1,0,0.1,0.1c0,0,0,0.1,0,0.2l-14.3,40.7C469.4,118.2,469.3,118.2,469.3,118.2z
				 M466.8,77.7l2.6,39.5l13.9-39.7L466.8,77.7z"/>
		</g>
		<g id="triangle36_93_">
			<path class="st7" d="M502.4,139.5C502.4,139.5,502.3,139.5,502.4,139.5l-36.6-16.2c0,0-0.1-0.1-0.1-0.1c0,0,0-0.1,0-0.1l3.4-5.1
				c0.1-0.1,0.2-0.1,0.2,0l33.1,21.3c0.1,0,0.1,0.1,0.1,0.2C502.5,139.5,502.4,139.5,502.4,139.5z M466.1,123.1l34.3,15.2l-31.1-20
				L466.1,123.1z"/>
		</g>
		<g id="triangle36_92_">
			<path class="st7" d="M502.4,139.5C502.4,139.5,502.3,139.5,502.4,139.5l-33.2-21.3c-0.1,0-0.1-0.1-0.1-0.2l14.3-40.7
				c0-0.1,0.1-0.1,0.2-0.1c0.1,0,0.1,0.1,0.2,0.1l18.8,62c0,0.1,0,0.1-0.1,0.2C502.5,139.5,502.4,139.5,502.4,139.5z M469.5,118
				l32.6,21l-18.5-61L469.5,118z"/>
		</g>
		<g id="triangle36_90_">
			<path class="st7" d="M298.9,253.1C298.9,253.1,298.8,253.1,298.9,253.1l-40.7-14.6c-0.1,0-0.1-0.1-0.1-0.2c0-0.1,0-0.1,0.1-0.2
				l57.6-25.4c0.1,0,0.1,0,0.2,0c0.1,0,0.1,0.1,0,0.2L299,253C299,253.1,298.9,253.1,298.9,253.1z M258.7,238.4l40.1,14.4l16.7-39.4
				L258.7,238.4z"/>
		</g>
		<g id="triangle36_89_">
			<path class="st7" d="M298.9,253.1c0,0-0.1,0-0.1-0.1c0,0-0.1-0.1,0-0.2l17-39.9c0,0,0.1-0.1,0.1-0.1c0,0,0.1,0,0.1,0l35.6,20
				c0.1,0,0.1,0.1,0.1,0.2c0,0.1,0,0.1-0.1,0.1L298.9,253.1C298.9,253.1,298.9,253.1,298.9,253.1z M315.9,213.2l-16.7,39.4
				l51.8-19.7L315.9,213.2z"/>
		</g>
		<g id="triangle36_88_">
			<path class="st7" d="M471.6,350L471.6,350c-0.1,0-0.1,0-0.1-0.1l-25.8-64.2c0-0.1,0-0.1,0-0.2c0.1,0,0.1-0.1,0.2,0l47.7,25.4
				c0,0,0.1,0.1,0.1,0.1c0,0,0,0.1,0,0.1l-22,38.8C471.7,350,471.6,350,471.6,350z M446.2,286l25.5,63.5l21.7-38.3L446.2,286z"/>
		</g>
		<g id="triangle36_87_">
			<path class="st7" d="M320.8,170C320.8,170,320.8,169.9,320.8,170l-15.4-13.1c-0.1-0.1-0.1-0.1,0-0.2c0-0.1,0.1-0.1,0.2-0.1
				l24.9,10.8c0.1,0,0.1,0.1,0.1,0.2c0,0.1-0.1,0.1-0.1,0.2L320.8,170C320.9,170,320.8,170,320.8,170z M306.5,157.4l14.4,12.2l9-2.1
				L306.5,157.4z"/>
		</g>
		<g id="triangle36_86_">
			<path class="st7" d="M330.4,167.7C330.4,167.7,330.4,167.7,330.4,167.7l-25-10.8c-0.1,0-0.1-0.1-0.1-0.2c0-0.1,0.1-0.1,0.1-0.2
				l34.2-8.9c0.1,0,0.1,0,0.2,0.1c0,0.1,0.1,0.1,0,0.2l-9.3,19.6C330.5,167.7,330.5,167.7,330.4,167.7z M306,156.8l24.3,10.5l9-19.2
				L306,156.8z"/>
		</g>
		<g id="triangle36_85_">
			<path class="st7" d="M315.8,213.2C315.8,213.2,315.8,213.2,315.8,213.2c-0.1,0-0.2-0.1-0.2-0.2l5-43.2c0-0.1,0.1-0.1,0.1-0.1
				l9.6-2.2c0.1,0,0.1,0,0.2,0.1c0,0,0.1,0.1,0,0.2L316,213C316,213.1,315.9,213.2,315.8,213.2z M321,169.9l-4.8,41.3l14-43.5
				L321,169.9z"/>
		</g>
		<g id="triangle36_84_">
			<path class="st7" d="M396.4,174.9C396.4,174.9,396.4,174.9,396.4,174.9l-66-7.2c-0.1,0-0.1,0-0.1-0.1c0,0,0-0.1,0-0.2l9.3-19.6
				c0,0,0.1-0.1,0.1-0.1c0,0,0.1,0,0.1,0l56.7,26.8c0.1,0,0.1,0.1,0.1,0.2C396.5,174.8,396.5,174.9,396.4,174.9z M330.7,167.4
				l64.7,7l-55.6-26.3L330.7,167.4z"/>
		</g>
		<g id="triangle36_83_">
			<path class="st7" d="M339.7,148.1C339.7,148.1,339.6,148.1,339.7,148.1c-0.1,0-0.2-0.1-0.2-0.2L335.9,95c0-0.1,0-0.1,0.1-0.2
				c0.1,0,0.1,0,0.2,0l34.5,30.4c0,0,0.1,0.1,0.1,0.1c0,0.1,0,0.1-0.1,0.1L339.8,148C339.8,148.1,339.7,148.1,339.7,148.1z
				 M336.3,95.4l3.6,52.2l30.5-22.2L336.3,95.4z"/>
		</g>
		<g id="triangle36_82_">
			<path class="st7" d="M370.6,125.6c0,0-0.1,0-0.1,0L336,95.1c0,0-0.1-0.1-0.1-0.2c0-0.1,0.1-0.1,0.1-0.1l32.4-12.3
				c0.1,0,0.1,0,0.2,0c0,0,0.1,0.1,0.1,0.1l2.1,42.7C370.7,125.5,370.7,125.5,370.6,125.6C370.6,125.6,370.6,125.6,370.6,125.6z
				 M336.4,95l34,30L368.3,83L336.4,95z"/>
		</g>
		<g id="triangle36_81_">
			<path class="st7" d="M368.4,82.9C368.4,82.9,368.4,82.9,368.4,82.9c-0.1,0-0.1-0.1-0.2-0.1L357,19.3c0,0,0-0.1,0-0.1
				c0,0,0.1-0.1,0.1-0.1l64.5-8.8c0.1,0,0.1,0,0.2,0.1c0,0.1,0,0.1,0,0.2l-53.2,72.2C368.6,82.9,368.5,82.9,368.4,82.9z M357.4,19.4
				l11.2,62.8l52.7-71.6L357.4,19.4z"/>
		</g>
		<g id="triangle36_80_">
			<path class="st7" d="M370.6,125.6C370.5,125.6,370.5,125.6,370.6,125.6c-0.1-0.1-0.2-0.1-0.2-0.2l-2.1-42.7c0-0.1,0-0.1,0.1-0.2
				c0.1,0,0.1,0,0.2,0.1l26.9,33.4c0,0,0,0.1,0,0.2c0,0.1-0.1,0.1-0.1,0.1L370.6,125.6C370.6,125.6,370.6,125.6,370.6,125.6z
				 M368.7,83.2l2.1,41.9l24.3-9.2L368.7,83.2z"/>
		</g>
		<g id="triangle36_79_">
			<path class="st7" d="M395.3,116.3c0,0-0.1,0-0.1-0.1l-26.9-33.4c0-0.1-0.1-0.1,0-0.2c0-0.1,0.1-0.1,0.2-0.1l48,15.4
				c0.1,0,0.1,0.1,0.1,0.1c0,0.1,0,0.1-0.1,0.2l-21.1,17.9C395.4,116.2,395.4,116.3,395.3,116.3z M368.9,83.1l26.4,32.8l20.8-17.6
				L368.9,83.1z"/>
		</g>
		<g id="triangle36_78_">
			<path class="st7" d="M416.5,98.3C416.4,98.3,416.4,98.3,416.5,98.3l-48.1-15.5c-0.1,0-0.1-0.1-0.1-0.1c0-0.1,0-0.1,0-0.2
				l53.2-72.2c0-0.1,0.1-0.1,0.2-0.1c0.1,0,0.1,0.1,0.1,0.2l-5.2,87.7c0,0.1,0,0.1-0.1,0.1C416.5,98.3,416.5,98.3,416.5,98.3z
				 M368.7,82.6l47.6,15.3l5.1-86.9L368.7,82.6z"/>
		</g>
		<g id="triangle36_77_">
			<path class="st7" d="M499,283.5c-0.1,0-0.1,0-0.1-0.1l-16.6-32.1c0-0.1,0-0.2,0.1-0.2c0.1,0,0.2,0,0.2,0L513,284
				c0,0.1,0.1,0.1,0,0.2c0,0.1-0.1,0.1-0.2,0.1L499,283.5C499,283.5,499,283.5,499,283.5z M483.1,252.3l16,30.9l13.4,0.7
				L483.1,252.3z"/>
		</g>
		<g id="triangle36_76_">
			<path class="st7" d="M512.9,284.3c0,0-0.1,0-0.1-0.1l-30.5-32.9c-0.1-0.1-0.1-0.1,0-0.2c0-0.1,0.1-0.1,0.2-0.1l58.1,21.6
				c0.1,0,0.1,0.1,0.1,0.2c0,0.1,0,0.1-0.1,0.2L512.9,284.3C513,284.3,512.9,284.3,512.9,284.3z M483,251.6l30,32.3l27.1-11.1
				L483,251.6z"/>
		</g>
		<g id="triangle36_75_">
			<path class="st7" d="M493.5,311.2C493.5,311.2,493.5,311.2,493.5,311.2c-0.1,0-0.2-0.1-0.2-0.2l5.4-27.7c0-0.1,0.1-0.1,0.2-0.1
				l13.9,0.8c0.1,0,0.1,0,0.1,0.1c0,0.1,0,0.1,0,0.2l-19.4,26.9C493.6,311.2,493.6,311.2,493.5,311.2z M499.1,283.6l-5.3,26.8
				l18.7-26L499.1,283.6z"/>
		</g>
		<g id="triangle36_71_">
			<path class="st7" d="M483.8,287.8C483.8,287.8,483.8,287.7,483.8,287.8c-0.2-0.1-0.2-0.2-0.1-0.3l2.7-4.5c0-0.1,0.1-0.1,0.2-0.1
				c0.1,0,0.1,0.1,0.1,0.1l0.1,0.7c0,0,0,0.1,0,0.1l-2.8,3.8C483.9,287.7,483.9,287.8,483.8,287.8z M486.4,283.6l-0.7,1.2l0.7-1
				L486.4,283.6z"/>
		</g>
		<g id="triangle36_70_">
			<path class="st7" d="M483.8,287.8c-0.1,0-0.1,0-0.1-0.1c0-0.1,0-0.1,0-0.2l2.8-3.8c0,0,0.1-0.1,0.1-0.1l12.4-0.4
				c0.1,0,0.2,0.1,0.2,0.1c0,0.1,0,0.2-0.1,0.2L483.8,287.8C483.8,287.8,483.8,287.8,483.8,287.8z M486.7,284l-2.4,3.3l13.3-3.7
				L486.7,284z"/>
		</g>
		<g id="triangle36_69_">
			<path class="st7" d="M493.5,311.2c-0.1,0-0.1,0-0.1-0.1l-9.7-23.5c0,0,0-0.1,0-0.1c0,0,0.1-0.1,0.1-0.1l15.2-4.2
				c0.1,0,0.1,0,0.2,0c0,0,0.1,0.1,0.1,0.2l-5.4,27.7C493.7,311.2,493.6,311.2,493.5,311.2C493.6,311.2,493.5,311.2,493.5,311.2z
				 M484.1,287.7l9.4,22.8l5.3-26.9L484.1,287.7z"/>
		</g>
		<g id="triangle36_68_">
			<path class="st7" d="M315.8,213.2c0,0-0.1,0-0.1-0.1c0,0,0-0.1,0-0.2l14.6-45.4c0-0.1,0.1-0.1,0.1-0.1c0.1,0,0.1,0,0.2,0l48,37.6
				c0.1,0,0.1,0.1,0.1,0.2c0,0.1-0.1,0.1-0.1,0.1L315.8,213.2C315.8,213.2,315.8,213.2,315.8,213.2z M330.5,167.8l-14.4,45L378,205
				L330.5,167.8z"/>
		</g>
		<g id="triangle36_67_">
			<path class="st7" d="M351.4,233.1C351.4,233.1,351.3,233.1,351.4,233.1l-35.6-20c-0.1,0-0.1-0.1-0.1-0.2c0-0.1,0.1-0.1,0.1-0.1
				l62.6-7.8c0.1,0,0.1,0,0.2,0.1c0,0.1,0,0.1,0,0.2l-27.1,27.8C351.5,233.1,351.4,233.1,351.4,233.1z M316.4,213.1l35,19.7
				l26.6-27.4L316.4,213.1z"/>
		</g>
		<g id="triangle36_66_">
			<path class="st7" d="M378.4,205.3C378.4,205.3,378.4,205.3,378.4,205.3l-48.1-37.7c-0.1,0-0.1-0.1-0.1-0.2c0-0.1,0.1-0.1,0.2-0.1
				l66,7.2c0.1,0,0.1,0,0.1,0.1c0,0.1,0,0.1,0,0.2l-18,30.4C378.6,205.3,378.5,205.3,378.4,205.3
				C378.5,205.3,378.4,205.3,378.4,205.3z M331,167.8l47.4,37.1l17.7-30L331,167.8z"/>
		</g>
		<g id="triangle36_65_">
			<path class="st7" d="M368.2,240.2C368.1,240.2,368.1,240.2,368.2,240.2l-16.8-7.1c-0.1,0-0.1-0.1-0.1-0.1c0-0.1,0-0.1,0-0.2
				l27.1-27.8c0.1-0.1,0.1-0.1,0.2,0c0.1,0,0.1,0.1,0.1,0.2l-10.3,34.9C368.3,240.2,368.3,240.2,368.2,240.2
				C368.2,240.2,368.2,240.2,368.2,240.2z M351.7,232.9l16.4,6.9l10-34.1L351.7,232.9z"/>
		</g>
		<g id="triangle36_64_">
			<path class="st7" d="M368.2,240.2c0,0-0.1,0-0.1-0.1c0,0,0-0.1,0-0.2l10.3-34.9c0-0.1,0.1-0.1,0.1-0.1c0.1,0,0.1,0,0.2,0.1
				l31,33.8c0,0,0.1,0.1,0,0.2c0,0.1-0.1,0.1-0.2,0.1L368.2,240.2C368.2,240.2,368.2,240.2,368.2,240.2z M378.5,205.5l-10.1,34.4
				l40.7-1.1L378.5,205.5z"/>
		</g>
		<g id="triangle36_63_">
			<path class="st7" d="M378.4,205.3c0,0-0.1,0-0.1-0.1c0-0.1-0.1-0.1,0-0.2l18-30.4c0,0,0.1-0.1,0.1-0.1c0.1,0,0.1,0,0.1,0
				l17.2,14.9c0,0,0.1,0.1,0.1,0.2c0,0.1,0,0.1-0.1,0.1L378.4,205.3C378.5,205.3,378.5,205.3,378.4,205.3z M396.5,175l-17.6,29.8
				l34.4-15.2L396.5,175z"/>
		</g>
		<g id="triangle36_62_">
			<path class="st7" d="M409.5,239.1c0,0-0.1,0-0.1-0.1l-31-33.8c0,0-0.1-0.1,0-0.2c0-0.1,0.1-0.1,0.1-0.1l47.9-11.2
				c0.1,0,0.1,0,0.2,0.1c0,0,0.1,0.1,0,0.2l-16.9,45C409.6,239.1,409.6,239.1,409.5,239.1C409.5,239.1,409.5,239.1,409.5,239.1z
				 M378.8,205.3l30.6,33.4l16.7-44.5L378.8,205.3z"/>
		</g>
		<g id="triangle36_61_">
			<path class="st7" d="M378.4,205.3c-0.1,0-0.1,0-0.2-0.1c0-0.1,0-0.2,0.1-0.2l35.1-15.5c0,0,0.1,0,0.1,0l12.8,4.3
				c0.1,0,0.1,0.1,0.1,0.2c0,0.1-0.1,0.1-0.1,0.2L378.4,205.3C378.5,205.3,378.4,205.3,378.4,205.3z M413.6,189.9l-33.4,14.7
				l45.6-10.7L413.6,189.9z"/>
		</g>
		<g id="triangle36_56_">
			<path class="st7" d="M477.4,290.6C477.4,290.6,477.4,290.6,477.4,290.6l-31.7-4.8c-0.1,0-0.1-0.1-0.1-0.2c0-0.1,0.1-0.2,0.2-0.2
				l40.7-2.5c0.1,0,0.1,0,0.2,0.1c0,0.1,0,0.1-0.1,0.2l-9,7.3C477.5,290.6,477.5,290.6,477.4,290.6z M447.4,285.7l30,4.6l8.5-7
				L447.4,285.7z"/>
		</g>
		<g id="triangle36_55_">
			<path class="st7" d="M493.5,311.2C493.5,311.2,493.5,311.2,493.5,311.2l-47.8-25.4c-0.1,0-0.1-0.1-0.1-0.2c0-0.1,0.1-0.1,0.2-0.1
				l31.6,4.8c0,0,0.1,0,0.1,0.1l16.1,20.6c0.1,0.1,0,0.2,0,0.2C493.6,311.2,493.6,311.2,493.5,311.2z M446.8,286l46.1,24.6
				l-15.5-19.9L446.8,286z"/>
		</g>
		<g id="triangle36_54_">
			<path class="st7" d="M477.4,290.6c-0.1,0-0.1,0-0.1-0.1c0-0.1,0-0.2,0-0.2l9-7.3c0.1-0.1,0.2-0.1,0.2,0c0.1,0.1,0.1,0.1,0,0.2
				l-2.7,4.5c0,0,0,0.1-0.1,0.1L477.4,290.6C477.5,290.6,477.5,290.6,477.4,290.6z M485.8,283.8l-7.3,5.9l5.1-2.3L485.8,283.8z
				 M483.8,287.6L483.8,287.6L483.8,287.6z"/>
		</g>
		<g id="triangle36_53_">
			<path class="st7" d="M493.5,311.2c0,0-0.1,0-0.1-0.1l-16.1-20.6c0,0,0-0.1,0-0.1c0-0.1,0-0.1,0.1-0.1l6.4-2.9c0,0,0.1,0,0.1,0
				c0,0,0.1,0.1,0.1,0.1l9.7,23.5C493.7,311.1,493.7,311.2,493.5,311.2C493.6,311.2,493.6,311.2,493.5,311.2z M477.7,290.5
				l15.2,19.5l-9.2-22.2L477.7,290.5z"/>
		</g>
		<g id="triangle36_52_">
			<path class="st7" d="M174,210.6c-0.1,0-0.1-0.1-0.2-0.1c0-0.1,0-0.2,0.1-0.2l40.4-20.5c0,0,0.1,0,0.1,0c0,0,0.1,0,0.1,0.1
				l7.2,14.8c0,0,0,0.1,0,0.2c0,0-0.1,0.1-0.1,0.1L174,210.6C174,210.6,174,210.6,174,210.6z M214.3,190.2l-39.4,20l46.4-5.5
				L214.3,190.2z"/>
		</g>
		<g id="triangle36_51_">
			<path class="st7" d="M221.6,205C221.6,205,221.6,205,221.6,205c-0.1,0-0.1,0-0.1-0.1l-7.2-14.8c0,0,0-0.1,0-0.2
				c0,0,0.1-0.1,0.1-0.1l24.4-3.3c0.1,0,0.1,0,0.2,0.1c0,0.1,0,0.1,0,0.2l-17.2,18.2C221.7,204.9,221.6,205,221.6,205z M214.6,190.1
				l7,14.4l16.7-17.6L214.6,190.1z"/>
		</g>
		<g id="triangle36_49_">
			<path class="st7" d="M295.5,112.3C295.5,112.3,295.5,112.3,295.5,112.3c-0.1,0-0.2-0.1-0.2-0.2l9.3-28.7c0-0.1,0.1-0.1,0.2-0.1
				c0.1,0,0.1,0.1,0.1,0.2l-9.3,28.7C295.7,112.3,295.6,112.3,295.5,112.3z"/>
		</g>
		<g id="triangle36_48_">
			<path class="st7" d="M295.5,112.3c0,0-0.1,0-0.1,0c0,0-0.1-0.1,0-0.2l9.3-28.7c0,0,0-0.1,0.1-0.1c0,0,0.1,0,0.1,0l31.2,11.5
				c0.1,0,0.1,0.1,0.1,0.2c0,0.1,0,0.1-0.1,0.2L295.5,112.3C295.6,112.3,295.6,112.3,295.5,112.3z M305,83.7l-9.1,28.2L335.6,95
				L305,83.7z"/>
		</g>
		<g id="triangle36_47_">
			<path class="st7" d="M304.5,150c-0.1,0-0.1-0.1-0.2-0.1l-9-37.7c0-0.1,0-0.1,0.1-0.2c0.1,0,0.1,0,0.2,0l44.2,35.7
				c0.1,0,0.1,0.1,0.1,0.2c0,0.1-0.1,0.1-0.2,0.1L304.5,150C304.5,150,304.5,150,304.5,150z M295.8,112.6l8.8,37l34.6-1.9
				L295.8,112.6z"/>
		</g>
		<g id="triangle36_46_">
			<path class="st7" d="M339.7,148.1C339.6,148.1,339.6,148,339.7,148.1l-44.2-35.8c0,0-0.1-0.1-0.1-0.2c0-0.1,0-0.1,0.1-0.1
				L336,94.8c0.1,0,0.1,0,0.2,0c0,0,0.1,0.1,0.1,0.1l3.6,52.9C339.9,148,339.8,148,339.7,148.1C339.7,148.1,339.7,148.1,339.7,148.1
				z M295.9,112.2l43.6,35.3l-3.6-52.3L295.9,112.2z"/>
		</g>
		<g id="triangle36_42_">
			<path class="st7" d="M278.9,174.5c0,0-0.1,0-0.1-0.1c-0.1-0.1,0-0.2,0-0.2l25.6-24.5c0,0,0.1-0.1,0.2,0c0.1,0,0.1,0.1,0.1,0.1
				l1,6.9c0,0.1,0,0.1-0.1,0.2l-26.6,17.6C279,174.5,279,174.5,278.9,174.5z M304.4,150.2l-24,22.9l24.9-16.5L304.4,150.2z"/>
		</g>
		<g id="triangle36_41_">
			<path class="st7" d="M278.9,174.5c-0.1,0-0.1,0-0.1-0.1c0-0.1,0-0.2,0.1-0.2l26.6-17.6c0.1,0,0.1,0,0.2,0l15.3,13
				c0.1,0,0.1,0.1,0.1,0.2c0,0.1-0.1,0.1-0.1,0.1L278.9,174.5C279,174.5,279,174.5,278.9,174.5z M305.5,157l-25.9,17.1l40.8-4.4
				L305.5,157z"/>
		</g>
		<g id="triangle36_40_">
			<path class="st7" d="M315.8,213.2c0,0-0.1,0-0.1-0.1l-36.9-38.7c0,0-0.1-0.1,0-0.2c0-0.1,0.1-0.1,0.1-0.1l41.9-4.5
				c0.1,0,0.1,0,0.1,0c0,0,0.1,0.1,0,0.1l-5,43.2C316,213.1,316,213.1,315.8,213.2C315.9,213.2,315.8,213.2,315.8,213.2z
				 M279.3,174.4l36.4,38.2l4.9-42.6L279.3,174.4z"/>
		</g>
		<g id="triangle36_39_">
			<path class="st7" d="M396.4,174.9C396.4,174.9,396.3,174.9,396.4,174.9c-0.2-0.1-0.2-0.2-0.2-0.2l19-57.6c0,0,0.1-0.1,0.1-0.1
				c0,0,0.1,0,0.1,0l45.2,22.4c0.1,0,0.1,0.1,0.1,0.1c0,0.1,0,0.1-0.1,0.2L396.4,174.9C396.5,174.9,396.4,174.9,396.4,174.9z
				 M415.5,117.4l-18.8,57l63.5-34.9L415.5,117.4z"/>
		</g>
		<g id="triangle36_38_">
			<path class="st7" d="M396.4,174.9c-0.1,0-0.1-0.1-0.2-0.1c0-0.1,0-0.2,0.1-0.2l64.2-35.2c0,0,0.1,0,0.1,0c0,0,0.1,0.1,0.1,0.1
				l11.6,31.7c0,0.1,0,0.1,0,0.2c0,0-0.1,0.1-0.1,0.1L396.4,174.9C396.4,174.9,396.4,174.9,396.4,174.9z M460.5,139.7l-63.4,34.8
				l74.8-3.5L460.5,139.7z"/>
		</g>
		<g id="triangle36_37_">
			<path class="st7" d="M460.6,139.7C460.6,139.7,460.6,139.7,460.6,139.7l-45.3-22.4c-0.1,0-0.1-0.1-0.1-0.2c0-0.1,0.1-0.1,0.2-0.1
				l50.4,6c0.1,0,0.1,0,0.1,0.1c0,0,0,0.1,0,0.1l-5.2,16.4C460.8,139.6,460.7,139.6,460.6,139.7
				C460.7,139.7,460.6,139.7,460.6,139.7z M416.4,117.4l44.1,21.9l5.1-16L416.4,117.4z"/>
		</g>
		<g id="triangle36_36_">
			<path class="st7" d="M460.6,139.7c0,0-0.1,0-0.1-0.1c0,0,0-0.1,0-0.2l5.2-16.4c0,0,0-0.1,0.1-0.1c0,0,0.1,0,0.1,0l36.5,16.2
				c0.1,0,0.1,0.1,0.1,0.2c0,0.1-0.1,0.1-0.2,0.1L460.6,139.7C460.6,139.7,460.6,139.7,460.6,139.7z M466,123.4l-5.1,15.9l40.7-0.1
				L466,123.4z"/>
		</g>
		<g id="triangle36_35_">
			<path class="st7" d="M472.2,171.4c-0.1,0-0.1,0-0.1-0.1l-11.6-31.7c0-0.1,0-0.1,0.1-0.2c0.1,0,0.1,0,0.2,0l40,27
				c0.1,0,0.1,0.1,0.1,0.2c0,0.1-0.1,0.1-0.1,0.1L472.2,171.4C472.2,171.4,472.2,171.4,472.2,171.4z M461,139.9l11.3,31.1l27.9-4.6
				L461,139.9z"/>
		</g>
		<g id="triangle36_34_">
			<path class="st7" d="M500.6,166.6C500.6,166.6,500.6,166.6,500.6,166.6l-40.1-27c-0.1,0-0.1-0.1-0.1-0.2c0-0.1,0.1-0.1,0.2-0.1
				l41.8-0.1c0,0,0.1,0,0.1,0.1c0,0,0,0.1,0,0.1l-1.8,27.1C500.8,166.5,500.8,166.6,500.6,166.6
				C500.7,166.6,500.6,166.6,500.6,166.6z M461.2,139.7l39.3,26.5l1.7-26.6L461.2,139.7z"/>
		</g>
		<g id="triangle36_29_">
			<path class="st7" d="M221.6,205c-0.1,0-0.1,0-0.1-0.1c0-0.1,0-0.2,0-0.2l17.2-18.2c0,0,0.1-0.1,0.1-0.1l31.7,1.8c0,0,0,0,0,0
				c0.1,0,0.1,0.1,0.2,0.1c0,0.1,0,0.2-0.1,0.2L221.6,205C221.6,205,221.6,205,221.6,205z M238.8,186.8l-16.6,17.6l47.3-15.9
				L238.8,186.8z"/>
		</g>
		<g id="triangle36_28_">
			<path class="st7" d="M258.2,238.5c0,0-0.1,0-0.1,0l-36.7-33.6c0,0-0.1-0.1-0.1-0.2c0-0.1,0.1-0.1,0.1-0.1l48.8-16.4
				c0.1,0,0.1,0,0.2,0c0,0,0.1,0.1,0.1,0.2l-12.2,50C258.4,238.5,258.4,238.5,258.2,238.5C258.3,238.5,258.3,238.5,258.2,238.5z
				 M221.9,204.9l36.2,33.2l12-49.4L221.9,204.9z"/>
		</g>
		<g id="triangle36_27_">
			<path class="st7" d="M238.7,186.8c-0.1,0-0.1-0.1-0.2-0.2c0-0.1,0-0.2,0.1-0.2l40.2-12.3c0.1,0,0.1,0,0.2,0.1c0,0.1,0,0.1,0,0.2
				l-8.5,14.1c0,0.1-0.1,0.1-0.2,0.1L238.7,186.8C238.7,186.8,238.7,186.8,238.7,186.8z M278.6,174.6l-38.9,11.9l30.6,1.7
				L278.6,174.6z"/>
		</g>
		<g id="triangle36_26_">
			<path class="st7" d="M258.2,238.5C258.2,238.5,258.2,238.5,258.2,238.5c-0.1-0.1-0.2-0.1-0.2-0.2l12.2-50c0-0.1,0-0.1,0.1-0.1
				c0,0,0.1,0,0.2,0l45.4,24.6c0.1,0,0.1,0.1,0.1,0.2c0,0.1,0,0.1-0.1,0.1L258.2,238.5C258.3,238.5,258.3,238.5,258.2,238.5z
				 M270.5,188.7l-12,49.4l56.9-25.1L270.5,188.7z"/>
		</g>
		<g id="triangle36_25_">
			<path class="st7" d="M315.8,213.2C315.8,213.2,315.8,213.1,315.8,213.2l-45.5-24.6c0,0-0.1-0.1-0.1-0.1c0,0,0-0.1,0-0.1l8.5-14.1
				c0,0,0.1-0.1,0.1-0.1c0.1,0,0.1,0,0.1,0.1l36.9,38.7c0.1,0.1,0.1,0.2,0,0.2C315.9,213.1,315.9,213.2,315.8,213.2z M270.7,188.3
				l44.3,24l-36-37.7L270.7,188.3z"/>
		</g>
		<g id="triangle36_24_">
			<path class="st7" d="M459,208.5C459,208.5,459,208.5,459,208.5l-32.7-14.5c-0.1,0-0.1-0.1-0.1-0.2c0-0.1,0-0.1,0.1-0.2l45.8-22.7
				c0.1,0,0.1,0,0.2,0c0.1,0,0.1,0.1,0,0.2l-13.1,37.2C459.2,208.5,459.1,208.5,459,208.5C459.1,208.5,459,208.5,459,208.5z
				 M426.8,193.9l32.1,14.2l12.9-36.6L426.8,193.9z"/>
		</g>
		<g id="triangle36_23_">
			<path class="st7" d="M459,208.5c0,0-0.1,0-0.1-0.1c0,0-0.1-0.1,0-0.2l13.1-37.2c0-0.1,0.1-0.1,0.1-0.1c0.1,0,0.1,0,0.2,0.1
				l25.8,30c0,0,0.1,0.1,0,0.2c0,0.1-0.1,0.1-0.1,0.1L459,208.5C459,208.5,459,208.5,459,208.5z M472.2,171.5l-12.9,36.6l38.4-7.1
				L472.2,171.5z"/>
		</g>
		<g id="triangle36_22_">
			<path class="st7" d="M482.4,251.4c-0.1,0-0.1,0-0.1-0.1l-23.3-42.9c0-0.1,0-0.1,0-0.2c0-0.1,0.1-0.1,0.2-0.1l48.6,1.5
				c0.1,0,0.1,0,0.1,0.1c0,0.1,0,0.1,0,0.2l-25.2,41.3C482.5,251.4,482.4,251.4,482.4,251.4C482.4,251.4,482.4,251.4,482.4,251.4z
				 M459.3,208.6l23.1,42.3l24.9-40.8L459.3,208.6z"/>
		</g>
		<g id="triangle36_21_">
			<path class="st7" d="M459,208.5c-0.1,0-0.2-0.1-0.2-0.2c0-0.1,0.1-0.2,0.1-0.2l39-7.2c0.1,0,0.1,0,0.1,0l9.6,8.7
				c0.1,0,0.1,0.1,0,0.2c0,0.1-0.1,0.1-0.2,0.1L459,208.5C459,208.5,459,208.5,459,208.5z M497.9,201.4l-37.3,6.9l46.5,1.5
				L497.9,201.4z"/>
		</g>
		<g id="triangle36_20_">
			<path class="st7" d="M304.8,83.7c-0.1,0-0.1,0-0.1-0.1c0-0.1,0-0.2,0.1-0.2l33-19.3c0.1,0,0.2,0,0.2,0.1c0,0.1,0,0.2-0.1,0.2
				L304.8,83.7C304.9,83.7,304.9,83.7,304.8,83.7z"/>
		</g>
		<g id="triangle36_19_">
			<path class="st7" d="M336.1,95.1C336,95.1,336,95.1,336.1,95.1l-31.3-11.5c-0.1,0-0.1-0.1-0.1-0.1c0-0.1,0-0.1,0.1-0.2l33-19.3
				c0.1,0,0.1,0,0.2,0c0.1,0,0.1,0.1,0.1,0.2L336.2,95c0,0.1,0,0.1-0.1,0.1C336.1,95.1,336.1,95.1,336.1,95.1z M305.3,83.5
				l30.7,11.3l1.8-30.3L305.3,83.5z"/>
		</g>
		<g id="triangle36_18_">
			<path class="st7" d="M336.1,95.1C336,95.1,336,95.1,336.1,95.1c-0.1-0.1-0.2-0.1-0.2-0.2l1.8-30.8c0-0.1,0-0.1,0.1-0.1
				c0.1,0,0.1,0,0.2,0l30.6,18.6c0.1,0,0.1,0.1,0.1,0.2c0,0.1,0,0.1-0.1,0.1L336.1,95.1C336.1,95.1,336.1,95.1,336.1,95.1z
				 M338,64.5l-1.8,30.3l31.8-12L338,64.5z"/>
		</g>
		<g id="triangle36_17_">
			<path class="st7" d="M337.9,64.3C337.9,64.3,337.9,64.3,337.9,64.3c-0.1,0-0.2-0.1-0.2-0.2l6.3-49.8c0-0.1,0-0.1,0.1-0.1
				c0,0,0.1,0,0.1,0l12.9,4.9c0,0,0.1,0.1,0.1,0.1c0,0,0,0.1,0,0.1l-19.3,44.9C338,64.3,338,64.3,337.9,64.3z M344.4,14.6L338.2,63
				l18.7-43.6L344.4,14.6z"/>
		</g>
		<g id="triangle36_16_">
			<path class="st7" d="M368.4,82.9C368.4,82.9,368.4,82.9,368.4,82.9l-30.6-18.6c-0.1,0-0.1-0.1-0.1-0.2L357,19.2
				c0-0.1,0.1-0.1,0.2-0.1c0.1,0,0.1,0.1,0.1,0.1l11.3,63.4c0,0.1,0,0.1-0.1,0.2C368.5,82.9,368.5,82.9,368.4,82.9z M338.1,64.1
				l30.1,18.3l-11.1-62.5L338.1,64.1z"/>
		</g>
		<g id="triangle36_15_">
			<path class="st7" d="M409.5,239.1C409.4,239.1,409.4,239.1,409.5,239.1c-0.2-0.1-0.2-0.2-0.1-0.2l16.9-45c0-0.1,0.1-0.1,0.1-0.1
				c0.1,0,0.1,0,0.2,0.1l17.1,24.9c0,0,0,0.1,0,0.1c0,0,0,0.1-0.1,0.1L409.5,239.1C409.5,239.1,409.5,239.1,409.5,239.1z
				 M426.4,194.3l-16.6,44.3l33.4-19.7L426.4,194.3z"/>
		</g>
		<g id="triangle36_14_">
			<path class="st7" d="M442,249.3C442,249.3,442,249.3,442,249.3l-32.6-10.2c-0.1,0-0.1-0.1-0.1-0.1c0-0.1,0-0.1,0.1-0.2l34-20.1
				c0.1,0,0.1,0,0.2,0c0.1,0,0.1,0.1,0.1,0.2l-1.4,30.3c0,0.1,0,0.1-0.1,0.1C442.1,249.3,442.1,249.3,442,249.3z M409.9,238.9l32,10
				l1.4-29.7L409.9,238.9z"/>
		</g>
		<g id="triangle36_13_">
			<path class="st7" d="M443.4,219c-0.1,0-0.1,0-0.1-0.1L426.2,194c0-0.1,0-0.1,0-0.2c0-0.1,0.1-0.1,0.2,0l32.6,14.4
				c0.1,0,0.1,0.1,0.1,0.1c0,0.1,0,0.1-0.1,0.2L443.6,219C443.5,219,443.5,219,443.4,219z M426.9,194.3l16.6,24.3l15.2-10.2
				L426.9,194.3z"/>
		</g>
		<g id="triangle36_12_">
			<path class="st7" d="M442,249.3c0,0-0.1,0-0.1,0c0,0-0.1-0.1,0-0.1l1.4-30.3c0-0.1,0.1-0.2,0.1-0.2c0.1,0,0.2,0,0.2,0.1l10,29.8
				c0,0.1,0,0.1,0,0.2s-0.1,0.1-0.1,0.1L442,249.3C442,249.3,442,249.3,442,249.3z M443.6,219.8l-1.4,29.2l11.1-0.5L443.6,219.8z"/>
		</g>
		<g id="triangle36_11_">
			<path class="st7" d="M482.4,251.4C482.4,251.4,482.4,251.4,482.4,251.4l-28.9-2.6c-0.1,0-0.1-0.1-0.1-0.1l-10-29.8
				c0-0.1,0-0.2,0.1-0.2c0.1,0,0.1,0,0.2,0l38.9,32.4c0.1,0,0.1,0.1,0,0.2C482.5,251.4,482.4,251.4,482.4,251.4z M453.6,248.5
				l28.2,2.5l-38-31.6L453.6,248.5z"/>
		</g>
		<g id="triangle36_10_">
			<path class="st7" d="M482.4,251.4C482.3,251.4,482.3,251.4,482.4,251.4l-39-32.4c0,0-0.1-0.1-0.1-0.1c0-0.1,0-0.1,0.1-0.1
				l15.6-10.5c0,0,0.1,0,0.1,0c0,0,0.1,0,0.1,0.1l23.3,42.9c0,0.1,0,0.2,0,0.2C482.5,251.4,482.4,251.4,482.4,251.4z M443.7,218.9
				l38.1,31.7L459,208.6L443.7,218.9z"/>
		</g>
		<g id="triangle36_9_">
			<path class="st7" d="M203.6,293.4C203.6,293.4,203.6,293.4,203.6,293.4c-0.1-0.1-0.2-0.1-0.2-0.2l6-30.5c0,0,0-0.1,0.1-0.1
				c0,0,0.1,0,0.1,0l39.1,9.8c0.1,0,0.1,0.1,0.1,0.2c0,0.1,0,0.1-0.1,0.2L203.6,293.4C203.7,293.4,203.7,293.4,203.6,293.4z
				 M209.8,262.9l-5.9,30l44.4-20.4L209.8,262.9z"/>
		</g>
		<g id="triangle36_8_">
			<path class="st7" d="M231.6,304.8C231.6,304.8,231.6,304.8,231.6,304.8l-28-11.4c-0.1,0-0.1-0.1-0.1-0.2c0-0.1,0-0.1,0.1-0.2
				l45.1-20.7c0.1,0,0.1,0,0.2,0c0.1,0.1,0.1,0.1,0,0.2l-17.2,32.1C231.7,304.8,231.7,304.8,231.6,304.8z M204.1,293.2l27.4,11.2
				l16.9-31.6L204.1,293.2z"/>
		</g>
		<g id="triangle36_7_">
			<path class="st7" d="M248.8,272.7C248.7,272.7,248.7,272.7,248.8,272.7l-39.2-9.8c-0.1,0-0.1-0.1-0.1-0.1c0-0.1,0-0.1,0.1-0.2
				l21.3-11.3c0.1,0,0.2,0,0.2,0l17.9,21.1c0,0.1,0.1,0.1,0,0.2C248.9,272.7,248.8,272.7,248.8,272.7z M210.1,262.7l38.2,9.6
				l-17.4-20.6L210.1,262.7z"/>
		</g>
		<g id="triangle36_6_">
			<path class="st7" d="M248.8,272.7c0,0-0.1,0-0.1-0.1l-17.9-21.1c-0.1-0.1-0.1-0.1,0-0.2c0-0.1,0.1-0.1,0.2-0.1l14.3,5.6
				c0.1,0,0.1,0.1,0.1,0.1l3.5,15.6C248.9,272.6,248.9,272.6,248.8,272.7C248.8,272.7,248.8,272.7,248.8,272.7z M231.5,251.8
				l17,20.1l-3.3-14.8L231.5,251.8z"/>
		</g>
		<g id="triangle36_5_">
			<path class="st7" d="M231.6,304.8c0,0-0.1,0-0.1,0c-0.1-0.1-0.1-0.1,0-0.2l17.2-32.1c0,0,0.1-0.1,0.1-0.1l48.3-5.2
				c0.1,0,0.2,0,0.2,0.1c0,0.1,0,0.2-0.1,0.2L231.6,304.8C231.7,304.8,231.6,304.8,231.6,304.8z M248.9,272.7L232,304.2l64.2-36.6
				L248.9,272.7z"/>
		</g>
		<g id="triangle36_4_">
			<path class="st7" d="M248.8,272.7c-0.1,0-0.1-0.1-0.2-0.1l-3.5-15.6c0-0.1,0-0.1,0-0.2c0,0,0.1-0.1,0.2,0l51.8,10.4
				c0.1,0,0.1,0.1,0.1,0.2c0,0.1-0.1,0.2-0.2,0.2L248.8,272.7C248.8,272.7,248.8,272.7,248.8,272.7z M245.5,257.2l3.4,15.2l47-5.1
				L245.5,257.2z"/>
		</g>
		<g id="triangle36_3_">
			<path class="st7" d="M510.5,323.8C510.5,323.8,510.4,323.8,510.5,323.8l-17.1-12.6c-0.1-0.1-0.1-0.2,0-0.2l19.4-26.9
				c0-0.1,0.1-0.1,0.2-0.1c0.1,0,0.1,0.1,0.1,0.2l-2.4,39.5C510.7,323.7,510.6,323.8,510.5,323.8
				C510.6,323.8,510.5,323.8,510.5,323.8z M493.8,311l16.6,12.3l2.3-38.6L493.8,311z"/>
		</g>
	</g>
	
		<ellipse transform="matrix(6.507507e-02 -0.9979 0.9979 6.507507e-02 89.1674 639.1925)" class="st6" cx="385.7" cy="272" rx="0.9" ry="0.9"/>
	
		<ellipse transform="matrix(6.510476e-02 -0.9979 0.9979 6.510476e-02 71.8154 599.2436)" class="st6" cx="355.7" cy="261.3" rx="0.7" ry="0.7"/>
	
		<ellipse transform="matrix(6.509627e-02 -0.9979 0.9979 6.509627e-02 358.9601 538.122)" class="st1" cx="466.7" cy="77.5" rx="0.9" ry="0.9"/>
	
		<ellipse transform="matrix(6.503213e-02 -0.9979 0.9979 6.503213e-02 374.9142 554.8668)" class="st1" cx="483.6" cy="77.4" rx="0.5" ry="0.5"/>
	
		<ellipse transform="matrix(6.510303e-02 -0.9979 0.9979 6.510303e-02 383.7142 430.578)" class="st6" cx="421.6" cy="10.5" rx="2.5" ry="2.5"/>
	
		<ellipse transform="matrix(6.512935e-02 -0.9979 0.9979 6.512935e-02 400.2234 433.0381)" class="st8" cx="431.2" cy="2.9" rx="1" ry="1"/>
	
		<ellipse transform="matrix(6.514584e-02 -0.9979 0.9979 6.514584e-02 383.6962 430.5764)" class="st1" cx="421.6" cy="10.5" rx="1.4" ry="1.4"/>
	
		<ellipse transform="matrix(6.512365e-02 -0.9979 0.9979 6.512365e-02 358.9474 538.1191)" class="st6" cx="466.7" cy="77.5" rx="1.3" ry="1.3"/>
	
		<ellipse transform="matrix(6.511849e-02 -0.9979 0.9979 6.511849e-02 27.0252 534.713)" class="st3" cx="298.9" cy="252.9" rx="1" ry="1"/>
	
		<ellipse transform="matrix(6.512595e-02 -0.9979 0.9979 6.512595e-02 10.9415 546.317)" class="st6" cx="297" cy="267.3" rx="4.1" ry="4.1"/>
	
		<ellipse transform="matrix(6.512963e-02 -0.9979 0.9979 6.512963e-02 -27.1456 484.9436)" class="st3" cx="245.2" cy="257" rx="2.8" ry="2.8"/>
	
		<ellipse transform="matrix(6.511948e-02 -0.9979 0.9979 6.511948e-02 27.0248 534.7127)" class="st6" cx="298.9" cy="252.9" rx="3.3" ry="3.3"/>
	
		<ellipse transform="matrix(6.510286e-02 -0.9979 0.9979 6.510286e-02 71.816 599.2442)" class="st6" cx="355.7" cy="261.3" rx="0.8" ry="0.8"/>
	
		<ellipse transform="matrix(6.512511e-02 -0.9979 0.9979 6.512511e-02 10.9417 546.3173)" class="st1" cx="297" cy="267.3" rx="1.9" ry="1.9"/>
	
		<ellipse transform="matrix(6.512066e-02 -0.9979 0.9979 6.512066e-02 27.0246 534.7124)" class="st3" cx="298.9" cy="252.9" rx="1.8" ry="1.8"/>
	
		<ellipse transform="matrix(6.512447e-02 -0.9979 0.9979 6.512447e-02 71.8087 599.238)" class="st8" cx="355.7" cy="261.3" rx="1.8" ry="1.8"/>
	
		<ellipse transform="matrix(6.511550e-02 -0.9979 0.9979 6.511550e-02 96.0457 568.4341)" class="st8" cx="351.4" cy="233" rx="1.4" ry="1.4"/>
	
		<ellipse transform="matrix(6.512668e-02 -0.9979 0.9979 6.512668e-02 -102.2354 477.3708)" class="st8" cx="203.7" cy="293.2" rx="3.6" ry="3.6"/>
	
		<ellipse transform="matrix(6.510629e-02 -0.9979 0.9979 6.510629e-02 71.8148 599.2432)" class="st6" cx="355.7" cy="261.3" rx="1.4" ry="1.4"/>
	
		<ellipse transform="matrix(6.512445e-02 -0.9979 0.9979 6.512445e-02 10.9419 546.3175)" class="st8" cx="297" cy="267.3" rx="2.2" ry="2.2"/>
	
		<ellipse transform="matrix(6.511978e-02 -0.9979 0.9979 6.511978e-02 48.3629 656.0102)" class="st6" cx="374.3" cy="302.2" rx="3.5" ry="3.5"/>
	
		<ellipse transform="matrix(6.511570e-02 -0.9979 0.9979 6.511570e-02 48.3645 656.0115)" class="st3" cx="374.3" cy="302.2" rx="2.8" ry="2.8"/>
	
		<ellipse transform="matrix(6.511840e-02 -0.9979 0.9979 6.511840e-02 71.8107 599.2397)" class="st1" cx="355.7" cy="261.3" rx="1.6" ry="1.6"/>
	
		<ellipse transform="matrix(6.512468e-02 -0.9979 0.9979 6.512468e-02 201.6913 382.2647)" class="st1" cx="304.9" cy="83.5" rx="1.9" ry="1.9"/>
	
		<ellipse transform="matrix(6.511644e-02 -0.9979 0.9979 6.511644e-02 131.7439 711.9212)" class="st3" cx="445.8" cy="285.7" rx="4.5" ry="4.5"/>
	
		<ellipse transform="matrix(6.508581e-02 -0.9979 0.9979 6.508581e-02 89.1634 639.1893)" class="st1" cx="385.7" cy="272" rx="0.7" ry="0.7"/>
	
		<ellipse transform="matrix(6.511965e-02 -0.9979 0.9979 6.511965e-02 131.7424 711.9202)" class="st1" cx="445.8" cy="285.7" rx="0.9" ry="0.9"/>
	
		<ellipse transform="matrix(6.513631e-02 -0.9979 0.9979 6.513631e-02 118.3168 644.3882)" class="st6" cx="403.1" cy="259" rx="1.2" ry="1.2"/>
	
		<ellipse transform="matrix(6.513449e-02 -0.9979 0.9979 6.513449e-02 89.1455 639.1748)" class="st1" cx="385.7" cy="272" rx="0.9" ry="0.9"/>
	
		<ellipse transform="matrix(6.512208e-02 -0.9979 0.9979 6.512208e-02 131.7415 711.9195)" class="st1" cx="445.8" cy="285.7" rx="4.4" ry="4.4"/>
	
		<ellipse transform="matrix(6.513025e-02 -0.9979 0.9979 6.513025e-02 164.6298 673.9995)" class="st6" cx="442" cy="249.1" rx="3.5" ry="3.5"/>
	
		<ellipse transform="matrix(6.510602e-02 -0.9979 0.9979 6.510602e-02 118.3285 644.3969)" class="st1" cx="403.1" cy="259" rx="1.6" ry="1.6"/>
	
		<ellipse transform="matrix(6.512132e-02 -0.9979 0.9979 6.512132e-02 270.6029 631.2043)" class="st1" cx="472.2" cy="171.2" rx="1.8" ry="1.8"/>
	
		<ellipse transform="matrix(6.512775e-02 -0.9979 0.9979 6.512775e-02 172.2891 750.1063)" class="st8" cx="486.5" cy="283.1" rx="1.6" ry="1.6"/>
	
		<ellipse transform="matrix(6.512015e-02 -0.9979 0.9979 6.512015e-02 200.2784 716.2206)" class="st1" cx="482.4" cy="251.2" rx="2.7" ry="2.7"/>
	
		<ellipse transform="matrix(6.507293e-02 -0.9979 0.9979 6.507293e-02 171.7505 750.9076)" class="st6" cx="486.6" cy="283.8" rx="0.8" ry="0.8"/>
	
		<ellipse transform="matrix(6.516542e-02 -0.9979 0.9979 6.516542e-02 172.2714 750.0944)" class="st6" cx="486.5" cy="283.1" rx="0.6" ry="0.6"/>
	
		<ellipse transform="matrix(6.512281e-02 -0.9979 0.9979 6.512281e-02 48.3618 656.0092)" class="st8" cx="374.3" cy="302.2" rx="4.7" ry="4.7"/>
	
		<ellipse transform="matrix(6.512199e-02 -0.9979 0.9979 6.512199e-02 131.7415 711.9195)" class="st1" cx="445.8" cy="285.7" rx="2" ry="2"/>
	
		<ellipse transform="matrix(6.509355e-02 -0.9979 0.9979 6.509355e-02 131.7536 711.9285)" class="st1" cx="445.8" cy="285.7" rx="0.3" ry="0.3"/>
	
		<ellipse transform="matrix(6.510425e-02 -0.9979 0.9979 6.510425e-02 200.2858 716.2252)" class="st6" cx="482.4" cy="251.2" rx="0.8" ry="0.8"/>
	
		<ellipse transform="matrix(6.512441e-02 -0.9979 0.9979 6.512441e-02 400.2255 433.0382)" class="st6" cx="431.2" cy="2.9" rx="1.8" ry="1.8"/>
	
		<ellipse transform="matrix(6.511699e-02 -0.9979 0.9979 6.511699e-02 311.3265 537.8025)" class="st1" cx="442.7" cy="102.7" rx="1.2" ry="1.2"/>
	
		<ellipse transform="matrix(6.512828e-02 -0.9979 0.9979 6.512828e-02 312.6376 580.0021)" class="st6" cx="465.9" cy="123.1" rx="1.8" ry="1.8"/>
	
		<ellipse transform="matrix(6.512520e-02 -0.9979 0.9979 6.512520e-02 271.4947 524.0273)" class="st6" cx="415.4" cy="117.1" rx="2.8" ry="2.8"/>
	
		<ellipse transform="matrix(6.513198e-02 -0.9979 0.9979 6.513198e-02 -66.166 454.7952)" class="st6" cx="209.6" cy="262.7" rx="2.6" ry="2.6"/>
	
		<ellipse transform="matrix(6.512658e-02 -0.9979 0.9979 6.512658e-02 -102.2353 477.3709)" class="st1" cx="203.7" cy="293.2" rx="2.2" ry="2.2"/>
	
		<ellipse transform="matrix(6.511404e-02 -0.9979 0.9979 6.511404e-02 -66.1626 454.8002)" class="st1" cx="209.6" cy="262.7" rx="0.8" ry="0.8"/>
	
		<ellipse transform="matrix(6.513000e-02 -0.9979 0.9979 6.513000e-02 -39.5729 426.8614)" class="st3" cx="208" cy="234.6" rx="1.3" ry="1.3"/>
	
		<ellipse transform="matrix(6.512728e-02 -0.9979 0.9979 6.512728e-02 144.3677 631.973)" class="st1" cx="409.5" cy="238.9" rx="1.9" ry="1.9"/>
	
		<ellipse transform="matrix(6.507169e-02 -0.9979 0.9979 6.507169e-02 164.6547 674.0158)" class="st8" cx="442" cy="249.1" rx="0.8" ry="0.8"/>
	
		<ellipse transform="matrix(6.516020e-02 -0.9979 0.9979 6.516020e-02 118.3076 644.3814)" class="st6" cx="403.1" cy="259" rx="0.7" ry="0.7"/>
	
		<ellipse transform="matrix(6.510696e-02 -0.9979 0.9979 6.510696e-02 197.3971 590.0297)" class="st1" cx="413.6" cy="189.7" rx="1.7" ry="1.7"/>
	
		<ellipse transform="matrix(6.511818e-02 -0.9979 0.9979 6.511818e-02 270.6044 631.205)" class="st3" cx="472.2" cy="171.2" rx="2.7" ry="2.7"/>
	
		<ellipse transform="matrix(6.509139e-02 -0.9979 0.9979 6.509139e-02 205.1184 606.7805)" class="st8" cx="426.4" cy="193.9" rx="0.8" ry="0.8"/>
	
		<ellipse transform="matrix(6.512574e-02 -0.9979 0.9979 6.512574e-02 104.6321 591.8339)" class="st6" cx="368.2" cy="240.1" rx="1.3" ry="1.3"/>
	
		<ellipse transform="matrix(6.512811e-02 -0.9979 0.9979 6.512811e-02 71.8074 599.237)" class="st1" cx="355.7" cy="261.3" rx="2.6" ry="2.6"/>
	
		<ellipse transform="matrix(6.510887e-02 -0.9979 0.9979 6.510887e-02 96.048 568.4358)" class="st6" cx="351.4" cy="233" rx="0.7" ry="0.7"/>
	
		<ellipse transform="matrix(6.511320e-02 -0.9979 0.9979 6.511320e-02 104.6366 591.8371)" class="st8" cx="368.2" cy="240.1" rx="1.8" ry="1.8"/>
	
		<ellipse transform="matrix(6.511191e-02 -0.9979 0.9979 6.511191e-02 89.1538 639.1815)" class="st6" cx="385.7" cy="272" rx="3.2" ry="3.2"/>
	
		<ellipse transform="matrix(6.512324e-02 -0.9979 0.9979 6.512324e-02 71.8091 599.2384)" class="st8" cx="355.7" cy="261.3" rx="0.9" ry="0.9"/>
	
		<ellipse transform="matrix(6.512443e-02 -0.9979 0.9979 6.512443e-02 104.6326 591.8341)" class="st3" cx="368.2" cy="240.1" rx="0.7" ry="0.7"/>
	
		<ellipse transform="matrix(6.511470e-02 -0.9979 0.9979 6.511470e-02 118.3252 644.3944)" class="st6" cx="403.1" cy="259" rx="1.4" ry="1.4"/>
	
		<ellipse transform="matrix(6.510326e-02 -0.9979 0.9979 6.510326e-02 89.157 639.1841)" class="st1" cx="385.7" cy="272" rx="2.3" ry="2.3"/>
	
		<ellipse transform="matrix(6.512760e-02 -0.9979 0.9979 6.512760e-02 104.6315 591.8333)" class="st6" cx="368.2" cy="240.1" rx="0.6" ry="0.6"/>
	
		<ellipse transform="matrix(6.512178e-02 -0.9979 0.9979 6.512178e-02 144.3699 631.9744)" class="st6" cx="409.5" cy="238.9" rx="2" ry="2"/>
	
		<ellipse transform="matrix(6.510305e-02 -0.9979 0.9979 6.510305e-02 118.3297 644.3976)" class="st8" cx="403.1" cy="259" rx="0.7" ry="0.7"/>
	
		<ellipse transform="matrix(6.510469e-02 -0.9979 0.9979 6.510469e-02 -34.9715 465.4134)" class="st1" cx="230.9" cy="251.4" rx="1.9" ry="1.9"/>
	
		<ellipse transform="matrix(6.512566e-02 -0.9979 0.9979 6.512566e-02 -66.1648 454.797)" class="st6" cx="209.6" cy="262.7" rx="2.6" ry="2.6"/>
	
		<ellipse transform="matrix(6.511540e-02 -0.9979 0.9979 6.511540e-02 -39.57 426.865)" class="st6" cx="208" cy="234.6" rx="1.4" ry="1.4"/>
	
		<ellipse transform="matrix(6.516139e-02 -0.9979 0.9979 6.516139e-02 169.9778 477.2284)" class="st8" cx="339.7" cy="147.9" rx="0.7" ry="0.7"/>
	
		<ellipse transform="matrix(6.512140e-02 -0.9979 0.9979 6.512140e-02 129.2116 451.4181)" class="st3" cx="305.5" cy="156.7" rx="3" ry="3"/>
	
		<ellipse transform="matrix(6.512689e-02 -0.9979 0.9979 6.512689e-02 135.1668 443.9594)" class="st6" cx="304.5" cy="149.8" rx="3.2" ry="3.2"/>
	
		<ellipse transform="matrix(6.512782e-02 -0.9979 0.9979 6.512782e-02 2.8138 412.5656)" class="st6" cx="221.6" cy="204.8" rx="1.8" ry="1.8"/>
	
		<ellipse transform="matrix(6.513789e-02 -0.9979 0.9979 6.513789e-02 -39.5744 426.8595)" class="st1" cx="208" cy="234.6" rx="1" ry="1"/>
	
		<ellipse transform="matrix(6.502556e-02 -0.9979 0.9979 6.502556e-02 2.8351 412.588)" class="st6" cx="221.6" cy="204.8" rx="0.3" ry="0.3"/>
	
		<ellipse transform="matrix(6.516422e-02 -0.9979 0.9979 6.516422e-02 -39.5794 426.8529)" class="st1" cx="208" cy="234.6" rx="0.8" ry="0.8"/>
	
		<ellipse transform="matrix(6.511296e-02 -0.9979 0.9979 6.511296e-02 3.5696 480.5617)" class="st6" cx="258.3" cy="238.4" rx="3.2" ry="3.2"/>
	
		<ellipse transform="matrix(6.509857e-02 -0.9979 0.9979 6.509857e-02 2.8199 412.572)" class="st8" cx="221.6" cy="204.8" rx="1.6" ry="1.6"/>
	
		<ellipse transform="matrix(6.514010e-02 -0.9979 0.9979 6.514010e-02 -39.5748 426.8589)" class="st8" cx="208" cy="234.6" rx="1.2" ry="1.2"/>
	
		<ellipse transform="matrix(6.516762e-02 -0.9979 0.9979 6.516762e-02 3.5563 480.5478)" class="st6" cx="258.3" cy="238.4" rx="0.7" ry="0.7"/>
	
		<ellipse transform="matrix(6.515443e-02 -0.9979 0.9979 6.515443e-02 -34.9822 465.4001)" class="st6" cx="230.9" cy="251.4" rx="1.1" ry="1.1"/>
	
		<ellipse transform="matrix(6.511802e-02 -0.9979 0.9979 6.511802e-02 -39.5705 426.8644)" class="st3" cx="208" cy="234.6" rx="2.2" ry="2.2"/>
	
		<ellipse transform="matrix(6.514132e-02 -0.9979 0.9979 6.514132e-02 3.5626 480.5545)" class="st8" cx="258.3" cy="238.4" rx="0.6" ry="0.6"/>
	
		<ellipse transform="matrix(6.511251e-02 -0.9979 0.9979 6.511251e-02 -27.1417 484.9483)" class="st6" cx="245.2" cy="257" rx="1.7" ry="1.7"/>
	
		<ellipse transform="matrix(6.512173e-02 -0.9979 0.9979 6.512173e-02 -34.9752 465.4088)" class="st6" cx="230.9" cy="251.4" rx="2.7" ry="2.7"/>
	
		<ellipse transform="matrix(6.501113e-02 -0.9979 0.9979 6.501113e-02 3.5942 480.5877)" class="st1" cx="258.3" cy="238.4" rx="0.2" ry="0.2"/>
	
		<ellipse transform="matrix(6.513791e-02 -0.9979 0.9979 6.513791e-02 27.0197 534.7076)" class="st1" cx="298.9" cy="252.9" rx="2.3" ry="2.3"/>
	
		<ellipse transform="matrix(6.511630e-02 -0.9979 0.9979 6.511630e-02 -27.1427 484.9472)" class="st1" cx="245.2" cy="257" rx="1.9" ry="1.9"/>
	
		<ellipse transform="matrix(6.511490e-02 -0.9979 0.9979 6.511490e-02 10.9446 546.3203)" class="st1" cx="297" cy="267.3" rx="1.3" ry="1.3"/>
	
		<ellipse transform="matrix(6.517644e-02 -0.9979 0.9979 6.517644e-02 10.9274 546.3026)" class="st3" cx="297" cy="267.3" rx="0.5" ry="0.5"/>
	
		<ellipse transform="matrix(6.515174e-02 -0.9979 0.9979 6.515174e-02 374.857 554.8538)" class="st6" cx="483.6" cy="77.4" rx="1.5" ry="1.5"/>
	
		<ellipse transform="matrix(6.513749e-02 -0.9979 0.9979 6.513749e-02 374.8638 554.8553)" class="st1" cx="483.6" cy="77.4" rx="0.9" ry="0.9"/>
	
		<ellipse transform="matrix(6.512343e-02 -0.9979 0.9979 6.512343e-02 175.8382 684.9958)" class="st1" cx="453.5" cy="248.7" rx="1.9" ry="1.9"/>
	
		<ellipse transform="matrix(6.515449e-02 -0.9979 0.9979 6.515449e-02 131.7276 711.9093)" class="st6" cx="445.8" cy="285.7" rx="0.5" ry="0.5"/>
	
		<ellipse transform="matrix(6.513626e-02 -0.9979 0.9979 6.513626e-02 164.6272 673.9979)" class="st8" cx="442" cy="249.1" rx="2.9" ry="2.9"/>
	
		<ellipse transform="matrix(6.507789e-02 -0.9979 0.9979 6.507789e-02 175.858 685.0085)" class="st6" cx="453.5" cy="248.7" rx="1" ry="1"/>
	
		<ellipse transform="matrix(6.507339e-02 -0.9979 0.9979 6.507339e-02 172.3145 750.1234)" class="st1" cx="486.5" cy="283.1" rx="1.1" ry="1.1"/>
	
		<ellipse transform="matrix(6.511024e-02 -0.9979 0.9979 6.511024e-02 131.7466 711.9232)" class="st8" cx="445.8" cy="285.7" rx="2.3" ry="2.3"/>
	
		<ellipse transform="matrix(6.512401e-02 -0.9979 0.9979 6.512401e-02 175.8379 684.9957)" class="st3" cx="453.5" cy="248.7" rx="0.8" ry="0.8"/>
	
		<ellipse transform="matrix(6.516362e-02 -0.9979 0.9979 6.516362e-02 172.2722 750.095)" class="st6" cx="486.5" cy="283.1" rx="0.8" ry="0.8"/>
	
		<ellipse transform="matrix(6.511977e-02 -0.9979 0.9979 6.511977e-02 200.2785 716.2208)" class="st1" cx="482.4" cy="251.2" rx="1.7" ry="1.7"/>
	
		<ellipse transform="matrix(6.509078e-02 -0.9979 0.9979 6.509078e-02 270.617 631.2105)" class="st6" cx="472.2" cy="171.2" rx="0.9" ry="0.9"/>
	
		<ellipse transform="matrix(6.513406e-02 -0.9979 0.9979 6.513406e-02 288.2626 650.3554)" class="st8" cx="491.2" cy="171.3" rx="2.7" ry="2.7"/>
	
		<ellipse transform="matrix(6.512663e-02 -0.9979 0.9979 6.512663e-02 270.6005 631.2032)" class="st3" cx="472.2" cy="171.2" rx="0.8" ry="0.8"/>
	
		<ellipse transform="matrix(6.510945e-02 -0.9979 0.9979 6.510945e-02 196.2446 558.9136)" class="st1" cx="396.4" cy="174.7" rx="1.5" ry="1.5"/>
	
		<ellipse transform="matrix(6.509528e-02 -0.9979 0.9979 6.509528e-02 221.3042 487.0379)" class="st8" cx="370.6" cy="125.4" rx="2.2" ry="2.2"/>
	
		<ellipse transform="matrix(6.510285e-02 -0.9979 0.9979 6.510285e-02 169.9972 477.2384)" class="st6" cx="339.7" cy="147.9" rx="1.5" ry="1.5"/>
	
		<ellipse transform="matrix(6.505818e-02 -0.9979 0.9979 6.505818e-02 196.2644 558.9239)" class="st6" cx="396.4" cy="174.7" rx="0.9" ry="0.9"/>
	
		<ellipse transform="matrix(6.517514e-02 -0.9979 0.9979 6.517514e-02 253.7319 503.0068)" class="st3" cx="395.3" cy="116.1" rx="0.3" ry="0.3"/>
	
		<ellipse transform="matrix(6.512554e-02 -0.9979 0.9979 6.512554e-02 221.2932 487.0333)" class="st3" cx="370.6" cy="125.4" rx="0.9" ry="0.9"/>
	
		<ellipse transform="matrix(6.508971e-02 -0.9979 0.9979 6.508971e-02 196.2522 558.9175)" class="st6" cx="396.4" cy="174.7" rx="1.3" ry="1.3"/>
	
		<ellipse transform="matrix(6.511237e-02 -0.9979 0.9979 6.511237e-02 271.4999 524.0292)" class="st6" cx="415.4" cy="117.1" rx="1.2" ry="1.2"/>
	
		<ellipse transform="matrix(6.515762e-02 -0.9979 0.9979 6.515762e-02 253.7387 503.0093)" class="st3" cx="395.3" cy="116.1" rx="0.6" ry="0.6"/>
	
		<ellipse transform="matrix(6.510811e-02 -0.9979 0.9979 6.510811e-02 196.2451 558.9139)" class="st1" cx="396.4" cy="174.7" rx="1.8" ry="1.8"/>
	
		<ellipse transform="matrix(6.510224e-02 -0.9979 0.9979 6.510224e-02 270.6117 631.2082)" class="st1" cx="472.2" cy="171.2" rx="1.2" ry="1.2"/>
	
		<ellipse transform="matrix(6.514753e-02 -0.9979 0.9979 6.514753e-02 197.3808 590.0209)" class="st1" cx="413.6" cy="189.7" rx="1.9" ry="1.9"/>
	
		<ellipse transform="matrix(6.505812e-02 -0.9979 0.9979 6.505812e-02 291.4221 507.3697)" class="st6" cx="416.5" cy="98.2" rx="0.4" ry="0.4"/>
	
		<ellipse transform="matrix(6.513083e-02 -0.9979 0.9979 6.513083e-02 271.4924 524.0265)" class="st1" cx="415.4" cy="117.1" rx="0.7" ry="0.7"/>
	
		<ellipse transform="matrix(6.510679e-02 -0.9979 0.9979 6.510679e-02 253.7584 503.0165)" class="st1" cx="395.3" cy="116.1" rx="1" ry="1"/>
	
		<ellipse transform="matrix(6.510670e-02 -0.9979 0.9979 6.510670e-02 291.4022 507.3636)" class="st1" cx="416.5" cy="98.2" rx="1.5" ry="1.5"/>
	
		<ellipse transform="matrix(6.511851e-02 -0.9979 0.9979 6.511851e-02 358.9498 538.1196)" class="st6" cx="466.7" cy="77.5" rx="2.5" ry="2.5"/>
	
		<ellipse transform="matrix(6.513037e-02 -0.9979 0.9979 6.513037e-02 383.7027 430.5771)" class="st1" cx="421.6" cy="10.5" rx="1.2" ry="1.2"/>
	
		<ellipse transform="matrix(6.512617e-02 -0.9979 0.9979 6.512617e-02 291.3941 507.3612)" class="st3" cx="416.5" cy="98.2" rx="4.9" ry="4.9"/>
	
		<ellipse transform="matrix(6.510705e-02 -0.9979 0.9979 6.510705e-02 311.3308 537.8038)" class="st6" cx="442.7" cy="102.7" rx="1" ry="1"/>
	
		<ellipse transform="matrix(6.510495e-02 -0.9979 0.9979 6.510495e-02 271.503 524.0303)" class="st6" cx="415.4" cy="117.1" rx="1.1" ry="1.1"/>
	
		<ellipse transform="matrix(6.513473e-02 -0.9979 0.9979 6.513473e-02 291.3907 507.3601)" class="st6" cx="416.5" cy="98.2" rx="1.8" ry="1.8"/>
	
		<ellipse transform="matrix(6.514195e-02 -0.9979 0.9979 6.514195e-02 358.939 538.1171)" class="st6" cx="466.7" cy="77.5" rx="1.4" ry="1.4"/>
	
		<ellipse transform="matrix(6.510905e-02 -0.9979 0.9979 6.510905e-02 311.33 537.8035)" class="st6" cx="442.7" cy="102.7" rx="1.8" ry="1.8"/>
	
		<ellipse transform="matrix(6.510750e-02 -0.9979 0.9979 6.510750e-02 320.948 578.6375)" class="st1" cx="469.3" cy="118" rx="0.6" ry="0.6"/>
	
		<ellipse transform="matrix(6.515204e-02 -0.9979 0.9979 6.515204e-02 358.9343 538.116)" class="st6" cx="466.7" cy="77.5" rx="1.5" ry="1.5"/>
	
		<ellipse transform="matrix(6.512238e-02 -0.9979 0.9979 6.512238e-02 311.3241 537.8017)" class="st3" cx="442.7" cy="102.7" rx="0.4" ry="0.4"/>
	
		<ellipse transform="matrix(6.512289e-02 -0.9979 0.9979 6.512289e-02 320.9409 578.6352)" class="st1" cx="469.3" cy="118" rx="2.1" ry="2.1"/>
	
		<ellipse transform="matrix(6.511479e-02 -0.9979 0.9979 6.511479e-02 312.6438 580.0042)" class="st8" cx="465.9" cy="123.1" rx="0.9" ry="0.9"/>
	
		<ellipse transform="matrix(6.512835e-02 -0.9979 0.9979 6.512835e-02 311.3216 537.801)" class="st6" cx="442.7" cy="102.7" rx="1.5" ry="1.5"/>
	
		<ellipse transform="matrix(6.514018e-02 -0.9979 0.9979 6.514018e-02 320.9329 578.6326)" class="st1" cx="469.3" cy="118" rx="1.6" ry="1.6"/>
	
		<ellipse transform="matrix(6.507526e-02 -0.9979 0.9979 6.507526e-02 374.8936 554.8621)" class="st1" cx="483.6" cy="77.4" rx="1" ry="1"/>
	
		<ellipse transform="matrix(6.511404e-02 -0.9979 0.9979 6.511404e-02 358.9519 538.1201)" class="st6" cx="466.7" cy="77.5" rx="1.4" ry="1.4"/>
	
		<ellipse transform="matrix(6.513468e-02 -0.9979 0.9979 6.513468e-02 320.9354 578.6334)" class="st1" cx="469.3" cy="118" rx="0.9" ry="0.9"/>
	
		<ellipse transform="matrix(6.514965e-02 -0.9979 0.9979 6.514965e-02 312.6278 579.9988)" class="st1" cx="465.9" cy="123.1" rx="0.5" ry="0.5"/>
	
		<ellipse transform="matrix(6.511982e-02 -0.9979 0.9979 6.511982e-02 320.9423 578.6356)" class="st1" cx="469.3" cy="118" rx="1.4" ry="1.4"/>
	
		<ellipse transform="matrix(6.511972e-02 -0.9979 0.9979 6.511972e-02 374.8723 554.8572)" class="st6" cx="483.6" cy="77.4" rx="1.6" ry="1.6"/>
	
		<ellipse transform="matrix(6.510460e-02 -0.9979 0.9979 6.510460e-02 37.0027 412.7059)" class="st6" cx="238.8" cy="186.6" rx="1.3" ry="1.3"/>
	
		<ellipse transform="matrix(6.512134e-02 -0.9979 0.9979 6.512134e-02 82.7359 514.2797)" class="st6" cx="315.8" cy="213" rx="3" ry="3"/>
	
		<ellipse transform="matrix(6.512173e-02 -0.9979 0.9979 6.512173e-02 27.0242 534.7121)" class="st1" cx="298.9" cy="252.9" rx="4.8" ry="4.8"/>
	
		<ellipse transform="matrix(6.512880e-02 -0.9979 0.9979 6.512880e-02 3.5658 480.5577)" class="st1" cx="258.3" cy="238.4" rx="2.3" ry="2.3"/>
	
		<ellipse transform="matrix(6.514212e-02 -0.9979 0.9979 6.514212e-02 82.7296 514.2748)" class="st8" cx="315.8" cy="213" rx="0.6" ry="0.6"/>
	
		<ellipse transform="matrix(6.512332e-02 -0.9979 0.9979 6.512332e-02 96.0431 568.4321)" class="st6" cx="351.4" cy="233" rx="1.5" ry="1.5"/>
	
		<ellipse transform="matrix(6.515767e-02 -0.9979 0.9979 6.515767e-02 27.0141 534.7023)" class="st3" cx="298.9" cy="252.9" rx="1.2" ry="1.2"/>
	
		<ellipse transform="matrix(6.513253e-02 -0.9979 0.9979 6.513253e-02 131.737 711.9162)" class="st8" cx="445.8" cy="285.7" rx="1.5" ry="1.5"/>
	
		<ellipse transform="matrix(6.509860e-02 -0.9979 0.9979 6.509860e-02 141.7235 486.3573)" class="st6" cx="330.4" cy="167.5" rx="1.7" ry="1.7"/>
	
		<ellipse transform="matrix(6.510821e-02 -0.9979 0.9979 6.510821e-02 130.513 478.8893)" class="st1" cx="320.8" cy="169.8" rx="2" ry="2"/>
	
		<ellipse transform="matrix(6.509642e-02 -0.9979 0.9979 6.509642e-02 129.219 451.4225)" class="st6" cx="305.5" cy="156.7" rx="1.4" ry="1.4"/>
	
		<ellipse transform="matrix(6.510635e-02 -0.9979 0.9979 6.510635e-02 141.721 486.3558)" class="st8" cx="330.4" cy="167.5" rx="1.9" ry="1.9"/>
	
		<ellipse transform="matrix(6.512344e-02 -0.9979 0.9979 6.512344e-02 169.9904 477.2349)" class="st6" cx="339.7" cy="147.9" rx="3.3" ry="3.3"/>
	
		<ellipse transform="matrix(6.512622e-02 -0.9979 0.9979 6.512622e-02 129.2102 451.4172)" class="st6" cx="305.5" cy="156.7" rx="2.4" ry="2.4"/>
	
		<ellipse transform="matrix(6.513096e-02 -0.9979 0.9979 6.513096e-02 141.7132 486.3511)" class="st1" cx="330.4" cy="167.5" rx="0.8" ry="0.8"/>
	
		<ellipse transform="matrix(6.511793e-02 -0.9979 0.9979 6.511793e-02 130.51 478.8874)" class="st1" cx="320.8" cy="169.8" rx="2.9" ry="2.9"/>
	
		<ellipse transform="matrix(6.513957e-02 -0.9979 0.9979 6.513957e-02 82.7304 514.2753)" class="st6" cx="315.8" cy="213" rx="0.7" ry="0.7"/>
	
		<ellipse transform="matrix(6.510476e-02 -0.9979 0.9979 6.510476e-02 141.7216 486.3561)" class="st3" cx="330.4" cy="167.5" rx="1.4" ry="1.4"/>
	
		<ellipse transform="matrix(6.513685e-02 -0.9979 0.9979 6.513685e-02 196.2341 558.9081)" class="st8" cx="396.4" cy="174.7" rx="2.4" ry="2.4"/>
	
		<ellipse transform="matrix(6.513310e-02 -0.9979 0.9979 6.513310e-02 169.9872 477.2333)" class="st3" cx="339.7" cy="147.9" rx="2.9" ry="2.9"/>
	
		<ellipse transform="matrix(6.514600e-02 -0.9979 0.9979 6.514600e-02 219.404 424.1347)" class="st1" cx="336.1" cy="95" rx="0.6" ry="0.6"/>
	
		<ellipse transform="matrix(6.513407e-02 -0.9979 0.9979 6.513407e-02 221.2901 487.032)" class="st1" cx="370.6" cy="125.4" rx="1.8" ry="1.8"/>
	
		<ellipse transform="matrix(6.514020e-02 -0.9979 0.9979 6.514020e-02 169.9848 477.232)" class="st6" cx="339.7" cy="147.9" rx="1.1" ry="1.1"/>
	
		<ellipse transform="matrix(6.514778e-02 -0.9979 0.9979 6.514778e-02 261.9153 445.0015)" class="st3" cx="368.5" cy="82.7" rx="1.8" ry="1.8"/>
	
		<ellipse transform="matrix(6.512862e-02 -0.9979 0.9979 6.512862e-02 221.2921 487.0328)" class="st8" cx="370.6" cy="125.4" rx="2" ry="2"/>
	
		<ellipse transform="matrix(6.511284e-02 -0.9979 0.9979 6.511284e-02 219.4149 424.1386)" class="st1" cx="336.1" cy="95" rx="1.5" ry="1.5"/>
	
		<ellipse transform="matrix(6.513970e-02 -0.9979 0.9979 6.513970e-02 261.9182 445.0024)" class="st6" cx="368.5" cy="82.7" rx="2.8" ry="2.8"/>
	
		<ellipse transform="matrix(6.512266e-02 -0.9979 0.9979 6.512266e-02 383.706 430.5773)" class="st1" cx="421.6" cy="10.5" rx="3.3" ry="3.3"/>
	
		<ellipse transform="matrix(6.512056e-02 -0.9979 0.9979 6.512056e-02 314.6462 374.4481)" class="st1" cx="357.2" cy="19.3" rx="3.3" ry="3.3"/>
	
		<ellipse transform="matrix(6.510153e-02 -0.9979 0.9979 6.510153e-02 261.9321 445.0064)" class="st8" cx="368.5" cy="82.7" rx="1.7" ry="1.7"/>
	
		<ellipse transform="matrix(6.514490e-02 -0.9979 0.9979 6.514490e-02 253.7437 503.0111)" class="st8" cx="395.3" cy="116.1" rx="0.8" ry="0.8"/>
	
		<ellipse transform="matrix(6.512790e-02 -0.9979 0.9979 6.512790e-02 221.2923 487.033)" class="st3" cx="370.6" cy="125.4" rx="0.6" ry="0.6"/>
	
		<ellipse transform="matrix(6.509122e-02 -0.9979 0.9979 6.509122e-02 261.9358 445.0075)" class="st3" cx="368.5" cy="82.7" rx="1.1" ry="1.1"/>
	
		<ellipse transform="matrix(6.513265e-02 -0.9979 0.9979 6.513265e-02 291.3915 507.3603)" class="st1" cx="416.5" cy="98.2" rx="0.9" ry="0.9"/>
	
		<ellipse transform="matrix(6.512410e-02 -0.9979 0.9979 6.512410e-02 253.7517 503.0141)" class="st8" cx="395.3" cy="116.1" rx="3.5" ry="3.5"/>
	
		<ellipse transform="matrix(6.512430e-02 -0.9979 0.9979 6.512430e-02 261.9238 445.004)" class="st1" cx="368.5" cy="82.7" rx="3.5" ry="3.5"/>
	
		<ellipse transform="matrix(6.512735e-02 -0.9979 0.9979 6.512735e-02 291.3937 507.361)" class="st1" cx="416.5" cy="98.2" rx="3.6" ry="3.6"/>
	
		<ellipse transform="matrix(6.518951e-02 -0.9979 0.9979 6.518951e-02 383.6778 430.5748)" class="st3" cx="421.6" cy="10.5" rx="0.6" ry="0.6"/>
	
		<ellipse transform="matrix(6.512379e-02 -0.9979 0.9979 6.512379e-02 200.2767 716.2196)" class="st1" cx="482.4" cy="251.2" rx="1.8" ry="1.8"/>
	
		<ellipse transform="matrix(6.511804e-02 -0.9979 0.9979 6.511804e-02 200.2793 716.2214)" class="st1" cx="482.4" cy="251.2" rx="4.5" ry="4.5"/>
	
		<ellipse transform="matrix(6.512332e-02 -0.9979 0.9979 6.512332e-02 165.3408 751.6487)" class="st3" cx="483.8" cy="287.6" rx="1.5" ry="1.5"/>
	
		<ellipse transform="matrix(6.511591e-02 -0.9979 0.9979 6.511591e-02 171.7304 750.894)" class="st3" cx="486.6" cy="283.8" rx="1.8" ry="1.8"/>
	
		<ellipse transform="matrix(6.509837e-02 -0.9979 0.9979 6.509837e-02 172.3028 750.1155)" class="st1" cx="486.5" cy="283.1" rx="1.4" ry="1.4"/>
	
		<ellipse transform="matrix(6.516173e-02 -0.9979 0.9979 6.516173e-02 165.323 751.6364)" class="st8" cx="483.8" cy="287.6" rx="1.2" ry="1.2"/>
	
		<ellipse transform="matrix(6.514499e-02 -0.9979 0.9979 6.514499e-02 171.7168 750.8849)" class="st3" cx="486.6" cy="283.8" rx="0.8" ry="0.8"/>
	
		<ellipse transform="matrix(6.512147e-02 -0.9979 0.9979 6.512147e-02 165.3417 751.6493)" class="st1" cx="483.8" cy="287.6" rx="1.4" ry="1.4"/>
	
		<ellipse transform="matrix(6.514256e-02 -0.9979 0.9979 6.514256e-02 149.0619 569.4378)" class="st3" cx="378.4" cy="205.2" rx="1" ry="1"/>
	
		<ellipse transform="matrix(6.512025e-02 -0.9979 0.9979 6.512025e-02 141.7166 486.3531)" class="st1" cx="330.4" cy="167.5" rx="0.6" ry="0.6"/>
	
		<ellipse transform="matrix(6.509681e-02 -0.9979 0.9979 6.509681e-02 82.7433 514.2854)" class="st8" cx="315.8" cy="213" rx="1.7" ry="1.7"/>
	
		<ellipse transform="matrix(6.513865e-02 -0.9979 0.9979 6.513865e-02 149.0633 569.4387)" class="st6" cx="378.4" cy="205.2" rx="2.3" ry="2.3"/>
	
		<ellipse transform="matrix(6.511884e-02 -0.9979 0.9979 6.511884e-02 96.0446 568.4333)" class="st1" cx="351.4" cy="233" rx="1.6" ry="1.6"/>
	
		<ellipse transform="matrix(6.516329e-02 -0.9979 0.9979 6.516329e-02 82.7233 514.2699)" class="st3" cx="315.8" cy="213" rx="0.9" ry="0.9"/>
	
		<ellipse transform="matrix(6.510506e-02 -0.9979 0.9979 6.510506e-02 149.0756 569.4464)" class="st8" cx="378.4" cy="205.2" rx="1.6" ry="1.6"/>
	
		<ellipse transform="matrix(6.518188e-02 -0.9979 0.9979 6.518188e-02 196.2167 558.899)" class="st6" cx="396.4" cy="174.7" rx="0.5" ry="0.5"/>
	
		<ellipse transform="matrix(6.511111e-02 -0.9979 0.9979 6.511111e-02 141.7195 486.3549)" class="st1" cx="330.4" cy="167.5" rx="1.3" ry="1.3"/>
	
		<ellipse transform="matrix(6.514185e-02 -0.9979 0.9979 6.514185e-02 149.0621 569.4379)" class="st1" cx="378.4" cy="205.2" rx="2" ry="2"/>
	
		<ellipse transform="matrix(6.511631e-02 -0.9979 0.9979 6.511631e-02 104.6355 591.8363)" class="st6" cx="368.2" cy="240.1" rx="2.1" ry="2.1"/>
	
		<ellipse transform="matrix(6.513391e-02 -0.9979 0.9979 6.513391e-02 96.0396 568.4294)" class="st1" cx="351.4" cy="233" rx="1.5" ry="1.5"/>
	
		<ellipse transform="matrix(6.510787e-02 -0.9979 0.9979 6.510787e-02 149.0745 569.4457)" class="st6" cx="378.4" cy="205.2" rx="2.9" ry="2.9"/>
	
		<ellipse transform="matrix(6.511421e-02 -0.9979 0.9979 6.511421e-02 144.3728 631.9764)" class="st1" cx="409.5" cy="238.9" rx="3.3" ry="3.3"/>
	
		<ellipse transform="matrix(6.513641e-02 -0.9979 0.9979 6.513641e-02 104.6283 591.831)" class="st8" cx="368.2" cy="240.1" rx="1.5" ry="1.5"/>
	
		<ellipse transform="matrix(6.510080e-02 -0.9979 0.9979 6.510080e-02 149.0771 569.4474)" class="st1" cx="378.4" cy="205.2" rx="1.7" ry="1.7"/>
	
		<ellipse transform="matrix(6.512517e-02 -0.9979 0.9979 6.512517e-02 197.3898 590.0258)" class="st6" cx="413.6" cy="189.7" rx="0.6" ry="0.6"/>
	
		<ellipse transform="matrix(6.513435e-02 -0.9979 0.9979 6.513435e-02 196.235 558.9086)" class="st3" cx="396.4" cy="174.7" rx="3.4" ry="3.4"/>
	
		<ellipse transform="matrix(6.513134e-02 -0.9979 0.9979 6.513134e-02 149.066 569.4404)" class="st3" cx="378.4" cy="205.2" rx="2.6" ry="2.6"/>
	
		<ellipse transform="matrix(6.511200e-02 -0.9979 0.9979 6.511200e-02 205.1099 606.7759)" class="st1" cx="426.4" cy="193.9" rx="2" ry="2"/>
	
		<ellipse transform="matrix(6.513894e-02 -0.9979 0.9979 6.513894e-02 144.3631 631.9699)" class="st1" cx="409.5" cy="238.9" rx="0.4" ry="0.4"/>
	
		<ellipse transform="matrix(6.510864e-02 -0.9979 0.9979 6.510864e-02 149.0743 569.4456)" class="st3" cx="378.4" cy="205.2" rx="1.4" ry="1.4"/>
	
		<ellipse transform="matrix(6.511594e-02 -0.9979 0.9979 6.511594e-02 205.1082 606.775)" class="st6" cx="426.4" cy="193.9" rx="1.5" ry="1.5"/>
	
		<ellipse transform="matrix(6.512097e-02 -0.9979 0.9979 6.512097e-02 197.3914 590.0266)" class="st3" cx="413.6" cy="189.7" rx="2.6" ry="2.6"/>
	
		<ellipse transform="matrix(6.512187e-02 -0.9979 0.9979 6.512187e-02 156.5319 747.9844)" class="st8" cx="477.5" cy="290.5" rx="3" ry="3"/>
	
		<ellipse transform="matrix(6.521544e-02 -0.9979 0.9979 6.521544e-02 172.248 750.0787)" class="st6" cx="486.5" cy="283.1" rx="0.4" ry="0.4"/>
	
		<ellipse transform="matrix(6.510966e-02 -0.9979 0.9979 6.510966e-02 131.7468 711.9234)" class="st1" cx="445.8" cy="285.7" rx="0.7" ry="0.7"/>
	
		<ellipse transform="matrix(6.511453e-02 -0.9979 0.9979 6.511453e-02 156.5352 747.9869)" class="st6" cx="477.5" cy="290.5" rx="1.2" ry="1.2"/>
	
		<ellipse transform="matrix(6.516273e-02 -0.9979 0.9979 6.516273e-02 131.7241 711.9066)" class="st6" cx="445.8" cy="285.7" rx="1.1" ry="1.1"/>
	
		<ellipse transform="matrix(6.510943e-02 -0.9979 0.9979 6.510943e-02 156.5375 747.9885)" class="st1" cx="477.5" cy="290.5" rx="3.7" ry="3.7"/>
	
		<ellipse transform="matrix(6.510360e-02 -0.9979 0.9979 6.510360e-02 172.3004 750.1139)" class="st8" cx="486.5" cy="283.1" rx="2" ry="2"/>
	
		<ellipse transform="matrix(6.511474e-02 -0.9979 0.9979 6.511474e-02 165.3448 751.6513)" class="st6" cx="483.8" cy="287.6" rx="1.5" ry="1.5"/>
	
		<ellipse transform="matrix(6.514554e-02 -0.9979 0.9979 6.514554e-02 156.521 747.9769)" class="st3" cx="477.5" cy="290.5" rx="1.9" ry="1.9"/>
	
		<ellipse transform="matrix(6.512780e-02 -0.9979 0.9979 6.512780e-02 165.3387 751.6472)" class="st6" cx="483.8" cy="287.6" rx="3.8" ry="3.8"/>
	
		<ellipse transform="matrix(6.511258e-02 -0.9979 0.9979 6.511258e-02 10.8916 391.5089)" class="st8" cx="214.4" cy="189.9" rx="2.1" ry="2.1"/>
	
		<ellipse transform="matrix(6.515113e-02 -0.9979 0.9979 6.515113e-02 10.8839 391.5009)" class="st6" cx="214.4" cy="189.9" rx="0.9" ry="0.9"/>
	
		<ellipse transform="matrix(6.511848e-02 -0.9979 0.9979 6.511848e-02 10.8904 391.5077)" class="st6" cx="214.4" cy="189.9" rx="2.3" ry="2.3"/>
	
		<ellipse transform="matrix(6.513691e-02 -0.9979 0.9979 6.513691e-02 2.8119 412.5636)" class="st6" cx="221.6" cy="204.8" rx="1.6" ry="1.6"/>
	
		<ellipse transform="matrix(6.513140e-02 -0.9979 0.9979 6.513140e-02 10.8878 391.5051)" class="st1" cx="214.4" cy="189.9" rx="2.4" ry="2.4"/>
	
		<ellipse transform="matrix(6.511714e-02 -0.9979 0.9979 6.511714e-02 36.9999 412.7034)" class="st8" cx="238.8" cy="186.6" rx="2.2" ry="2.2"/>
	
		<ellipse transform="matrix(6.510941e-02 -0.9979 0.9979 6.510941e-02 10.8923 391.5094)" class="st3" cx="214.4" cy="189.9" rx="1.1" ry="1.1"/>
	
		<ellipse transform="matrix(6.511965e-02 -0.9979 0.9979 6.511965e-02 36.9993 412.7029)" class="st8" cx="238.8" cy="186.6" rx="2.1" ry="2.1"/>
	
		<ellipse transform="matrix(6.506646e-02 -0.9979 0.9979 6.506646e-02 2.8266 412.579)" class="st6" cx="221.6" cy="204.8" rx="0.8" ry="0.8"/>
	
		<ellipse transform="matrix(6.512772e-02 -0.9979 0.9979 6.512772e-02 164.3638 399.7788)" class="st3" cx="295.5" cy="112.2" rx="2.9" ry="2.9"/>
	
		<ellipse transform="matrix(6.512485e-02 -0.9979 0.9979 6.512485e-02 164.3646 399.7791)" class="st3" cx="295.5" cy="112.2" rx="3.1" ry="3.1"/>
	
		<ellipse transform="matrix(6.511696e-02 -0.9979 0.9979 6.511696e-02 164.3669 399.7802)" class="st1" cx="295.5" cy="112.2" rx="2.2" ry="2.2"/>
	
		<ellipse transform="matrix(6.513936e-02 -0.9979 0.9979 6.513936e-02 164.3605 399.7773)" class="st6" cx="295.5" cy="112.2" rx="1.4" ry="1.4"/>
	
		<ellipse transform="matrix(6.512535e-02 -0.9979 0.9979 6.512535e-02 135.1672 443.9597)" class="st1" cx="304.5" cy="149.8" rx="1.6" ry="1.6"/>
	
		<ellipse transform="matrix(6.513213e-02 -0.9979 0.9979 6.513213e-02 164.3625 399.7783)" class="st1" cx="295.5" cy="112.2" rx="1.3" ry="1.3"/>
	
		<ellipse transform="matrix(6.510299e-02 -0.9979 0.9979 6.510299e-02 201.6978 382.2669)" class="st8" cx="304.9" cy="83.5" rx="2.2" ry="2.2"/>
	
		<ellipse transform="matrix(6.511258e-02 -0.9979 0.9979 6.511258e-02 164.3682 399.7808)" class="st8" cx="295.5" cy="112.2" rx="1.7" ry="1.7"/>
	
		<ellipse transform="matrix(6.513051e-02 -0.9979 0.9979 6.513051e-02 219.4091 424.1366)" class="st8" cx="336.1" cy="95" rx="0.7" ry="0.7"/>
	
		<ellipse transform="matrix(6.515169e-02 -0.9979 0.9979 6.515169e-02 201.6832 382.2619)" class="st6" cx="304.9" cy="83.5" rx="0.8" ry="0.8"/>
	
		<ellipse transform="matrix(6.510797e-02 -0.9979 0.9979 6.510797e-02 164.3695 399.7814)" class="st1" cx="295.5" cy="112.2" rx="1.1" ry="1.1"/>
	
		<ellipse transform="matrix(6.514735e-02 -0.9979 0.9979 6.514735e-02 169.9825 477.2308)" class="st6" cx="339.7" cy="147.9" rx="0.8" ry="0.8"/>
	
		<ellipse transform="matrix(6.510317e-02 -0.9979 0.9979 6.510317e-02 135.1738 443.9635)" class="st1" cx="304.5" cy="149.8" rx="2.2" ry="2.2"/>
	
		<ellipse transform="matrix(6.511336e-02 -0.9979 0.9979 6.511336e-02 164.368 399.7806)" class="st6" cx="295.5" cy="112.2" rx="1.9" ry="1.9"/>
	
		<ellipse transform="matrix(6.512135e-02 -0.9979 0.9979 6.512135e-02 169.9911 477.2352)" class="st8" cx="339.7" cy="147.9" rx="0.7" ry="0.7"/>
	
		<ellipse transform="matrix(6.513166e-02 -0.9979 0.9979 6.513166e-02 219.4087 424.1364)" class="st3" cx="336.1" cy="95" rx="1.8" ry="1.8"/>
	
		<ellipse transform="matrix(6.511386e-02 -0.9979 0.9979 6.511386e-02 86.8527 441.3288)" class="st1" cx="279" cy="174.3" rx="3.6" ry="3.6"/>
	
		<ellipse transform="matrix(6.510192e-02 -0.9979 0.9979 6.510192e-02 37.0034 412.7065)" class="st6" cx="238.8" cy="186.6" rx="0.4" ry="0.4"/>
	
		<ellipse transform="matrix(6.512251e-02 -0.9979 0.9979 6.512251e-02 86.8504 441.3272)" class="st6" cx="279" cy="174.3" rx="1.3" ry="1.3"/>
	
		<ellipse transform="matrix(6.512183e-02 -0.9979 0.9979 6.512183e-02 135.1682 443.9603)" class="st1" cx="304.5" cy="149.8" rx="1.5" ry="1.5"/>
	
		<ellipse transform="matrix(6.511363e-02 -0.9979 0.9979 6.511363e-02 86.8528 441.3288)" class="st8" cx="279" cy="174.3" rx="1.4" ry="1.4"/>
	
		<ellipse transform="matrix(6.511241e-02 -0.9979 0.9979 6.511241e-02 129.2142 451.4197)" class="st1" cx="305.5" cy="156.7" rx="1.8" ry="1.8"/>
	
		<ellipse transform="matrix(6.511663e-02 -0.9979 0.9979 6.511663e-02 135.1697 443.9612)" class="st8" cx="304.5" cy="149.8" rx="2.3" ry="2.3"/>
	
		<ellipse transform="matrix(6.512375e-02 -0.9979 0.9979 6.512375e-02 86.8501 441.3269)" class="st3" cx="279" cy="174.3" rx="0.7" ry="0.7"/>
	
		<ellipse transform="matrix(6.512422e-02 -0.9979 0.9979 6.512422e-02 130.5081 478.8862)" class="st1" cx="320.8" cy="169.8" rx="1.5" ry="1.5"/>
	
		<ellipse transform="matrix(6.511870e-02 -0.9979 0.9979 6.511870e-02 129.2124 451.4186)" class="st1" cx="305.5" cy="156.7" rx="1.1" ry="1.1"/>
	
		<ellipse transform="matrix(6.513013e-02 -0.9979 0.9979 6.513013e-02 86.8484 441.3256)" class="st8" cx="279" cy="174.3" rx="2.7" ry="2.7"/>
	
		<ellipse transform="matrix(6.511648e-02 -0.9979 0.9979 6.511648e-02 130.5104 478.8877)" class="st1" cx="320.8" cy="169.8" rx="0.5" ry="0.5"/>
	
		<ellipse transform="matrix(6.511308e-02 -0.9979 0.9979 6.511308e-02 82.7384 514.2816)" class="st8" cx="315.8" cy="213" rx="2.6" ry="2.6"/>
	
		<ellipse transform="matrix(6.512430e-02 -0.9979 0.9979 6.512430e-02 291.4186 590.0593)" class="st8" cx="460.6" cy="139.5" rx="1.2" ry="1.2"/>
	
		<ellipse transform="matrix(6.511740e-02 -0.9979 0.9979 6.511740e-02 271.4979 524.0285)" class="st1" cx="415.4" cy="117.1" rx="1.8" ry="1.8"/>
	
		<ellipse transform="matrix(6.512244e-02 -0.9979 0.9979 6.512244e-02 196.2396 558.9109)" class="st1" cx="396.4" cy="174.7" rx="0.8" ry="0.8"/>
	
		<ellipse transform="matrix(6.509335e-02 -0.9979 0.9979 6.509335e-02 291.4326 590.0645)" class="st8" cx="460.6" cy="139.5" rx="1" ry="1"/>
	
		<ellipse transform="matrix(6.509556e-02 -0.9979 0.9979 6.509556e-02 270.6148 631.2095)" class="st6" cx="472.2" cy="171.2" rx="0.8" ry="0.8"/>
	
		<ellipse transform="matrix(6.511829e-02 -0.9979 0.9979 6.511829e-02 196.2412 558.9118)" class="st3" cx="396.4" cy="174.7" rx="1.8" ry="1.8"/>
	
		<ellipse transform="matrix(6.512999e-02 -0.9979 0.9979 6.512999e-02 291.416 590.0583)" class="st6" cx="460.6" cy="139.5" rx="1.3" ry="1.3"/>
	
		<ellipse transform="matrix(6.512169e-02 -0.9979 0.9979 6.512169e-02 312.6406 580.0031)" class="st6" cx="465.9" cy="123.1" rx="2.2" ry="2.2"/>
	
		<ellipse transform="matrix(6.512354e-02 -0.9979 0.9979 6.512354e-02 271.4955 524.0276)" class="st3" cx="415.4" cy="117.1" rx="1.1" ry="1.1"/>
	
		<ellipse transform="matrix(6.512953e-02 -0.9979 0.9979 6.512953e-02 291.4162 590.0583)" class="st6" cx="460.6" cy="139.5" rx="3.1" ry="3.1"/>
	
		<ellipse transform="matrix(6.515115e-02 -0.9979 0.9979 6.515115e-02 312.6271 579.9987)" class="st1" cx="465.9" cy="123.1" rx="1.2" ry="1.2"/>
	
		<ellipse transform="matrix(6.514024e-02 -0.9979 0.9979 6.514024e-02 291.4113 590.0565)" class="st1" cx="460.6" cy="139.5" rx="2.1" ry="2.1"/>
	
		<ellipse transform="matrix(6.508927e-02 -0.9979 0.9979 6.508927e-02 270.6177 631.2108)" class="st8" cx="472.2" cy="171.2" rx="0.5" ry="0.5"/>
	
		<ellipse transform="matrix(6.511739e-02 -0.9979 0.9979 6.511739e-02 291.4217 590.0604)" class="st6" cx="460.6" cy="139.5" rx="1.9" ry="1.9"/>
	
		<ellipse transform="matrix(6.514874e-02 -0.9979 0.9979 6.514874e-02 64.7995 445.9629)" class="st6" cx="270.4" cy="188.4" rx="1.6" ry="1.6"/>
	
		<ellipse transform="matrix(6.511295e-02 -0.9979 0.9979 6.511295e-02 37.0009 412.7042)" class="st6" cx="238.8" cy="186.6" rx="1.2" ry="1.2"/>
	
		<ellipse transform="matrix(6.512356e-02 -0.9979 0.9979 6.512356e-02 2.8146 412.5665)" class="st6" cx="221.6" cy="204.8" rx="1.6" ry="1.6"/>
	
		<ellipse transform="matrix(6.510074e-02 -0.9979 0.9979 6.510074e-02 64.8119 445.9728)" class="st6" cx="270.4" cy="188.4" rx="2.1" ry="2.1"/>
	
		<ellipse transform="matrix(6.512909e-02 -0.9979 0.9979 6.512909e-02 3.5656 480.5576)" class="st3" cx="258.3" cy="238.4" rx="1" ry="1"/>
	
		<ellipse transform="matrix(6.513491e-02 -0.9979 0.9979 6.513491e-02 2.8123 412.564)" class="st6" cx="221.6" cy="204.8" rx="0.7" ry="0.7"/>
	
		<ellipse transform="matrix(6.512792e-02 -0.9979 0.9979 6.512792e-02 64.8048 445.9672)" class="st3" cx="270.4" cy="188.4" rx="1.3" ry="1.3"/>
	
		<ellipse transform="matrix(6.510775e-02 -0.9979 0.9979 6.510775e-02 86.8543 441.33)" class="st1" cx="279" cy="174.3" rx="1.5" ry="1.5"/>
	
		<ellipse transform="matrix(6.516689e-02 -0.9979 0.9979 6.516689e-02 36.9886 412.6934)" class="st1" cx="238.8" cy="186.6" rx="0.6" ry="0.6"/>
	
		<ellipse transform="matrix(6.509317e-02 -0.9979 0.9979 6.509317e-02 64.8138 445.9744)" class="st6" cx="270.4" cy="188.4" rx="1.8" ry="1.8"/>
	
		<ellipse transform="matrix(6.508975e-02 -0.9979 0.9979 6.508975e-02 82.7455 514.287)" class="st1" cx="315.8" cy="213" rx="1.8" ry="1.8"/>
	
		<ellipse transform="matrix(6.512465e-02 -0.9979 0.9979 6.512465e-02 3.5667 480.5588)" class="st3" cx="258.3" cy="238.4" rx="3.3" ry="3.3"/>
	
		<ellipse transform="matrix(6.511274e-02 -0.9979 0.9979 6.511274e-02 64.8087 445.9703)" class="st1" cx="270.4" cy="188.4" rx="2" ry="2"/>
	
		<ellipse transform="matrix(6.514798e-02 -0.9979 0.9979 6.514798e-02 82.7279 514.2734)" class="st6" cx="315.8" cy="213" rx="1.9" ry="1.9"/>
	
		<ellipse transform="matrix(6.508970e-02 -0.9979 0.9979 6.508970e-02 86.8592 441.3334)" class="st6" cx="279" cy="174.3" rx="0.7" ry="0.7"/>
	
		<ellipse transform="matrix(6.516063e-02 -0.9979 0.9979 6.516063e-02 221.1935 652.8489)" class="st6" cx="459" cy="208.4" rx="0.6" ry="0.6"/>
	
		<ellipse transform="matrix(6.513247e-02 -0.9979 0.9979 6.513247e-02 270.5978 631.202)" class="st1" cx="472.2" cy="171.2" rx="1.1" ry="1.1"/>
	
		<ellipse transform="matrix(6.513672e-02 -0.9979 0.9979 6.513672e-02 205.0997 606.7704)" class="st6" cx="426.4" cy="193.9" rx="1.6" ry="1.6"/>
	
		<ellipse transform="matrix(6.513929e-02 -0.9979 0.9979 6.513929e-02 221.2029 652.8541)" class="st1" cx="459" cy="208.4" rx="1.5" ry="1.5"/>
	
		<ellipse transform="matrix(6.511170e-02 -0.9979 0.9979 6.511170e-02 270.6074 631.2062)" class="st8" cx="472.2" cy="171.2" rx="1.9" ry="1.9"/>
	
		<ellipse transform="matrix(6.512006e-02 -0.9979 0.9979 6.512006e-02 221.2115 652.8586)" class="st1" cx="459" cy="208.4" rx="3.7" ry="3.7"/>
	
		<ellipse transform="matrix(6.512641e-02 -0.9979 0.9979 6.512641e-02 200.2754 716.2189)" class="st3" cx="482.4" cy="251.2" rx="0.7" ry="0.7"/>
	
		<ellipse transform="matrix(6.510754e-02 -0.9979 0.9979 6.510754e-02 221.2171 652.8616)" class="st6" cx="459" cy="208.4" rx="1.9" ry="1.9"/>
	
		<ellipse transform="matrix(6.512070e-02 -0.9979 0.9979 6.512070e-02 251.8659 397.1601)" class="st1" cx="337.9" cy="64.2" rx="2.2" ry="2.2"/>
	
		<ellipse transform="matrix(6.506491e-02 -0.9979 0.9979 6.506491e-02 251.8845 397.1649)" class="st1" cx="337.9" cy="64.2" rx="0.5" ry="0.5"/>
	
		<ellipse transform="matrix(6.505159e-02 -0.9979 0.9979 6.505159e-02 201.7132 382.2722)" class="st8" cx="304.9" cy="83.5" rx="0.4" ry="0.4"/>
	
		<ellipse transform="matrix(6.507628e-02 -0.9979 0.9979 6.507628e-02 251.8807 397.1639)" class="st6" cx="337.9" cy="64.2" rx="0.9" ry="0.9"/>
	
		<ellipse transform="matrix(6.511862e-02 -0.9979 0.9979 6.511862e-02 307.4964 356.9169)" class="st1" cx="344.2" cy="14.4" rx="2.5" ry="2.5"/>
	
		<ellipse transform="matrix(6.511896e-02 -0.9979 0.9979 6.511896e-02 251.8665 397.1603)" class="st1" cx="337.9" cy="64.2" rx="3.6" ry="3.6"/>
	
		<ellipse transform="matrix(6.510017e-02 -0.9979 0.9979 6.510017e-02 219.4191 424.1401)" class="st1" cx="336.1" cy="95" rx="0.8" ry="0.8"/>
	
		<ellipse transform="matrix(6.511334e-02 -0.9979 0.9979 6.511334e-02 201.6947 382.2659)" class="st8" cx="304.9" cy="83.5" rx="1.2" ry="1.2"/>
	
		<ellipse transform="matrix(6.513681e-02 -0.9979 0.9979 6.513681e-02 251.8605 397.1588)" class="st8" cx="337.9" cy="64.2" rx="1.6" ry="1.6"/>
	
		<ellipse transform="matrix(6.510615e-02 -0.9979 0.9979 6.510615e-02 261.9304 445.006)" class="st8" cx="368.5" cy="82.7" rx="0.8" ry="0.8"/>
	
		<ellipse transform="matrix(6.513872e-02 -0.9979 0.9979 6.513872e-02 219.4063 424.1356)" class="st1" cx="336.1" cy="95" rx="0.6" ry="0.6"/>
	
		<ellipse transform="matrix(6.511672e-02 -0.9979 0.9979 6.511672e-02 251.8672 397.1605)" class="st6" cx="337.9" cy="64.2" rx="1.8" ry="1.8"/>
	
		<ellipse transform="matrix(6.511736e-02 -0.9979 0.9979 6.511736e-02 314.6473 374.4482)" class="st8" cx="357.2" cy="19.3" rx="0.8" ry="0.8"/>
	
		<ellipse transform="matrix(6.511796e-02 -0.9979 0.9979 6.511796e-02 307.4966 356.9169)" class="st1" cx="344.2" cy="14.4" rx="1.8" ry="1.8"/>
	
		<ellipse transform="matrix(6.511755e-02 -0.9979 0.9979 6.511755e-02 251.8669 397.1603)" class="st6" cx="337.9" cy="64.2" rx="1" ry="1"/>
	
		<ellipse transform="matrix(6.519558e-02 -0.9979 0.9979 6.519558e-02 261.8979 444.9965)" class="st6" cx="368.5" cy="82.7" rx="0.6" ry="0.6"/>
	
		<ellipse transform="matrix(6.512655e-02 -0.9979 0.9979 6.512655e-02 314.644 374.4478)" class="st6" cx="357.2" cy="19.3" rx="2.7" ry="2.7"/>
	
		<ellipse transform="matrix(6.513466e-02 -0.9979 0.9979 6.513466e-02 196.1897 647.1124)" class="st1" cx="443.5" cy="218.8" rx="0.9" ry="0.9"/>
	
		<ellipse transform="matrix(6.512616e-02 -0.9979 0.9979 6.512616e-02 205.104 606.7727)" class="st3" cx="426.4" cy="193.9" rx="4.3" ry="4.3"/>
	
		<ellipse transform="matrix(6.513029e-02 -0.9979 0.9979 6.513029e-02 144.3665 631.9722)" class="st6" cx="409.5" cy="238.9" rx="1.3" ry="1.3"/>
	
		<ellipse transform="matrix(6.515337e-02 -0.9979 0.9979 6.515337e-02 196.1817 647.1077)" class="st8" cx="443.5" cy="218.8" rx="1.2" ry="1.2"/>
	
		<ellipse transform="matrix(6.511860e-02 -0.9979 0.9979 6.511860e-02 164.6348 674.0028)" class="st6" cx="442" cy="249.1" rx="2.2" ry="2.2"/>
	
		<ellipse transform="matrix(6.510699e-02 -0.9979 0.9979 6.510699e-02 144.3757 631.9784)" class="st8" cx="409.5" cy="238.9" rx="3.1" ry="3.1"/>
	
		<ellipse transform="matrix(6.519941e-02 -0.9979 0.9979 6.519941e-02 196.1619 647.0963)" class="st1" cx="443.5" cy="218.8" rx="0.7" ry="0.7"/>
	
		<ellipse transform="matrix(6.511246e-02 -0.9979 0.9979 6.511246e-02 221.2148 652.8604)" class="st1" cx="459" cy="208.4" rx="1.4" ry="1.4"/>
	
		<ellipse transform="matrix(6.512363e-02 -0.9979 0.9979 6.512363e-02 205.1051 606.7733)" class="st6" cx="426.4" cy="193.9" rx="1.3" ry="1.3"/>
	
		<ellipse transform="matrix(6.520187e-02 -0.9979 0.9979 6.520187e-02 196.1609 647.0957)" class="st3" cx="443.5" cy="218.8" rx="0.3" ry="0.3"/>
	
		<ellipse transform="matrix(6.510492e-02 -0.9979 0.9979 6.510492e-02 175.8463 685.001)" class="st1" cx="453.5" cy="248.7" rx="0.8" ry="0.8"/>
	
		<ellipse transform="matrix(6.513374e-02 -0.9979 0.9979 6.513374e-02 164.6283 673.9985)" class="st1" cx="442" cy="249.1" rx="2.1" ry="2.1"/>
	
		<ellipse transform="matrix(6.511380e-02 -0.9979 0.9979 6.511380e-02 196.1987 647.1176)" class="st1" cx="443.5" cy="218.8" rx="0.6" ry="0.6"/>
	
		<ellipse transform="matrix(6.513301e-02 -0.9979 0.9979 6.513301e-02 200.2724 716.2171)" class="st6" cx="482.4" cy="251.2" rx="1.1" ry="1.1"/>
	
		<ellipse transform="matrix(6.516769e-02 -0.9979 0.9979 6.516769e-02 175.8188 684.9835)" class="st1" cx="453.5" cy="248.7" rx="0.6" ry="0.6"/>
	
		<ellipse transform="matrix(6.511448e-02 -0.9979 0.9979 6.511448e-02 196.1984 647.1173)" class="st6" cx="443.5" cy="218.8" rx="2.7" ry="2.7"/>
	
		<ellipse transform="matrix(6.514265e-02 -0.9979 0.9979 6.514265e-02 200.2679 716.2144)" class="st6" cx="482.4" cy="251.2" rx="0.6" ry="0.6"/>
	
		<ellipse transform="matrix(6.514025e-02 -0.9979 0.9979 6.514025e-02 221.2025 652.8538)" class="st6" cx="459" cy="208.4" rx="1.1" ry="1.1"/>
	
		<ellipse transform="matrix(6.515649e-02 -0.9979 0.9979 6.515649e-02 -39.3818 502.9964)" class="st1" cx="248.8" cy="272.5" rx="0.8" ry="0.8"/>
	
		<ellipse transform="matrix(6.518421e-02 -0.9979 0.9979 6.518421e-02 -66.1761 454.7808)" class="st8" cx="209.6" cy="262.7" rx="0.4" ry="0.4"/>
	
		<ellipse transform="matrix(6.512172e-02 -0.9979 0.9979 6.512172e-02 -102.2345 477.3724)" class="st1" cx="203.7" cy="293.2" rx="1.7" ry="1.7"/>
	
		<ellipse transform="matrix(6.512080e-02 -0.9979 0.9979 6.512080e-02 -39.3735 503.0068)" class="st6" cx="248.8" cy="272.5" rx="1.1" ry="1.1"/>
	
		<ellipse transform="matrix(6.511968e-02 -0.9979 0.9979 6.511968e-02 -102.2341 477.373)" class="st1" cx="203.7" cy="293.2" rx="1.3" ry="1.3"/>
	
		<ellipse transform="matrix(6.509577e-02 -0.9979 0.9979 6.509577e-02 -39.3677 503.0139)" class="st1" cx="248.8" cy="272.5" rx="1.4" ry="1.4"/>
	
		<ellipse transform="matrix(6.513161e-02 -0.9979 0.9979 6.513161e-02 -34.9773 465.4062)" class="st3" cx="230.9" cy="251.4" rx="2.7" ry="2.7"/>
	
		<ellipse transform="matrix(6.513368e-02 -0.9979 0.9979 6.513368e-02 -66.1664 454.7948)" class="st3" cx="209.6" cy="262.7" rx="1.2" ry="1.2"/>
	
		<ellipse transform="matrix(6.515178e-02 -0.9979 0.9979 6.515178e-02 -39.3806 502.9978)" class="st1" cx="248.8" cy="272.5" rx="1.6" ry="1.6"/>
	
		<ellipse transform="matrix(6.513538e-02 -0.9979 0.9979 6.513538e-02 -27.147 484.942)" class="st8" cx="245.2" cy="257" rx="2" ry="2"/>
	
		<ellipse transform="matrix(6.511182e-02 -0.9979 0.9979 6.511182e-02 -34.9731 465.4115)" class="st6" cx="230.9" cy="251.4" rx="1.7" ry="1.7"/>
	
		<ellipse transform="matrix(6.512184e-02 -0.9979 0.9979 6.512184e-02 -39.3737 503.0064)" class="st1" cx="248.8" cy="272.5" rx="2.6" ry="2.6"/>
	
		<ellipse transform="matrix(6.511671e-02 -0.9979 0.9979 6.511671e-02 10.944 546.3198)" class="st1" cx="297" cy="267.3" rx="1.2" ry="1.2"/>
	
		<ellipse transform="matrix(6.510293e-02 -0.9979 0.9979 6.510293e-02 -39.3694 503.0119)" class="st1" cx="248.8" cy="272.5" rx="2.2" ry="2.2"/>
	
		<ellipse transform="matrix(6.511455e-02 -0.9979 0.9979 6.511455e-02 10.9447 546.3204)" class="st6" cx="297" cy="267.3" rx="2.7" ry="2.7"/>
	
		<ellipse transform="matrix(6.513780e-02 -0.9979 0.9979 6.513780e-02 -27.1476 484.9413)" class="st8" cx="245.2" cy="257" rx="0.6" ry="0.6"/>
</g>
</svg>
