<?xml version="1.0" encoding="utf-8"?>
<!-- Generator: Adobe Illustrator 21.0.0, SVG Export Plug-In . SVG Version: 6.00 Build 0)  -->
<svg version="1.1" id="Layer_1" xmlns="http://www.w3.org/2000/svg" xmlns:xlink="http://www.w3.org/1999/xlink" x="0px" y="0px"
	 viewBox="0 0 252 186.3" style="enable-background:new 0 0 252 186.3;" xml:space="preserve">
<style type="text/css">
	.st0{fill:#040303;}
</style>
<g>
	<path class="st0" d="M21.8,137.5c-2.6,1.2-6.7,1.8-12.2,1.8H4.3L2.8,136h7.1c3.5,0,6.5-0.3,9-1l-6.4-16.4h3.9l6.5,16.5L21.8,137.5z
		 M29.1,107.2h3.6v32.1h-3.6V107.2z M49.8,118.6c1.6,0,3.6,0.2,6,0.7c0.2,0,0.6,0.1,1.2,0.2v19.5c0,3-0.8,5.3-2.4,6.9
		c-1.6,1.6-4,2.6-7.2,3.2l-1.5-3.3c2.5-0.4,4.4-1.1,5.6-2c1.2-1,1.8-2.5,1.8-4.5v-16.9c-1.4-0.3-2.6-0.5-3.7-0.5
		c-2.1,0-3.8,0.7-5,2.1c-1.2,1.4-1.8,3.1-1.8,5.3c0,1.9,0.6,3.5,1.7,4.8c1.1,1.3,2.8,2,4.8,2H52l-1.5,3.3h-1.4
		c-2.1,0-3.9-0.5-5.4-1.4c-1.5-0.9-2.7-2.2-3.5-3.7c-0.8-1.6-1.2-3.3-1.2-5.2c0-1.8,0.4-3.5,1.3-5.1c0.9-1.6,2.1-2.9,3.7-3.8
		C45.7,119.1,47.6,118.6,49.8,118.6 M67.6,139.2c0,5.6-2.7,8.9-8,9.9l-1.5-3.3c2-0.3,3.5-0.9,4.4-1.8c0.9-1,1.4-2.5,1.4-4.6V119h3.6
		V139.2z M93.8,118.6c1.3,0,3.1,0.2,5.2,0.5l2.1,0.3l0,12.8c0,1.3,0.3,2.3,0.9,2.9c0.6,0.6,1.5,0.9,2.7,0.9h0.8c0.2,0,0.3,0,0.3,0.1
		c0.1,0.1,0.1,0.2,0.1,0.3v2.5c0,0.1,0,0.2-0.1,0.3c-0.1,0.1-0.2,0.1-0.3,0.1h-1.6c-2.2,0-3.8-0.6-4.9-1.9c-1.1-1.2-1.6-2.9-1.6-5
		v-10c-1.5-0.3-2.7-0.5-3.7-0.5c-2.1,0-3.8,0.7-5,2.1c-1.2,1.4-1.8,3.1-1.8,5.3c0,1.9,0.6,3.5,1.7,4.8c1.1,1.3,2.8,2,4.8,2h3
		l-1.5,3.3h-1.8c-2.1,0-3.9-0.5-5.4-1.4c-1.5-0.9-2.7-2.2-3.5-3.7c-0.8-1.6-1.2-3.3-1.2-5.2c0-1.8,0.4-3.5,1.3-5.1
		c0.9-1.6,2.1-2.9,3.7-3.8C89.7,119.1,91.6,118.6,93.8,118.6 M87.9,110.7h3.9v4.2h-3.9V110.7z M95.8,110.7h3.9v4.2h-3.9V110.7z
		 M110.8,136c0.2,0,0.3,0,0.3,0.1c0.1,0.1,0.1,0.2,0.1,0.3v2.5c0,0.1,0,0.2-0.1,0.3c-0.1,0.1-0.2,0.1-0.3,0.1h-6.5
		c-0.2,0-0.3,0-0.3-0.1c-0.1-0.1-0.1-0.2-0.1-0.3v-2.5c0-0.1,0-0.2,0.1-0.3c0.1-0.1,0.2-0.1,0.3-0.1H110.8z M146.6,130.8
		c0,0.8-0.1,1.6-0.3,2.4c1.1,1.9,3,2.8,5.8,2.8c0.2,0,0.3,0,0.3,0.1c0.1,0.1,0.1,0.2,0.1,0.3v2.5c0,0.1,0,0.2-0.1,0.3
		c-0.1,0.1-0.2,0.1-0.3,0.1c-1.6,0-3-0.3-4.1-0.8c-1.1-0.6-2.1-1.4-3-2.6c-1.6,2.3-3.9,3.5-6.8,3.5c-3.2,0-5.6-1.3-7.5-3.9
		c-0.7,1.2-1.6,2.1-2.8,2.8c-1.2,0.7-2.5,1.1-4.1,1.1h-13.2c-0.2,0-0.3,0-0.3-0.1c-0.1-0.1-0.1-0.2-0.1-0.3v-2.5
		c0-0.1,0-0.2,0.1-0.3c0.1-0.1,0.2-0.1,0.3-0.1h5.3V119h3.7V136h3.5c1.5,0,2.8-0.5,3.8-1.6c1-1,1.5-2.4,1.5-4V119h3.7v11.8
		c0,0.9,0.3,1.7,0.8,2.5c0.6,0.8,1.3,1.4,2.2,1.9c0.9,0.5,1.8,0.7,2.7,0.7c1.5,0,2.8-0.5,3.7-1.5c0.9-1,1.4-2.4,1.4-4v-13.2h3.6
		V130.8z M157.5,136c0.2,0,0.3,0,0.3,0.1c0.1,0.1,0.1,0.2,0.1,0.3v2.5c0,0.1,0,0.2-0.1,0.3c-0.1,0.1-0.2,0.1-0.3,0.1H151
		c-0.2,0-0.3,0-0.3-0.1c-0.1-0.1-0.1-0.2-0.1-0.3v-2.5c0-0.1,0-0.2,0.1-0.3c0.1-0.1,0.2-0.1,0.3-0.1H157.5z M185.6,139.3
		c-1.7,0-3.3-0.3-4.6-1c-1.4-0.6-2.5-1.6-3.4-2.9c-0.7,1.1-1.6,2.1-2.8,2.8c-1.2,0.7-2.5,1.1-4.1,1.1h-13.2c-0.2,0-0.3,0-0.3-0.1
		c-0.1-0.1-0.1-0.2-0.1-0.3v-2.5c0-0.1,0-0.2,0.1-0.3c0.1-0.1,0.2-0.1,0.3-0.1h5.3V119h3.7V136h3.5c1.5,0,2.8-0.5,3.8-1.6
		c1-1,1.5-2.4,1.5-4V119h3.6v12c0.1,0.9,0.4,1.7,1,2.5c0.6,0.8,1.5,1.4,2.5,1.8c1,0.4,2,0.7,3.1,0.7h4.1v-18.7h3.7v22H185.6z
		 M221.1,136c0.2,0,0.3,0,0.3,0.1c0.1,0.1,0.1,0.2,0.1,0.3v2.5c0,0.1,0,0.2-0.1,0.3c-0.1,0.1-0.2,0.1-0.3,0.1h-4.2
		c0,2.9-0.9,5.1-2.5,6.7c-1.6,1.6-4,2.6-7.2,3.1l-1.5-3.3c2.5-0.4,4.4-1.1,5.6-2c1.2-1,1.8-2.5,1.8-4.5v-16.9
		c-1.4-0.3-2.6-0.5-3.7-0.5c-2.1,0-3.8,0.7-5,2.1c-1.2,1.4-1.8,3.1-1.8,5.3c0,1.9,0.6,3.5,1.7,4.8c1.1,1.3,2.8,2,4.8,2h2.6l-1.5,3.3
		h-1.4c-2.1,0-3.9-0.5-5.4-1.4c-1.5-0.9-2.7-2.2-3.5-3.7c-0.8-1.6-1.2-3.3-1.2-5.2c0-1.8,0.4-3.5,1.3-5.1c0.9-1.6,2.1-2.9,3.7-3.8
		c1.6-1,3.6-1.4,5.8-1.4c1.6,0,3.6,0.2,6,0.7c0.2,0,0.6,0.1,1.2,0.2V136H221.1z M204.1,115.6l0.6-2.6h2.6c-0.5-0.7-0.8-1.4-0.8-2.1
		c0-1.3,0.4-2.3,1.2-3.1c0.8-0.8,1.9-1.2,3.3-1.2c0.8,0,1.6,0.1,2.6,0.4l-0.8,2.4c-0.6-0.2-1.2-0.3-1.6-0.3c-0.6,0-1,0.2-1.4,0.5
		c-0.4,0.3-0.5,0.9-0.5,1.5c0,0.8,0.3,1.4,0.9,1.9h5.2v2.6H204.1z M226.5,136c0.2,0,0.3,0,0.3,0.1c0.1,0.1,0.1,0.2,0.1,0.3v2.5
		c0,0.1,0,0.2-0.1,0.3c-0.1,0.1-0.2,0.1-0.3,0.1H220c-0.2,0-0.3,0-0.3-0.1c-0.1-0.1-0.1-0.2-0.1-0.3v-2.5c0-0.1,0-0.2,0.1-0.3
		c0.1-0.1,0.2-0.1,0.3-0.1H226.5z M237.2,118.6c2.3,0,4.3,0.5,6,1.4c1.7,1,2.9,2.2,3.7,3.8c0.8,1.6,1.2,3.3,1.2,5.2
		c0,1.6-0.3,3.3-0.8,5.2c-0.5,1.9-1.1,3.6-1.8,5h-19c-0.2,0-0.3-0.1-0.3-0.2c-0.1-0.1-0.1-0.2-0.1-0.3v-2.5c0-0.1,0-0.2,0.1-0.3
		c0.1-0.1,0.2-0.1,0.3-0.1h3.4v-16.5C233,118.9,235.5,118.6,237.2,118.6 M237.2,121.9c-1.3,0-2.5,0.1-3.6,0.4V136h9.4
		c0.9-2.2,1.3-4.5,1.3-6.9c0-2.1-0.6-3.8-1.7-5.2C241.4,122.6,239.6,121.9,237.2,121.9"/>
	<g>
		<path class="st0" d="M4.4,158.4c1.2-0.2,2.9-0.4,4.5-0.4c2.5,0,4.1,0.5,5.2,1.5c0.9,0.8,1.4,2,1.4,3.4c0,2.4-1.5,4-3.4,4.6v0.1
			c1.4,0.5,2.2,1.8,2.6,3.6c0.6,2.5,1,4.2,1.4,4.9h-2.4c-0.3-0.5-0.7-2.1-1.2-4.3c-0.5-2.5-1.5-3.4-3.6-3.5H6.8v7.8H4.4V158.4z
			 M6.8,166.6h2.4c2.5,0,4.1-1.4,4.1-3.4c0-2.3-1.7-3.3-4.1-3.4c-1.1,0-1.9,0.1-2.3,0.2V166.6z"/>
		<path class="st0" d="M34.2,166.9c0,6.2-3.8,9.5-8.4,9.5c-4.8,0-8.1-3.7-8.1-9.1c0-5.7,3.6-9.5,8.4-9.5
			C31.1,157.8,34.2,161.6,34.2,166.9z M20.3,167.2c0,3.8,2.1,7.3,5.7,7.3c3.7,0,5.8-3.4,5.8-7.5c0-3.6-1.9-7.3-5.7-7.3
			C22.2,159.7,20.3,163.3,20.3,167.2z"/>
		<path class="st0" d="M40.2,176.1l-4.6-18h2.5l2.1,9.1c0.5,2.2,1,4.5,1.3,6.2h0.1c0.3-1.8,0.9-3.9,1.5-6.2l2.4-9.1h2.4l2.2,9.1
			c0.5,2.1,1,4.3,1.3,6.2h0.1c0.4-2,0.9-4,1.4-6.2l2.4-9.1h2.4l-5.1,18h-2.4l-2.3-9.4c-0.6-2.3-0.9-4.1-1.2-5.9h-0.1
			c-0.3,1.8-0.7,3.6-1.4,5.9l-2.6,9.4H40.2z"/>
		<path class="st0" d="M61.3,170.4l-1.9,5.7H57l6.1-18h2.8l6.1,18h-2.5l-1.9-5.7H61.3z M67.2,168.6l-1.8-5.2
			c-0.4-1.2-0.7-2.2-0.9-3.3h-0.1c-0.3,1.1-0.6,2.2-0.9,3.3l-1.8,5.2H67.2z"/>
		<path class="st0" d="M74.7,158.4c1.4-0.2,3.1-0.4,4.9-0.4c3.3,0,5.7,0.8,7.3,2.2c1.6,1.5,2.5,3.6,2.5,6.5c0,2.9-0.9,5.3-2.6,7
			c-1.7,1.7-4.5,2.6-8,2.6c-1.7,0-3-0.1-4.2-0.2V158.4z M77,174.3c0.6,0.1,1.4,0.1,2.4,0.1c5,0,7.7-2.8,7.7-7.6
			c0-4.2-2.4-6.9-7.3-6.9c-1.2,0-2.1,0.1-2.7,0.2V174.3z"/>
		<path class="st0" d="M98.2,158.1h9.7v1.9h-7.4v6h6.8v1.9h-6.8v8.1h-2.3V158.1z"/>
		<path class="st0" d="M126.5,166.9c0,6.2-3.8,9.5-8.4,9.5c-4.8,0-8.1-3.7-8.1-9.1c0-5.7,3.6-9.5,8.4-9.5
			C123.4,157.8,126.5,161.6,126.5,166.9z M112.6,167.2c0,3.8,2.1,7.3,5.7,7.3c3.7,0,5.8-3.4,5.8-7.5c0-3.6-1.9-7.3-5.7-7.3
			C114.5,159.7,112.6,163.3,112.6,167.2z"/>
		<path class="st0" d="M131.9,158.1v10.7c0,4,1.8,5.7,4.2,5.7c2.7,0,4.4-1.8,4.4-5.7v-10.7h2.4v10.5c0,5.5-2.9,7.8-6.8,7.8
			c-3.7,0-6.5-2.1-6.5-7.7v-10.6H131.9z"/>
		<path class="st0" d="M146.8,176.1v-18h2.5l5.8,9.1c1.3,2.1,2.4,4,3.2,5.8l0.1,0c-0.2-2.4-0.3-4.6-0.3-7.4v-7.5h2.2v18H158
			l-5.7-9.1c-1.3-2-2.5-4.1-3.4-6l-0.1,0c0.1,2.3,0.2,4.4,0.2,7.4v7.7H146.8z"/>
		<path class="st0" d="M164.4,158.4c1.4-0.2,3.1-0.4,4.9-0.4c3.3,0,5.7,0.8,7.3,2.2c1.6,1.5,2.5,3.6,2.5,6.5c0,2.9-0.9,5.3-2.6,7
			c-1.7,1.7-4.5,2.6-8,2.6c-1.7,0-3-0.1-4.2-0.2V158.4z M166.7,174.3c0.6,0.1,1.4,0.1,2.3,0.1c5,0,7.7-2.8,7.7-7.6
			c0-4.2-2.4-6.9-7.3-6.9c-1.2,0-2.1,0.1-2.7,0.2V174.3z"/>
		<path class="st0" d="M184.8,170.4l-1.9,5.7h-2.4l6.1-18h2.8l6.1,18h-2.5l-1.9-5.7H184.8z M190.7,168.6l-1.8-5.2
			c-0.4-1.2-0.7-2.2-0.9-3.3h-0.1c-0.3,1.1-0.6,2.2-0.9,3.3l-1.8,5.2H190.7z"/>
		<path class="st0" d="M199.6,160.1h-5.5v-2h13.3v2H202v16h-2.3V160.1z"/>
		<path class="st0" d="M211.8,158.1v18h-2.3v-18H211.8z"/>
		<path class="st0" d="M231.3,166.9c0,6.2-3.8,9.5-8.4,9.5c-4.8,0-8.1-3.7-8.1-9.1c0-5.7,3.6-9.5,8.4-9.5
			C228.1,157.8,231.3,161.6,231.3,166.9z M217.3,167.2c0,3.8,2.1,7.3,5.7,7.3c3.7,0,5.8-3.4,5.8-7.5c0-3.6-1.9-7.3-5.7-7.3
			C219.2,159.7,217.3,163.3,217.3,167.2z"/>
		<path class="st0" d="M234.3,176.1v-18h2.5l5.8,9.1c1.3,2.1,2.4,4,3.2,5.8l0.1,0c-0.2-2.4-0.3-4.6-0.3-7.4v-7.5h2.2v18h-2.3
			l-5.7-9.1c-1.3-2-2.5-4.1-3.4-6l-0.1,0c0.1,2.3,0.2,4.4,0.2,7.4v7.7H234.3z"/>
	</g>
	<path class="st0" d="M91.4,62.8c-4.1,3.8-9,5.6-14.4,6.3c-2,0.3-4.1,0.3-6.1,0.4c0,0,0-0.1,0-0.2c-1.4,0-2.7,0-4.1,0
		c-3.2-0.1-4.7-2.8-3.1-5.6c1.4-2.4,3.5-3.6,6.3-3.8c3.2-0.2,6.5-0.3,9.7-0.8c2.5-0.4,3.4-1.9,3.2-4.4C82.7,52,81.1,50,79,48.3
		c-1-0.8-2.1-1.6-3.1-2.5c-1.5-1.2-2-2.7-1.7-4.7c1.1-5.4,7.3-7.8,11.7-4.4C90,40,93.3,43.9,95,48.9C96.9,54.4,95.5,58.9,91.4,62.8"
		/>
	<path class="st0" d="M115.8,45.5c-0.2,7.3-1.3,14.3-3.5,21.2c-1,3.1-3.3,3.8-5.8,1.9c-3.2-2.4-4.4-5.5-3.3-9.3
		c1.1-4,1.9-8,1.9-12.1c0-7.4-2-14.2-5.3-20.8c-0.8-1.6-1.7-3.2-2.5-4.8c-1.9-3.9,0.3-8.7,4.4-9.9c2.1-0.6,4,0.1,5.1,2
		c4,7.1,7,14.6,8.1,22.7C115.3,39.4,115.5,42.4,115.8,45.5"/>
	<path class="st0" d="M149.2,26.9c-2.2,2.7-5.3,3.8-8.9,3.8c-1.2-0.4-2,0.3-2.8,1.1c-3.3,3.1-7.1,4.2-11.6,3.1
		c-6-1.5-7.5-7.7-4.4-12.6c1-1.6,3.5-2.1,5.2-1.3c1,0.5,1.4,1.4,1.3,2.5c0,0.3-0.2,0.7-0.3,1c-0.4,1.1-0.7,2.2,0.1,3.1
		c0.9,1,2.2,1.1,3.4,0.8c0.2,0,0.4-0.1,0.6-0.2c1.7-0.5,1.7-0.5,1.3-2.3c-0.6-2.3,0.7-4.8,2.9-5.4c1.6-0.5,2.4-0.1,3.4,1.5
		c1.1,1.9,2.2,2.3,4,1.5c1-0.4,1.1-0.9,0.3-1.7c-0.6-0.6-1.3-1-2-1.5c-2-1.3-2.4-2.2-1.8-3.7c0.9-2.2,2.9-3.5,4.8-2.8
		C149.8,15.5,153.7,21.5,149.2,26.9"/>
	<path class="st0" d="M155.1,58.9c-3.9,8.2-9.4,15.1-17.4,19.6c-4.5,2.5-9.3,4.2-14.6,4.4c-2.8,0.1-5.6-0.3-7.5-2.8
		c-1.9-2.5-1.1-5.4,1.9-6.3c1.7-0.5,3.4-0.6,5.2-0.8c8-1.1,14.1-4.9,17.8-12.2c0.1-0.2,0.1-0.4,0.2-0.7c-1.3-0.1-2.5-0.1-3.6-0.2
		c-6.9-0.5-11-7.5-8-13.7c2.8-6,7.8-9,14.3-9.8c6.7-0.8,12.7,3.6,13.7,10.2C157.7,50.9,157,55,155.1,58.9"/>
	<path class="st0" d="M190.2,41.5c-0.4,6.7-2.5,13-6.1,18.7c-6.1,9.9-14.7,17-25.4,21.6c-3.2,1.4-6.1,1.3-8.9-1
		c-2.7-2.3-2.4-5.2,0.8-6.5c5-2.1,9.8-4.7,14.1-8.1c6.5-5.3,11.4-11.6,14.1-19.6c0.7-2,1-4.2,1.2-6.3c0.1-2,0.8-3.4,2.7-4.1
		c2.1-0.8,4-0.7,5.8,0.7C189.9,38.1,190.4,39.7,190.2,41.5"/>
</g>
</svg>
